<?xml version="1.0" encoding="utf-8" standalone="no"?>
<!DOCTYPE svg PUBLIC "-//W3C//DTD SVG 1.1//EN"
  "http://www.w3.org/Graphics/SVG/1.1/DTD/svg11.dtd">
<svg xmlns:xlink="http://www.w3.org/1999/xlink" width="573.929688pt" height="154.07625pt" viewBox="0 0 573.929688 154.07625" xmlns="http://www.w3.org/2000/svg" version="1.1">
 <metadata>
  <rdf:RDF xmlns:dc="http://purl.org/dc/elements/1.1/" xmlns:cc="http://creativecommons.org/ns#" xmlns:rdf="http://www.w3.org/1999/02/22-rdf-syntax-ns#">
   <cc:Work>
    <dc:type rdf:resource="http://purl.org/dc/dcmitype/StillImage"/>
    <dc:date>2024-10-19T10:40:24.102494</dc:date>
    <dc:format>image/svg+xml</dc:format>
    <dc:creator>
     <cc:Agent>
      <dc:title>Matplotlib v3.7.2, https://matplotlib.org/</dc:title>
     </cc:Agent>
    </dc:creator>
   </cc:Work>
  </rdf:RDF>
 </metadata>
 <defs>
  <style type="text/css">*{stroke-linejoin: round; stroke-linecap: butt}</style>
 </defs>
 <g id="figure_1">
  <g id="patch_1">
   <path d="M 0 154.07625 
L 573.929688 154.07625 
L 573.929688 0 
L 0 0 
z
" style="fill: #ffffff"/>
  </g>
  <g id="axes_1">
   <g id="patch_2">
    <path d="M 64.529687 133.198125 
L 141.791226 133.198125 
L 141.791226 22.318125 
L 64.529687 22.318125 
z
" style="fill: #ffffff"/>
   </g>
   <g id="patch_3">
    <path d="M 66.461226 133.198125 
L 81.913534 133.198125 
L 81.913534 132.937221 
L 66.461226 132.937221 
z
" clip-path="url(#pf0a8026a43)" style="fill: #cce0cc; opacity: 0.7"/>
   </g>
   <g id="patch_4">
    <path d="M 85.776611 133.198125 
L 101.228918 133.198125 
L 101.228918 87.594065 
L 85.776611 87.594065 
z
" clip-path="url(#pf0a8026a43)" style="fill: #a8ceab; opacity: 0.7"/>
   </g>
   <g id="patch_5">
    <path d="M 105.091995 133.198125 
L 120.544303 133.198125 
L 120.544303 87.143504 
L 105.091995 87.143504 
z
" clip-path="url(#pf0a8026a43)" style="fill: #6eb374; opacity: 0.7"/>
   </g>
   <g id="patch_6">
    <path d="M 124.40738 133.198125 
L 139.859688 133.198125 
L 139.859688 78.372103 
L 124.40738 78.372103 
z
" clip-path="url(#pf0a8026a43)" style="fill: #339350; opacity: 0.7"/>
   </g>
   <g id="matplotlib.axis_1">
    <g id="xtick_1"/>
    <g id="xtick_2"/>
    <g id="xtick_3"/>
    <g id="xtick_4"/>
    <g id="text_1">
     <!--   -->
     <g transform="translate(101.571394 144.796562) scale(0.1 -0.1)">
      <defs>
       <path id="DejaVuSans-20" transform="scale(0.015625)"/>
      </defs>
      <use xlink:href="#DejaVuSans-20"/>
     </g>
    </g>
   </g>
   <g id="matplotlib.axis_2">
    <g id="ytick_1">
     <g id="line2d_1">
      <defs>
       <path id="md15224ffe3" d="M 0 0 
L -3.5 0 
" style="stroke: #000000; stroke-width: 0.8"/>
      </defs>
      <g>
       <use xlink:href="#md15224ffe3" x="64.529687" y="133.198125" style="stroke: #000000; stroke-width: 0.8"/>
      </g>
     </g>
     <g id="text_2">
      <!-- 0 -->
      <g transform="translate(51.167187 136.997344) scale(0.1 -0.1)">
       <defs>
        <path id="DejaVuSans-30" d="M 2034 4250 
Q 1547 4250 1301 3770 
Q 1056 3291 1056 2328 
Q 1056 1369 1301 889 
Q 1547 409 2034 409 
Q 2525 409 2770 889 
Q 3016 1369 3016 2328 
Q 3016 3291 2770 3770 
Q 2525 4250 2034 4250 
z
M 2034 4750 
Q 2819 4750 3233 4129 
Q 3647 3509 3647 2328 
Q 3647 1150 3233 529 
Q 2819 -91 2034 -91 
Q 1250 -91 836 529 
Q 422 1150 422 2328 
Q 422 3509 836 4129 
Q 1250 4750 2034 4750 
z
" transform="scale(0.015625)"/>
       </defs>
       <use xlink:href="#DejaVuSans-30"/>
      </g>
     </g>
    </g>
    <g id="ytick_2">
     <g id="line2d_2">
      <g>
       <use xlink:href="#md15224ffe3" x="64.529687" y="103.093786" style="stroke: #000000; stroke-width: 0.8"/>
      </g>
     </g>
     <g id="text_3">
      <!-- 10000 -->
      <g transform="translate(25.717187 106.893005) scale(0.1 -0.1)">
       <defs>
        <path id="DejaVuSans-31" d="M 794 531 
L 1825 531 
L 1825 4091 
L 703 3866 
L 703 4441 
L 1819 4666 
L 2450 4666 
L 2450 531 
L 3481 531 
L 3481 0 
L 794 0 
L 794 531 
z
" transform="scale(0.015625)"/>
       </defs>
       <use xlink:href="#DejaVuSans-31"/>
       <use xlink:href="#DejaVuSans-30" x="63.623047"/>
       <use xlink:href="#DejaVuSans-30" x="127.246094"/>
       <use xlink:href="#DejaVuSans-30" x="190.869141"/>
       <use xlink:href="#DejaVuSans-30" x="254.492188"/>
      </g>
     </g>
    </g>
    <g id="ytick_3">
     <g id="line2d_3">
      <g>
       <use xlink:href="#md15224ffe3" x="64.529687" y="72.989447" style="stroke: #000000; stroke-width: 0.8"/>
      </g>
     </g>
     <g id="text_4">
      <!-- 20000 -->
      <g transform="translate(25.717187 76.788666) scale(0.1 -0.1)">
       <defs>
        <path id="DejaVuSans-32" d="M 1228 531 
L 3431 531 
L 3431 0 
L 469 0 
L 469 531 
Q 828 903 1448 1529 
Q 2069 2156 2228 2338 
Q 2531 2678 2651 2914 
Q 2772 3150 2772 3378 
Q 2772 3750 2511 3984 
Q 2250 4219 1831 4219 
Q 1534 4219 1204 4116 
Q 875 4013 500 3803 
L 500 4441 
Q 881 4594 1212 4672 
Q 1544 4750 1819 4750 
Q 2544 4750 2975 4387 
Q 3406 4025 3406 3419 
Q 3406 3131 3298 2873 
Q 3191 2616 2906 2266 
Q 2828 2175 2409 1742 
Q 1991 1309 1228 531 
z
" transform="scale(0.015625)"/>
       </defs>
       <use xlink:href="#DejaVuSans-32"/>
       <use xlink:href="#DejaVuSans-30" x="63.623047"/>
       <use xlink:href="#DejaVuSans-30" x="127.246094"/>
       <use xlink:href="#DejaVuSans-30" x="190.869141"/>
       <use xlink:href="#DejaVuSans-30" x="254.492188"/>
      </g>
     </g>
    </g>
    <g id="ytick_4">
     <g id="line2d_4">
      <g>
       <use xlink:href="#md15224ffe3" x="64.529687" y="42.885108" style="stroke: #000000; stroke-width: 0.8"/>
      </g>
     </g>
     <g id="text_5">
      <!-- 30000 -->
      <g transform="translate(25.717187 46.684327) scale(0.1 -0.1)">
       <defs>
        <path id="DejaVuSans-33" d="M 2597 2516 
Q 3050 2419 3304 2112 
Q 3559 1806 3559 1356 
Q 3559 666 3084 287 
Q 2609 -91 1734 -91 
Q 1441 -91 1130 -33 
Q 819 25 488 141 
L 488 750 
Q 750 597 1062 519 
Q 1375 441 1716 441 
Q 2309 441 2620 675 
Q 2931 909 2931 1356 
Q 2931 1769 2642 2001 
Q 2353 2234 1838 2234 
L 1294 2234 
L 1294 2753 
L 1863 2753 
Q 2328 2753 2575 2939 
Q 2822 3125 2822 3475 
Q 2822 3834 2567 4026 
Q 2313 4219 1838 4219 
Q 1578 4219 1281 4162 
Q 984 4106 628 3988 
L 628 4550 
Q 988 4650 1302 4700 
Q 1616 4750 1894 4750 
Q 2613 4750 3031 4423 
Q 3450 4097 3450 3541 
Q 3450 3153 3228 2886 
Q 3006 2619 2597 2516 
z
" transform="scale(0.015625)"/>
       </defs>
       <use xlink:href="#DejaVuSans-33"/>
       <use xlink:href="#DejaVuSans-30" x="63.623047"/>
       <use xlink:href="#DejaVuSans-30" x="127.246094"/>
       <use xlink:href="#DejaVuSans-30" x="190.869141"/>
       <use xlink:href="#DejaVuSans-30" x="254.492188"/>
      </g>
     </g>
    </g>
    <g id="text_6">
     <!-- GFP (a.u.) -->
     <g transform="translate(18.597656 114.757734) rotate(-90) scale(0.15 -0.15)">
      <defs>
       <path id="DejaVuSans-47" d="M 3809 666 
L 3809 1919 
L 2778 1919 
L 2778 2438 
L 4434 2438 
L 4434 434 
Q 4069 175 3628 42 
Q 3188 -91 2688 -91 
Q 1594 -91 976 548 
Q 359 1188 359 2328 
Q 359 3472 976 4111 
Q 1594 4750 2688 4750 
Q 3144 4750 3555 4637 
Q 3966 4525 4313 4306 
L 4313 3634 
Q 3963 3931 3569 4081 
Q 3175 4231 2741 4231 
Q 1884 4231 1454 3753 
Q 1025 3275 1025 2328 
Q 1025 1384 1454 906 
Q 1884 428 2741 428 
Q 3075 428 3337 486 
Q 3600 544 3809 666 
z
" transform="scale(0.015625)"/>
       <path id="DejaVuSans-46" d="M 628 4666 
L 3309 4666 
L 3309 4134 
L 1259 4134 
L 1259 2759 
L 3109 2759 
L 3109 2228 
L 1259 2228 
L 1259 0 
L 628 0 
L 628 4666 
z
" transform="scale(0.015625)"/>
       <path id="DejaVuSans-50" d="M 1259 4147 
L 1259 2394 
L 2053 2394 
Q 2494 2394 2734 2622 
Q 2975 2850 2975 3272 
Q 2975 3691 2734 3919 
Q 2494 4147 2053 4147 
L 1259 4147 
z
M 628 4666 
L 2053 4666 
Q 2838 4666 3239 4311 
Q 3641 3956 3641 3272 
Q 3641 2581 3239 2228 
Q 2838 1875 2053 1875 
L 1259 1875 
L 1259 0 
L 628 0 
L 628 4666 
z
" transform="scale(0.015625)"/>
       <path id="DejaVuSans-28" d="M 1984 4856 
Q 1566 4138 1362 3434 
Q 1159 2731 1159 2009 
Q 1159 1288 1364 580 
Q 1569 -128 1984 -844 
L 1484 -844 
Q 1016 -109 783 600 
Q 550 1309 550 2009 
Q 550 2706 781 3412 
Q 1013 4119 1484 4856 
L 1984 4856 
z
" transform="scale(0.015625)"/>
       <path id="DejaVuSans-61" d="M 2194 1759 
Q 1497 1759 1228 1600 
Q 959 1441 959 1056 
Q 959 750 1161 570 
Q 1363 391 1709 391 
Q 2188 391 2477 730 
Q 2766 1069 2766 1631 
L 2766 1759 
L 2194 1759 
z
M 3341 1997 
L 3341 0 
L 2766 0 
L 2766 531 
Q 2569 213 2275 61 
Q 1981 -91 1556 -91 
Q 1019 -91 701 211 
Q 384 513 384 1019 
Q 384 1609 779 1909 
Q 1175 2209 1959 2209 
L 2766 2209 
L 2766 2266 
Q 2766 2663 2505 2880 
Q 2244 3097 1772 3097 
Q 1472 3097 1187 3025 
Q 903 2953 641 2809 
L 641 3341 
Q 956 3463 1253 3523 
Q 1550 3584 1831 3584 
Q 2591 3584 2966 3190 
Q 3341 2797 3341 1997 
z
" transform="scale(0.015625)"/>
       <path id="DejaVuSans-2e" d="M 684 794 
L 1344 794 
L 1344 0 
L 684 0 
L 684 794 
z
" transform="scale(0.015625)"/>
       <path id="DejaVuSans-75" d="M 544 1381 
L 544 3500 
L 1119 3500 
L 1119 1403 
Q 1119 906 1312 657 
Q 1506 409 1894 409 
Q 2359 409 2629 706 
Q 2900 1003 2900 1516 
L 2900 3500 
L 3475 3500 
L 3475 0 
L 2900 0 
L 2900 538 
Q 2691 219 2414 64 
Q 2138 -91 1772 -91 
Q 1169 -91 856 284 
Q 544 659 544 1381 
z
M 1991 3584 
L 1991 3584 
z
" transform="scale(0.015625)"/>
       <path id="DejaVuSans-29" d="M 513 4856 
L 1013 4856 
Q 1481 4119 1714 3412 
Q 1947 2706 1947 2009 
Q 1947 1309 1714 600 
Q 1481 -109 1013 -844 
L 513 -844 
Q 928 -128 1133 580 
Q 1338 1288 1338 2009 
Q 1338 2731 1133 3434 
Q 928 4138 513 4856 
z
" transform="scale(0.015625)"/>
      </defs>
      <use xlink:href="#DejaVuSans-47"/>
      <use xlink:href="#DejaVuSans-46" x="77.490234"/>
      <use xlink:href="#DejaVuSans-50" x="135.009766"/>
      <use xlink:href="#DejaVuSans-20" x="195.3125"/>
      <use xlink:href="#DejaVuSans-28" x="227.099609"/>
      <use xlink:href="#DejaVuSans-61" x="266.113281"/>
      <use xlink:href="#DejaVuSans-2e" x="327.392578"/>
      <use xlink:href="#DejaVuSans-75" x="359.179688"/>
      <use xlink:href="#DejaVuSans-2e" x="422.558594"/>
      <use xlink:href="#DejaVuSans-29" x="454.345703"/>
     </g>
    </g>
   </g>
   <g id="patch_7">
    <path d="M 64.529687 133.198125 
L 64.529687 22.318125 
" style="fill: none; stroke: #000000; stroke-width: 0.8; stroke-linejoin: miter; stroke-linecap: square"/>
   </g>
   <g id="patch_8">
    <path d="M 141.791226 133.198125 
L 141.791226 22.318125 
" style="fill: none; stroke: #000000; stroke-width: 0.8; stroke-linejoin: miter; stroke-linecap: square"/>
   </g>
   <g id="patch_9">
    <path d="M 64.529687 133.198125 
L 141.791226 133.198125 
" style="fill: none; stroke: #000000; stroke-width: 0.8; stroke-linejoin: miter; stroke-linecap: square"/>
   </g>
   <g id="patch_10">
    <path d="M 64.529687 22.318125 
L 141.791226 22.318125 
" style="fill: none; stroke: #000000; stroke-width: 0.8; stroke-linejoin: miter; stroke-linecap: square"/>
   </g>
   <g id="PathCollection_1">
    <defs>
     <path id="C0_0_2aa3804ff2" d="M 0 1.5 
C 0.397805 1.5 0.77937 1.341951 1.06066 1.06066 
C 1.341951 0.77937 1.5 0.397805 1.5 -0 
C 1.5 -0.397805 1.341951 -0.77937 1.06066 -1.06066 
C 0.77937 -1.341951 0.397805 -1.5 0 -1.5 
C -0.397805 -1.5 -0.77937 -1.341951 -1.06066 -1.06066 
C -1.341951 -0.77937 -1.5 -0.397805 -1.5 0 
C -1.5 0.397805 -1.341951 0.77937 -1.06066 1.06066 
C -0.77937 1.341951 -0.397805 1.5 0 1.5 
z
"/>
    </defs>
    <g clip-path="url(#pf0a8026a43)">
     <use xlink:href="#C0_0_2aa3804ff2" x="74.80843" y="132.951269" style="fill: #c8e4c9; stroke: #000000; stroke-width: 0.5"/>
    </g>
    <g clip-path="url(#pf0a8026a43)">
     <use xlink:href="#C0_0_2aa3804ff2" x="74.310488" y="132.936217" style="fill: #c8e4c9; stroke: #000000; stroke-width: 0.5"/>
    </g>
    <g clip-path="url(#pf0a8026a43)">
     <use xlink:href="#C0_0_2aa3804ff2" x="74.577692" y="132.924176" style="fill: #c8e4c9; stroke: #000000; stroke-width: 0.5"/>
    </g>
   </g>
   <g id="PathCollection_2">
    <defs>
     <path id="C1_0_56990652f7" d="M 0 1.5 
C 0.397805 1.5 0.77937 1.341951 1.06066 1.06066 
C 1.341951 0.77937 1.5 0.397805 1.5 -0 
C 1.5 -0.397805 1.341951 -0.77937 1.06066 -1.06066 
C 0.77937 -1.341951 0.397805 -1.5 0 -1.5 
C -0.397805 -1.5 -0.77937 -1.341951 -1.06066 -1.06066 
C -1.341951 -0.77937 -1.5 -0.397805 -1.5 0 
C -1.5 0.397805 -1.341951 0.77937 -1.06066 1.06066 
C -0.77937 1.341951 -0.397805 1.5 0 1.5 
z
"/>
    </defs>
    <g clip-path="url(#pf0a8026a43)">
     <use xlink:href="#C1_0_56990652f7" x="92.019829" y="86.232346" style="fill: #a2d4a5; stroke: #000000; stroke-width: 0.5"/>
    </g>
    <g clip-path="url(#pf0a8026a43)">
     <use xlink:href="#C1_0_56990652f7" x="94.425916" y="89.266863" style="fill: #a2d4a5; stroke: #000000; stroke-width: 0.5"/>
    </g>
    <g clip-path="url(#pf0a8026a43)">
     <use xlink:href="#C1_0_56990652f7" x="91.794678" y="87.282987" style="fill: #a2d4a5; stroke: #000000; stroke-width: 0.5"/>
    </g>
   </g>
   <g id="PathCollection_3">
    <defs>
     <path id="C2_0_5d5aa74791" d="M 0 1.5 
C 0.397805 1.5 0.77937 1.341951 1.06066 1.06066 
C 1.341951 0.77937 1.5 0.397805 1.5 -0 
C 1.5 -0.397805 1.341951 -0.77937 1.06066 -1.06066 
C 0.77937 -1.341951 0.397805 -1.5 0 -1.5 
C -0.397805 -1.5 -0.77937 -1.341951 -1.06066 -1.06066 
C -1.341951 -0.77937 -1.5 -0.397805 -1.5 0 
C -1.5 0.397805 -1.341951 0.77937 -1.06066 1.06066 
C -0.77937 1.341951 -0.397805 1.5 0 1.5 
z
"/>
    </defs>
    <g clip-path="url(#pf0a8026a43)">
     <use xlink:href="#C2_0_5d5aa74791" x="113.111549" y="86.88862" style="fill: #63be6b; stroke: #000000; stroke-width: 0.5"/>
    </g>
    <g clip-path="url(#pf0a8026a43)">
     <use xlink:href="#C2_0_5d5aa74791" x="111.884508" y="86.735088" style="fill: #63be6b; stroke: #000000; stroke-width: 0.5"/>
    </g>
    <g clip-path="url(#pf0a8026a43)">
     <use xlink:href="#C2_0_5d5aa74791" x="114.164498" y="87.806803" style="fill: #63be6b; stroke: #000000; stroke-width: 0.5"/>
    </g>
   </g>
   <g id="PathCollection_4">
    <defs>
     <path id="C3_0_5cc167a5ef" d="M 0 1.5 
C 0.397805 1.5 0.77937 1.341951 1.06066 1.06066 
C 1.341951 0.77937 1.5 0.397805 1.5 -0 
C 1.5 -0.397805 1.341951 -0.77937 1.06066 -1.06066 
C 0.77937 -1.341951 0.397805 -1.5 0 -1.5 
C -0.397805 -1.5 -0.77937 -1.341951 -1.06066 -1.06066 
C -1.341951 -0.77937 -1.5 -0.397805 -1.5 0 
C -1.5 0.397805 -1.341951 0.77937 -1.06066 1.06066 
C -0.77937 1.341951 -0.397805 1.5 0 1.5 
z
"/>
    </defs>
    <g clip-path="url(#pf0a8026a43)">
     <use xlink:href="#C3_0_5cc167a5ef" x="130.485352" y="75.92161" style="fill: #23a349; stroke: #000000; stroke-width: 0.5"/>
    </g>
    <g clip-path="url(#pf0a8026a43)">
     <use xlink:href="#C3_0_5cc167a5ef" x="132.479185" y="77.806141" style="fill: #23a349; stroke: #000000; stroke-width: 0.5"/>
    </g>
    <g clip-path="url(#pf0a8026a43)">
     <use xlink:href="#C3_0_5cc167a5ef" x="134.050422" y="81.388558" style="fill: #23a349; stroke: #000000; stroke-width: 0.5"/>
    </g>
   </g>
   <g id="text_7">
    <!-- Msp1 -->
    <g transform="translate(87.231394 16.318125) scale(0.12 -0.12)">
     <defs>
      <path id="DejaVuSans-4d" d="M 628 4666 
L 1569 4666 
L 2759 1491 
L 3956 4666 
L 4897 4666 
L 4897 0 
L 4281 0 
L 4281 4097 
L 3078 897 
L 2444 897 
L 1241 4097 
L 1241 0 
L 628 0 
L 628 4666 
z
" transform="scale(0.015625)"/>
      <path id="DejaVuSans-73" d="M 2834 3397 
L 2834 2853 
Q 2591 2978 2328 3040 
Q 2066 3103 1784 3103 
Q 1356 3103 1142 2972 
Q 928 2841 928 2578 
Q 928 2378 1081 2264 
Q 1234 2150 1697 2047 
L 1894 2003 
Q 2506 1872 2764 1633 
Q 3022 1394 3022 966 
Q 3022 478 2636 193 
Q 2250 -91 1575 -91 
Q 1294 -91 989 -36 
Q 684 19 347 128 
L 347 722 
Q 666 556 975 473 
Q 1284 391 1588 391 
Q 1994 391 2212 530 
Q 2431 669 2431 922 
Q 2431 1156 2273 1281 
Q 2116 1406 1581 1522 
L 1381 1569 
Q 847 1681 609 1914 
Q 372 2147 372 2553 
Q 372 3047 722 3315 
Q 1072 3584 1716 3584 
Q 2034 3584 2315 3537 
Q 2597 3491 2834 3397 
z
" transform="scale(0.015625)"/>
      <path id="DejaVuSans-70" d="M 1159 525 
L 1159 -1331 
L 581 -1331 
L 581 3500 
L 1159 3500 
L 1159 2969 
Q 1341 3281 1617 3432 
Q 1894 3584 2278 3584 
Q 2916 3584 3314 3078 
Q 3713 2572 3713 1747 
Q 3713 922 3314 415 
Q 2916 -91 2278 -91 
Q 1894 -91 1617 61 
Q 1341 213 1159 525 
z
M 3116 1747 
Q 3116 2381 2855 2742 
Q 2594 3103 2138 3103 
Q 1681 3103 1420 2742 
Q 1159 2381 1159 1747 
Q 1159 1113 1420 752 
Q 1681 391 2138 391 
Q 2594 391 2855 752 
Q 3116 1113 3116 1747 
z
" transform="scale(0.015625)"/>
     </defs>
     <use xlink:href="#DejaVuSans-4d"/>
     <use xlink:href="#DejaVuSans-73" x="86.279297"/>
     <use xlink:href="#DejaVuSans-70" x="138.378906"/>
     <use xlink:href="#DejaVuSans-31" x="201.855469"/>
    </g>
   </g>
  </g>
  <g id="axes_2">
   <g id="patch_11">
    <path d="M 149.51738 133.198125 
L 226.778918 133.198125 
L 226.778918 22.318125 
L 149.51738 22.318125 
z
" style="fill: #ffffff"/>
   </g>
   <g id="patch_12">
    <path d="M 151.448918 133.198125 
L 166.901226 133.198125 
L 166.901226 133.18508 
L 151.448918 133.18508 
z
" clip-path="url(#pb543067d4c)" style="fill: #cce0cc; opacity: 0.7"/>
   </g>
   <g id="patch_13">
    <path d="M 170.764303 133.198125 
L 186.216611 133.198125 
L 186.216611 87.740573 
L 170.764303 87.740573 
z
" clip-path="url(#pb543067d4c)" style="fill: #a8ceab; opacity: 0.7"/>
   </g>
   <g id="patch_14">
    <path d="M 190.079688 133.198125 
L 205.531995 133.198125 
L 205.531995 85.213816 
L 190.079688 85.213816 
z
" clip-path="url(#pb543067d4c)" style="fill: #6eb374; opacity: 0.7"/>
   </g>
   <g id="patch_15">
    <path d="M 209.395072 133.198125 
L 224.84738 133.198125 
L 224.84738 75.803199 
L 209.395072 75.803199 
z
" clip-path="url(#pb543067d4c)" style="fill: #339350; opacity: 0.7"/>
   </g>
   <g id="matplotlib.axis_3">
    <g id="xtick_5"/>
    <g id="xtick_6"/>
    <g id="xtick_7"/>
    <g id="xtick_8"/>
    <g id="text_8">
     <!--   -->
     <g transform="translate(186.559087 144.796562) scale(0.1 -0.1)">
      <use xlink:href="#DejaVuSans-20"/>
     </g>
    </g>
   </g>
   <g id="matplotlib.axis_4">
    <g id="ytick_5">
     <g id="line2d_5">
      <g>
       <use xlink:href="#md15224ffe3" x="149.51738" y="133.198125" style="stroke: #000000; stroke-width: 0.8"/>
      </g>
     </g>
    </g>
    <g id="ytick_6">
     <g id="line2d_6">
      <g>
       <use xlink:href="#md15224ffe3" x="149.51738" y="103.093786" style="stroke: #000000; stroke-width: 0.8"/>
      </g>
     </g>
    </g>
    <g id="ytick_7">
     <g id="line2d_7">
      <g>
       <use xlink:href="#md15224ffe3" x="149.51738" y="72.989447" style="stroke: #000000; stroke-width: 0.8"/>
      </g>
     </g>
    </g>
    <g id="ytick_8">
     <g id="line2d_8">
      <g>
       <use xlink:href="#md15224ffe3" x="149.51738" y="42.885108" style="stroke: #000000; stroke-width: 0.8"/>
      </g>
     </g>
    </g>
   </g>
   <g id="patch_16">
    <path d="M 149.51738 133.198125 
L 149.51738 22.318125 
" style="fill: none; stroke: #000000; stroke-width: 0.8; stroke-linejoin: miter; stroke-linecap: square"/>
   </g>
   <g id="patch_17">
    <path d="M 226.778918 133.198125 
L 226.778918 22.318125 
" style="fill: none; stroke: #000000; stroke-width: 0.8; stroke-linejoin: miter; stroke-linecap: square"/>
   </g>
   <g id="patch_18">
    <path d="M 149.51738 133.198125 
L 226.778918 133.198125 
" style="fill: none; stroke: #000000; stroke-width: 0.8; stroke-linejoin: miter; stroke-linecap: square"/>
   </g>
   <g id="patch_19">
    <path d="M 149.51738 22.318125 
L 226.778918 22.318125 
" style="fill: none; stroke: #000000; stroke-width: 0.8; stroke-linejoin: miter; stroke-linecap: square"/>
   </g>
   <g id="PathCollection_5">
    <defs>
     <path id="C4_0_628d426967" d="M 0 1.5 
C 0.397805 1.5 0.77937 1.341951 1.06066 1.06066 
C 1.341951 0.77937 1.5 0.397805 1.5 -0 
C 1.5 -0.397805 1.341951 -0.77937 1.06066 -1.06066 
C 0.77937 -1.341951 0.397805 -1.5 0 -1.5 
C -0.397805 -1.5 -0.77937 -1.341951 -1.06066 -1.06066 
C -1.341951 -0.77937 -1.5 -0.397805 -1.5 0 
C -1.5 0.397805 -1.341951 0.77937 -1.06066 1.06066 
C -0.77937 1.341951 -0.397805 1.5 0 1.5 
z
"/>
    </defs>
    <g clip-path="url(#pb543067d4c)">
     <use xlink:href="#C4_0_628d426967" x="159.995056" y="133.174042" style="fill: #c8e4c9; stroke: #000000; stroke-width: 0.5"/>
    </g>
    <g clip-path="url(#pb543067d4c)">
     <use xlink:href="#C4_0_628d426967" x="158.458134" y="133.192104" style="fill: #c8e4c9; stroke: #000000; stroke-width: 0.5"/>
    </g>
    <g clip-path="url(#pb543067d4c)">
     <use xlink:href="#C4_0_628d426967" x="158.183566" y="133.189094" style="fill: #c8e4c9; stroke: #000000; stroke-width: 0.5"/>
    </g>
   </g>
   <g id="PathCollection_6">
    <defs>
     <path id="C5_0_b5ce897036" d="M 0 1.5 
C 0.397805 1.5 0.77937 1.341951 1.06066 1.06066 
C 1.341951 0.77937 1.5 0.397805 1.5 -0 
C 1.5 -0.397805 1.341951 -0.77937 1.06066 -1.06066 
C 0.77937 -1.341951 0.397805 -1.5 0 -1.5 
C -0.397805 -1.5 -0.77937 -1.341951 -1.06066 -1.06066 
C -1.341951 -0.77937 -1.5 -0.397805 -1.5 0 
C -1.5 0.397805 -1.341951 0.77937 -1.06066 1.06066 
C -0.77937 1.341951 -0.397805 1.5 0 1.5 
z
"/>
    </defs>
    <g clip-path="url(#pb543067d4c)">
     <use xlink:href="#C5_0_b5ce897036" x="179.458735" y="88.779173" style="fill: #a2d4a5; stroke: #000000; stroke-width: 0.5"/>
    </g>
    <g clip-path="url(#pb543067d4c)">
     <use xlink:href="#C5_0_b5ce897036" x="178.574932" y="88.149992" style="fill: #a2d4a5; stroke: #000000; stroke-width: 0.5"/>
    </g>
    <g clip-path="url(#pb543067d4c)">
     <use xlink:href="#C5_0_b5ce897036" x="178.734358" y="86.292555" style="fill: #a2d4a5; stroke: #000000; stroke-width: 0.5"/>
    </g>
   </g>
   <g id="PathCollection_7">
    <defs>
     <path id="C6_0_629e099f02" d="M 0 1.5 
C 0.397805 1.5 0.77937 1.341951 1.06066 1.06066 
C 1.341951 0.77937 1.5 0.397805 1.5 -0 
C 1.5 -0.397805 1.341951 -0.77937 1.06066 -1.06066 
C 0.77937 -1.341951 0.397805 -1.5 0 -1.5 
C -0.397805 -1.5 -0.77937 -1.341951 -1.06066 -1.06066 
C -1.341951 -0.77937 -1.5 -0.397805 -1.5 0 
C -1.5 0.397805 -1.341951 0.77937 -1.06066 1.06066 
C -0.77937 1.341951 -0.397805 1.5 0 1.5 
z
"/>
    </defs>
    <g clip-path="url(#pb543067d4c)">
     <use xlink:href="#C6_0_629e099f02" x="196.964142" y="84.531451" style="fill: #63be6b; stroke: #000000; stroke-width: 0.5"/>
    </g>
    <g clip-path="url(#pb543067d4c)">
     <use xlink:href="#C6_0_629e099f02" x="197.938638" y="85.160631" style="fill: #63be6b; stroke: #000000; stroke-width: 0.5"/>
    </g>
    <g clip-path="url(#pb543067d4c)">
     <use xlink:href="#C6_0_629e099f02" x="198.023625" y="85.949365" style="fill: #63be6b; stroke: #000000; stroke-width: 0.5"/>
    </g>
   </g>
   <g id="PathCollection_8">
    <defs>
     <path id="C7_0_ae67ced446" d="M 0 1.5 
C 0.397805 1.5 0.77937 1.341951 1.06066 1.06066 
C 1.341951 0.77937 1.5 0.397805 1.5 -0 
C 1.5 -0.397805 1.341951 -0.77937 1.06066 -1.06066 
C 0.77937 -1.341951 0.397805 -1.5 0 -1.5 
C -0.397805 -1.5 -0.77937 -1.341951 -1.06066 -1.06066 
C -1.341951 -0.77937 -1.5 -0.397805 -1.5 0 
C -1.5 0.397805 -1.341951 0.77937 -1.06066 1.06066 
C -0.77937 1.341951 -0.397805 1.5 0 1.5 
z
"/>
    </defs>
    <g clip-path="url(#pb543067d4c)">
     <use xlink:href="#C7_0_ae67ced446" x="215.403457" y="73.052666" style="fill: #23a349; stroke: #000000; stroke-width: 0.5"/>
    </g>
    <g clip-path="url(#pb543067d4c)">
     <use xlink:href="#C7_0_ae67ced446" x="218.017162" y="76.62003" style="fill: #23a349; stroke: #000000; stroke-width: 0.5"/>
    </g>
    <g clip-path="url(#pb543067d4c)">
     <use xlink:href="#C7_0_ae67ced446" x="217.673914" y="77.736901" style="fill: #23a349; stroke: #000000; stroke-width: 0.5"/>
    </g>
   </g>
   <g id="text_9">
    <!-- Msp2 -->
    <g transform="translate(172.219087 16.318125) scale(0.12 -0.12)">
     <use xlink:href="#DejaVuSans-4d"/>
     <use xlink:href="#DejaVuSans-73" x="86.279297"/>
     <use xlink:href="#DejaVuSans-70" x="138.378906"/>
     <use xlink:href="#DejaVuSans-32" x="201.855469"/>
    </g>
   </g>
  </g>
  <g id="axes_3">
   <g id="patch_20">
    <path d="M 234.505072 133.198125 
L 311.766611 133.198125 
L 311.766611 22.318125 
L 234.505072 22.318125 
z
" style="fill: #ffffff"/>
   </g>
   <g id="patch_21">
    <path d="M 236.436611 133.198125 
L 251.888918 133.198125 
L 251.888918 125.271653 
L 236.436611 125.271653 
z
" clip-path="url(#pa0c54fd1db)" style="fill: #cce0cc; opacity: 0.7"/>
   </g>
   <g id="patch_22">
    <path d="M 255.751995 133.198125 
L 271.204303 133.198125 
L 271.204303 83.085439 
L 255.751995 83.085439 
z
" clip-path="url(#pa0c54fd1db)" style="fill: #a8ceab; opacity: 0.7"/>
   </g>
   <g id="patch_23">
    <path d="M 275.06738 133.198125 
L 290.519688 133.198125 
L 290.519688 81.186859 
L 275.06738 81.186859 
z
" clip-path="url(#pa0c54fd1db)" style="fill: #6eb374; opacity: 0.7"/>
   </g>
   <g id="patch_24">
    <path d="M 294.382764 133.198125 
L 309.835072 133.198125 
L 309.835072 70.946366 
L 294.382764 70.946366 
z
" clip-path="url(#pa0c54fd1db)" style="fill: #339350; opacity: 0.7"/>
   </g>
   <g id="matplotlib.axis_5">
    <g id="xtick_9"/>
    <g id="xtick_10"/>
    <g id="xtick_11"/>
    <g id="xtick_12"/>
    <g id="text_10">
     <!--   -->
     <g transform="translate(271.546779 144.796562) scale(0.1 -0.1)">
      <use xlink:href="#DejaVuSans-20"/>
     </g>
    </g>
   </g>
   <g id="matplotlib.axis_6">
    <g id="ytick_9">
     <g id="line2d_9">
      <g>
       <use xlink:href="#md15224ffe3" x="234.505072" y="133.198125" style="stroke: #000000; stroke-width: 0.8"/>
      </g>
     </g>
    </g>
    <g id="ytick_10">
     <g id="line2d_10">
      <g>
       <use xlink:href="#md15224ffe3" x="234.505072" y="103.093786" style="stroke: #000000; stroke-width: 0.8"/>
      </g>
     </g>
    </g>
    <g id="ytick_11">
     <g id="line2d_11">
      <g>
       <use xlink:href="#md15224ffe3" x="234.505072" y="72.989447" style="stroke: #000000; stroke-width: 0.8"/>
      </g>
     </g>
    </g>
    <g id="ytick_12">
     <g id="line2d_12">
      <g>
       <use xlink:href="#md15224ffe3" x="234.505072" y="42.885108" style="stroke: #000000; stroke-width: 0.8"/>
      </g>
     </g>
    </g>
   </g>
   <g id="patch_25">
    <path d="M 234.505072 133.198125 
L 234.505072 22.318125 
" style="fill: none; stroke: #000000; stroke-width: 0.8; stroke-linejoin: miter; stroke-linecap: square"/>
   </g>
   <g id="patch_26">
    <path d="M 311.766611 133.198125 
L 311.766611 22.318125 
" style="fill: none; stroke: #000000; stroke-width: 0.8; stroke-linejoin: miter; stroke-linecap: square"/>
   </g>
   <g id="patch_27">
    <path d="M 234.505072 133.198125 
L 311.766611 133.198125 
" style="fill: none; stroke: #000000; stroke-width: 0.8; stroke-linejoin: miter; stroke-linecap: square"/>
   </g>
   <g id="patch_28">
    <path d="M 234.505072 22.318125 
L 311.766611 22.318125 
" style="fill: none; stroke: #000000; stroke-width: 0.8; stroke-linejoin: miter; stroke-linecap: square"/>
   </g>
   <g id="PathCollection_9">
    <defs>
     <path id="C8_0_43fa2aef1c" d="M 0 1.5 
C 0.397805 1.5 0.77937 1.341951 1.06066 1.06066 
C 1.341951 0.77937 1.5 0.397805 1.5 -0 
C 1.5 -0.397805 1.341951 -0.77937 1.06066 -1.06066 
C 0.77937 -1.341951 0.397805 -1.5 0 -1.5 
C -0.397805 -1.5 -0.77937 -1.341951 -1.06066 -1.06066 
C -1.341951 -0.77937 -1.5 -0.397805 -1.5 0 
C -1.5 0.397805 -1.341951 0.77937 -1.06066 1.06066 
C -0.77937 1.341951 -0.397805 1.5 0 1.5 
z
"/>
    </defs>
    <g clip-path="url(#pa0c54fd1db)">
     <use xlink:href="#C8_0_43fa2aef1c" x="242.326372" y="125.18134" style="fill: #c8e4c9; stroke: #000000; stroke-width: 0.5"/>
    </g>
    <g clip-path="url(#pa0c54fd1db)">
     <use xlink:href="#C8_0_43fa2aef1c" x="243.546939" y="124.76891" style="fill: #c8e4c9; stroke: #000000; stroke-width: 0.5"/>
    </g>
    <g clip-path="url(#pa0c54fd1db)">
     <use xlink:href="#C8_0_43fa2aef1c" x="245.313486" y="125.864708" style="fill: #c8e4c9; stroke: #000000; stroke-width: 0.5"/>
    </g>
   </g>
   <g id="PathCollection_10">
    <defs>
     <path id="C9_0_b4f512cf85" d="M 0 1.5 
C 0.397805 1.5 0.77937 1.341951 1.06066 1.06066 
C 1.341951 0.77937 1.5 0.397805 1.5 -0 
C 1.5 -0.397805 1.341951 -0.77937 1.06066 -1.06066 
C 0.77937 -1.341951 0.397805 -1.5 0 -1.5 
C -0.397805 -1.5 -0.77937 -1.341951 -1.06066 -1.06066 
C -1.341951 -0.77937 -1.5 -0.397805 -1.5 0 
C -1.5 0.397805 -1.341951 0.77937 -1.06066 1.06066 
C -0.77937 1.341951 -0.397805 1.5 0 1.5 
z
"/>
    </defs>
    <g clip-path="url(#pa0c54fd1db)">
     <use xlink:href="#C9_0_b4f512cf85" x="263.671366" y="85.115475" style="fill: #a2d4a5; stroke: #000000; stroke-width: 0.5"/>
    </g>
    <g clip-path="url(#pa0c54fd1db)">
     <use xlink:href="#C9_0_b4f512cf85" x="264.35324" y="85.241913" style="fill: #a2d4a5; stroke: #000000; stroke-width: 0.5"/>
    </g>
    <g clip-path="url(#pa0c54fd1db)">
     <use xlink:href="#C9_0_b4f512cf85" x="264.687757" y="78.898929" style="fill: #a2d4a5; stroke: #000000; stroke-width: 0.5"/>
    </g>
   </g>
   <g id="PathCollection_11">
    <defs>
     <path id="Ca_0_b87abf9ffd" d="M 0 1.5 
C 0.397805 1.5 0.77937 1.341951 1.06066 1.06066 
C 1.341951 0.77937 1.5 0.397805 1.5 -0 
C 1.5 -0.397805 1.341951 -0.77937 1.06066 -1.06066 
C 0.77937 -1.341951 0.397805 -1.5 0 -1.5 
C -0.397805 -1.5 -0.77937 -1.341951 -1.06066 -1.06066 
C -1.341951 -0.77937 -1.5 -0.397805 -1.5 0 
C -1.5 0.397805 -1.341951 0.77937 -1.06066 1.06066 
C -0.77937 1.341951 -0.397805 1.5 0 1.5 
z
"/>
    </defs>
    <g clip-path="url(#pa0c54fd1db)">
     <use xlink:href="#Ca_0_b87abf9ffd" x="284.470968" y="81.33136" style="fill: #63be6b; stroke: #000000; stroke-width: 0.5"/>
    </g>
    <g clip-path="url(#pa0c54fd1db)">
     <use xlink:href="#Ca_0_b87abf9ffd" x="281.4651" y="81.620361" style="fill: #63be6b; stroke: #000000; stroke-width: 0.5"/>
    </g>
    <g clip-path="url(#pa0c54fd1db)">
     <use xlink:href="#Ca_0_b87abf9ffd" x="281.652045" y="80.608855" style="fill: #63be6b; stroke: #000000; stroke-width: 0.5"/>
    </g>
   </g>
   <g id="PathCollection_12">
    <defs>
     <path id="Cb_0_e3747b6cca" d="M 0 1.5 
C 0.397805 1.5 0.77937 1.341951 1.06066 1.06066 
C 1.341951 0.77937 1.5 0.397805 1.5 -0 
C 1.5 -0.397805 1.341951 -0.77937 1.06066 -1.06066 
C 0.77937 -1.341951 0.397805 -1.5 0 -1.5 
C -0.397805 -1.5 -0.77937 -1.341951 -1.06066 -1.06066 
C -1.341951 -0.77937 -1.5 -0.397805 -1.5 0 
C -1.5 0.397805 -1.341951 0.77937 -1.06066 1.06066 
C -0.77937 1.341951 -0.397805 1.5 0 1.5 
z
"/>
    </defs>
    <g clip-path="url(#pa0c54fd1db)">
     <use xlink:href="#Cb_0_e3747b6cca" x="302.930627" y="68.747746" style="fill: #23a349; stroke: #000000; stroke-width: 0.5"/>
    </g>
    <g clip-path="url(#pa0c54fd1db)">
     <use xlink:href="#Cb_0_e3747b6cca" x="300.943139" y="70.066316" style="fill: #23a349; stroke: #000000; stroke-width: 0.5"/>
    </g>
    <g clip-path="url(#pa0c54fd1db)">
     <use xlink:href="#Cb_0_e3747b6cca" x="301.954068" y="74.025036" style="fill: #23a349; stroke: #000000; stroke-width: 0.5"/>
    </g>
   </g>
   <g id="text_11">
    <!-- Msp3 -->
    <g transform="translate(257.206779 16.318125) scale(0.12 -0.12)">
     <use xlink:href="#DejaVuSans-4d"/>
     <use xlink:href="#DejaVuSans-73" x="86.279297"/>
     <use xlink:href="#DejaVuSans-70" x="138.378906"/>
     <use xlink:href="#DejaVuSans-33" x="201.855469"/>
    </g>
   </g>
  </g>
  <g id="axes_4">
   <g id="patch_29">
    <path d="M 319.492764 133.198125 
L 396.754303 133.198125 
L 396.754303 22.318125 
L 319.492764 22.318125 
z
" style="fill: #ffffff"/>
   </g>
   <g id="patch_30">
    <path d="M 321.424303 133.198125 
L 336.876611 133.198125 
L 336.876611 130.205754 
L 321.424303 130.205754 
z
" clip-path="url(#p5b78eae8d0)" style="fill: #cce0cc; opacity: 0.7"/>
   </g>
   <g id="patch_31">
    <path d="M 340.739688 133.198125 
L 356.191995 133.198125 
L 356.191995 42.611159 
L 340.739688 42.611159 
z
" clip-path="url(#p5b78eae8d0)" style="fill: #a8ceab; opacity: 0.7"/>
   </g>
   <g id="patch_32">
    <path d="M 360.055072 133.198125 
L 375.50738 133.198125 
L 375.50738 42.006062 
L 360.055072 42.006062 
z
" clip-path="url(#p5b78eae8d0)" style="fill: #6eb374; opacity: 0.7"/>
   </g>
   <g id="patch_33">
    <path d="M 379.370457 133.198125 
L 394.822764 133.198125 
L 394.822764 31.994362 
L 379.370457 31.994362 
z
" clip-path="url(#p5b78eae8d0)" style="fill: #339350; opacity: 0.7"/>
   </g>
   <g id="matplotlib.axis_7">
    <g id="xtick_13"/>
    <g id="xtick_14"/>
    <g id="xtick_15"/>
    <g id="xtick_16"/>
    <g id="text_12">
     <!--   -->
     <g transform="translate(356.534471 144.796562) scale(0.1 -0.1)">
      <use xlink:href="#DejaVuSans-20"/>
     </g>
    </g>
   </g>
   <g id="matplotlib.axis_8">
    <g id="ytick_13">
     <g id="line2d_13">
      <g>
       <use xlink:href="#md15224ffe3" x="319.492764" y="133.198125" style="stroke: #000000; stroke-width: 0.8"/>
      </g>
     </g>
    </g>
    <g id="ytick_14">
     <g id="line2d_14">
      <g>
       <use xlink:href="#md15224ffe3" x="319.492764" y="103.093786" style="stroke: #000000; stroke-width: 0.8"/>
      </g>
     </g>
    </g>
    <g id="ytick_15">
     <g id="line2d_15">
      <g>
       <use xlink:href="#md15224ffe3" x="319.492764" y="72.989447" style="stroke: #000000; stroke-width: 0.8"/>
      </g>
     </g>
    </g>
    <g id="ytick_16">
     <g id="line2d_16">
      <g>
       <use xlink:href="#md15224ffe3" x="319.492764" y="42.885108" style="stroke: #000000; stroke-width: 0.8"/>
      </g>
     </g>
    </g>
   </g>
   <g id="patch_34">
    <path d="M 319.492764 133.198125 
L 319.492764 22.318125 
" style="fill: none; stroke: #000000; stroke-width: 0.8; stroke-linejoin: miter; stroke-linecap: square"/>
   </g>
   <g id="patch_35">
    <path d="M 396.754303 133.198125 
L 396.754303 22.318125 
" style="fill: none; stroke: #000000; stroke-width: 0.8; stroke-linejoin: miter; stroke-linecap: square"/>
   </g>
   <g id="patch_36">
    <path d="M 319.492764 133.198125 
L 396.754303 133.198125 
" style="fill: none; stroke: #000000; stroke-width: 0.8; stroke-linejoin: miter; stroke-linecap: square"/>
   </g>
   <g id="patch_37">
    <path d="M 319.492764 22.318125 
L 396.754303 22.318125 
" style="fill: none; stroke: #000000; stroke-width: 0.8; stroke-linejoin: miter; stroke-linecap: square"/>
   </g>
   <g id="PathCollection_13">
    <defs>
     <path id="Cc_0_c5a7dbb003" d="M 0 1.5 
C 0.397805 1.5 0.77937 1.341951 1.06066 1.06066 
C 1.341951 0.77937 1.5 0.397805 1.5 -0 
C 1.5 -0.397805 1.341951 -0.77937 1.06066 -1.06066 
C 0.77937 -1.341951 0.397805 -1.5 0 -1.5 
C -0.397805 -1.5 -0.77937 -1.341951 -1.06066 -1.06066 
C -1.341951 -0.77937 -1.5 -0.397805 -1.5 0 
C -1.5 0.397805 -1.341951 0.77937 -1.06066 1.06066 
C -0.77937 1.341951 -0.397805 1.5 0 1.5 
z
"/>
    </defs>
    <g clip-path="url(#p5b78eae8d0)">
     <use xlink:href="#Cc_0_c5a7dbb003" x="327.511946" y="130.223816" style="fill: #c8e4c9; stroke: #000000; stroke-width: 0.5"/>
    </g>
    <g clip-path="url(#p5b78eae8d0)">
     <use xlink:href="#Cc_0_c5a7dbb003" x="328.274732" y="130.175649" style="fill: #c8e4c9; stroke: #000000; stroke-width: 0.5"/>
    </g>
    <g clip-path="url(#p5b78eae8d0)">
     <use xlink:href="#Cc_0_c5a7dbb003" x="329.383001" y="130.217795" style="fill: #c8e4c9; stroke: #000000; stroke-width: 0.5"/>
    </g>
   </g>
   <g id="PathCollection_14">
    <defs>
     <path id="Cd_0_430bb12f32" d="M 0 1.5 
C 0.397805 1.5 0.77937 1.341951 1.06066 1.06066 
C 1.341951 0.77937 1.5 0.397805 1.5 -0 
C 1.5 -0.397805 1.341951 -0.77937 1.06066 -1.06066 
C 0.77937 -1.341951 0.397805 -1.5 0 -1.5 
C -0.397805 -1.5 -0.77937 -1.341951 -1.06066 -1.06066 
C -1.341951 -0.77937 -1.5 -0.397805 -1.5 0 
C -1.5 0.397805 -1.341951 0.77937 -1.06066 1.06066 
C -0.77937 1.341951 -0.397805 1.5 0 1.5 
z
"/>
    </defs>
    <g clip-path="url(#p5b78eae8d0)">
     <use xlink:href="#Cd_0_430bb12f32" x="346.729533" y="41.045733" style="fill: #a2d4a5; stroke: #000000; stroke-width: 0.5"/>
    </g>
    <g clip-path="url(#p5b78eae8d0)">
     <use xlink:href="#Cd_0_430bb12f32" x="350.373622" y="48.063055" style="fill: #a2d4a5; stroke: #000000; stroke-width: 0.5"/>
    </g>
    <g clip-path="url(#p5b78eae8d0)">
     <use xlink:href="#Cd_0_430bb12f32" x="348.900699" y="38.724689" style="fill: #a2d4a5; stroke: #000000; stroke-width: 0.5"/>
    </g>
   </g>
   <g id="PathCollection_15">
    <defs>
     <path id="Ce_0_7c19ddd5d0" d="M 0 1.5 
C 0.397805 1.5 0.77937 1.341951 1.06066 1.06066 
C 1.341951 0.77937 1.5 0.397805 1.5 -0 
C 1.5 -0.397805 1.341951 -0.77937 1.06066 -1.06066 
C 0.77937 -1.341951 0.397805 -1.5 0 -1.5 
C -0.397805 -1.5 -0.77937 -1.341951 -1.06066 -1.06066 
C -1.341951 -0.77937 -1.5 -0.397805 -1.5 0 
C -1.5 0.397805 -1.341951 0.77937 -1.06066 1.06066 
C -0.77937 1.341951 -0.397805 1.5 0 1.5 
z
"/>
    </defs>
    <g clip-path="url(#p5b78eae8d0)">
     <use xlink:href="#Ce_0_7c19ddd5d0" x="366.093601" y="41.873603" style="fill: #63be6b; stroke: #000000; stroke-width: 0.5"/>
    </g>
    <g clip-path="url(#p5b78eae8d0)">
     <use xlink:href="#Ce_0_7c19ddd5d0" x="367.448999" y="42.039176" style="fill: #63be6b; stroke: #000000; stroke-width: 0.5"/>
    </g>
    <g clip-path="url(#p5b78eae8d0)">
     <use xlink:href="#Ce_0_7c19ddd5d0" x="368.871949" y="42.105406" style="fill: #63be6b; stroke: #000000; stroke-width: 0.5"/>
    </g>
   </g>
   <g id="PathCollection_16">
    <defs>
     <path id="Cf_0_bed56387fb" d="M 0 1.5 
C 0.397805 1.5 0.77937 1.341951 1.06066 1.06066 
C 1.341951 0.77937 1.5 0.397805 1.5 -0 
C 1.5 -0.397805 1.341951 -0.77937 1.06066 -1.06066 
C 0.77937 -1.341951 0.397805 -1.5 0 -1.5 
C -0.397805 -1.5 -0.77937 -1.341951 -1.06066 -1.06066 
C -1.341951 -0.77937 -1.5 -0.397805 -1.5 0 
C -1.5 0.397805 -1.341951 0.77937 -1.06066 1.06066 
C -0.77937 1.341951 -0.397805 1.5 0 1.5 
z
"/>
    </defs>
    <g clip-path="url(#p5b78eae8d0)">
     <use xlink:href="#Cf_0_bed56387fb" x="387.40768" y="27.598125" style="fill: #23a349; stroke: #000000; stroke-width: 0.5"/>
    </g>
    <g clip-path="url(#p5b78eae8d0)">
     <use xlink:href="#Cf_0_bed56387fb" x="387.193127" y="32.032494" style="fill: #23a349; stroke: #000000; stroke-width: 0.5"/>
    </g>
    <g clip-path="url(#p5b78eae8d0)">
     <use xlink:href="#Cf_0_bed56387fb" x="388.707702" y="36.352467" style="fill: #23a349; stroke: #000000; stroke-width: 0.5"/>
    </g>
   </g>
   <g id="text_13">
    <!-- Msp4 -->
    <g transform="translate(342.194471 16.318125) scale(0.12 -0.12)">
     <defs>
      <path id="DejaVuSans-34" d="M 2419 4116 
L 825 1625 
L 2419 1625 
L 2419 4116 
z
M 2253 4666 
L 3047 4666 
L 3047 1625 
L 3713 1625 
L 3713 1100 
L 3047 1100 
L 3047 0 
L 2419 0 
L 2419 1100 
L 313 1100 
L 313 1709 
L 2253 4666 
z
" transform="scale(0.015625)"/>
     </defs>
     <use xlink:href="#DejaVuSans-4d"/>
     <use xlink:href="#DejaVuSans-73" x="86.279297"/>
     <use xlink:href="#DejaVuSans-70" x="138.378906"/>
     <use xlink:href="#DejaVuSans-34" x="201.855469"/>
    </g>
   </g>
  </g>
  <g id="axes_5">
   <g id="patch_38">
    <path d="M 404.480457 133.198125 
L 481.741995 133.198125 
L 481.741995 22.318125 
L 404.480457 22.318125 
z
" style="fill: #ffffff"/>
   </g>
   <g id="patch_39">
    <path d="M 406.411995 133.198125 
L 421.864303 133.198125 
L 421.864303 133.149958 
L 406.411995 133.149958 
z
" clip-path="url(#p3c24bae685)" style="fill: #cce0cc; opacity: 0.7"/>
   </g>
   <g id="patch_40">
    <path d="M 425.72738 133.198125 
L 441.179688 133.198125 
L 441.179688 119.628093 
L 425.72738 119.628093 
z
" clip-path="url(#p3c24bae685)" style="fill: #a8ceab; opacity: 0.7"/>
   </g>
   <g id="patch_41">
    <path d="M 445.042764 133.198125 
L 460.495072 133.198125 
L 460.495072 112.81247 
L 445.042764 112.81247 
z
" clip-path="url(#p3c24bae685)" style="fill: #6eb374; opacity: 0.7"/>
   </g>
   <g id="patch_42">
    <path d="M 464.358149 133.198125 
L 479.810457 133.198125 
L 479.810457 109.137734 
L 464.358149 109.137734 
z
" clip-path="url(#p3c24bae685)" style="fill: #339350; opacity: 0.7"/>
   </g>
   <g id="matplotlib.axis_9">
    <g id="xtick_17"/>
    <g id="xtick_18"/>
    <g id="xtick_19"/>
    <g id="xtick_20"/>
    <g id="text_14">
     <!--   -->
     <g transform="translate(441.522163 144.796562) scale(0.1 -0.1)">
      <use xlink:href="#DejaVuSans-20"/>
     </g>
    </g>
   </g>
   <g id="matplotlib.axis_10">
    <g id="ytick_17">
     <g id="line2d_17">
      <g>
       <use xlink:href="#md15224ffe3" x="404.480457" y="133.198125" style="stroke: #000000; stroke-width: 0.8"/>
      </g>
     </g>
    </g>
    <g id="ytick_18">
     <g id="line2d_18">
      <g>
       <use xlink:href="#md15224ffe3" x="404.480457" y="103.093786" style="stroke: #000000; stroke-width: 0.8"/>
      </g>
     </g>
    </g>
    <g id="ytick_19">
     <g id="line2d_19">
      <g>
       <use xlink:href="#md15224ffe3" x="404.480457" y="72.989447" style="stroke: #000000; stroke-width: 0.8"/>
      </g>
     </g>
    </g>
    <g id="ytick_20">
     <g id="line2d_20">
      <g>
       <use xlink:href="#md15224ffe3" x="404.480457" y="42.885108" style="stroke: #000000; stroke-width: 0.8"/>
      </g>
     </g>
    </g>
   </g>
   <g id="patch_43">
    <path d="M 404.480457 133.198125 
L 404.480457 22.318125 
" style="fill: none; stroke: #000000; stroke-width: 0.8; stroke-linejoin: miter; stroke-linecap: square"/>
   </g>
   <g id="patch_44">
    <path d="M 481.741995 133.198125 
L 481.741995 22.318125 
" style="fill: none; stroke: #000000; stroke-width: 0.8; stroke-linejoin: miter; stroke-linecap: square"/>
   </g>
   <g id="patch_45">
    <path d="M 404.480457 133.198125 
L 481.741995 133.198125 
" style="fill: none; stroke: #000000; stroke-width: 0.8; stroke-linejoin: miter; stroke-linecap: square"/>
   </g>
   <g id="patch_46">
    <path d="M 404.480457 22.318125 
L 481.741995 22.318125 
" style="fill: none; stroke: #000000; stroke-width: 0.8; stroke-linejoin: miter; stroke-linecap: square"/>
   </g>
   <g id="PathCollection_17">
    <defs>
     <path id="C10_0_e7bd9b14f1" d="M 0 1.5 
C 0.397805 1.5 0.77937 1.341951 1.06066 1.06066 
C 1.341951 0.77937 1.5 0.397805 1.5 -0 
C 1.5 -0.397805 1.341951 -0.77937 1.06066 -1.06066 
C 0.77937 -1.341951 0.397805 -1.5 0 -1.5 
C -0.397805 -1.5 -0.77937 -1.341951 -1.06066 -1.06066 
C -1.341951 -0.77937 -1.5 -0.397805 -1.5 0 
C -1.5 0.397805 -1.341951 0.77937 -1.06066 1.06066 
C -0.77937 1.341951 -0.397805 1.5 0 1.5 
z
"/>
    </defs>
    <g clip-path="url(#p3c24bae685)">
     <use xlink:href="#C10_0_e7bd9b14f1" x="414.350701" y="133.162" style="fill: #c8e4c9; stroke: #000000; stroke-width: 0.5"/>
    </g>
    <g clip-path="url(#p3c24bae685)">
     <use xlink:href="#C10_0_e7bd9b14f1" x="414.946524" y="133.143937" style="fill: #c8e4c9; stroke: #000000; stroke-width: 0.5"/>
    </g>
    <g clip-path="url(#p3c24bae685)">
     <use xlink:href="#C10_0_e7bd9b14f1" x="413.473621" y="133.143937" style="fill: #c8e4c9; stroke: #000000; stroke-width: 0.5"/>
    </g>
   </g>
   <g id="PathCollection_18">
    <defs>
     <path id="C11_0_3b18d569d6" d="M 0 1.5 
C 0.397805 1.5 0.77937 1.341951 1.06066 1.06066 
C 1.341951 0.77937 1.5 0.397805 1.5 -0 
C 1.5 -0.397805 1.341951 -0.77937 1.06066 -1.06066 
C 0.77937 -1.341951 0.397805 -1.5 0 -1.5 
C -0.397805 -1.5 -0.77937 -1.341951 -1.06066 -1.06066 
C -1.341951 -0.77937 -1.5 -0.397805 -1.5 0 
C -1.5 0.397805 -1.341951 0.77937 -1.06066 1.06066 
C -0.77937 1.341951 -0.397805 1.5 0 1.5 
z
"/>
    </defs>
    <g clip-path="url(#p3c24bae685)">
     <use xlink:href="#C11_0_3b18d569d6" x="432.904756" y="119.503661" style="fill: #a2d4a5; stroke: #000000; stroke-width: 0.5"/>
    </g>
    <g clip-path="url(#p3c24bae685)">
     <use xlink:href="#C11_0_3b18d569d6" x="431.544302" y="118.793199" style="fill: #a2d4a5; stroke: #000000; stroke-width: 0.5"/>
    </g>
    <g clip-path="url(#p3c24bae685)">
     <use xlink:href="#C11_0_3b18d569d6" x="432.018494" y="120.587417" style="fill: #a2d4a5; stroke: #000000; stroke-width: 0.5"/>
    </g>
   </g>
   <g id="PathCollection_19">
    <defs>
     <path id="C12_0_139a4a80e7" d="M 0 1.5 
C 0.397805 1.5 0.77937 1.341951 1.06066 1.06066 
C 1.341951 0.77937 1.5 0.397805 1.5 -0 
C 1.5 -0.397805 1.341951 -0.77937 1.06066 -1.06066 
C 0.77937 -1.341951 0.397805 -1.5 0 -1.5 
C -0.397805 -1.5 -0.77937 -1.341951 -1.06066 -1.06066 
C -1.341951 -0.77937 -1.5 -0.397805 -1.5 0 
C -1.5 0.397805 -1.341951 0.77937 -1.06066 1.06066 
C -0.77937 1.341951 -0.397805 1.5 0 1.5 
z
"/>
    </defs>
    <g clip-path="url(#p3c24bae685)">
     <use xlink:href="#C12_0_139a4a80e7" x="453.071983" y="111.492897" style="fill: #63be6b; stroke: #000000; stroke-width: 0.5"/>
    </g>
    <g clip-path="url(#p3c24bae685)">
     <use xlink:href="#C12_0_139a4a80e7" x="452.010214" y="113.001124" style="fill: #63be6b; stroke: #000000; stroke-width: 0.5"/>
    </g>
    <g clip-path="url(#p3c24bae685)">
     <use xlink:href="#C12_0_139a4a80e7" x="453.85074" y="113.94339" style="fill: #63be6b; stroke: #000000; stroke-width: 0.5"/>
    </g>
   </g>
   <g id="PathCollection_20">
    <defs>
     <path id="C13_0_276c1ff73b" d="M 0 1.5 
C 0.397805 1.5 0.77937 1.341951 1.06066 1.06066 
C 1.341951 0.77937 1.5 0.397805 1.5 -0 
C 1.5 -0.397805 1.341951 -0.77937 1.06066 -1.06066 
C 0.77937 -1.341951 0.397805 -1.5 0 -1.5 
C -0.397805 -1.5 -0.77937 -1.341951 -1.06066 -1.06066 
C -1.341951 -0.77937 -1.5 -0.397805 -1.5 0 
C -1.5 0.397805 -1.341951 0.77937 -1.06066 1.06066 
C -0.77937 1.341951 -0.397805 1.5 0 1.5 
z
"/>
    </defs>
    <g clip-path="url(#p3c24bae685)">
     <use xlink:href="#C13_0_276c1ff73b" x="471.492807" y="106.287856" style="fill: #23a349; stroke: #000000; stroke-width: 0.5"/>
    </g>
    <g clip-path="url(#p3c24bae685)">
     <use xlink:href="#C13_0_276c1ff73b" x="470.565795" y="109.280228" style="fill: #23a349; stroke: #000000; stroke-width: 0.5"/>
    </g>
    <g clip-path="url(#p3c24bae685)">
     <use xlink:href="#C13_0_276c1ff73b" x="470.575113" y="111.845117" style="fill: #23a349; stroke: #000000; stroke-width: 0.5"/>
    </g>
   </g>
   <g id="text_15">
    <!-- Msp5 -->
    <g transform="translate(427.182163 16.318125) scale(0.12 -0.12)">
     <defs>
      <path id="DejaVuSans-35" d="M 691 4666 
L 3169 4666 
L 3169 4134 
L 1269 4134 
L 1269 2991 
Q 1406 3038 1543 3061 
Q 1681 3084 1819 3084 
Q 2600 3084 3056 2656 
Q 3513 2228 3513 1497 
Q 3513 744 3044 326 
Q 2575 -91 1722 -91 
Q 1428 -91 1123 -41 
Q 819 9 494 109 
L 494 744 
Q 775 591 1075 516 
Q 1375 441 1709 441 
Q 2250 441 2565 725 
Q 2881 1009 2881 1497 
Q 2881 1984 2565 2268 
Q 2250 2553 1709 2553 
Q 1456 2553 1204 2497 
Q 953 2441 691 2322 
L 691 4666 
z
" transform="scale(0.015625)"/>
     </defs>
     <use xlink:href="#DejaVuSans-4d"/>
     <use xlink:href="#DejaVuSans-73" x="86.279297"/>
     <use xlink:href="#DejaVuSans-70" x="138.378906"/>
     <use xlink:href="#DejaVuSans-35" x="201.855469"/>
    </g>
   </g>
  </g>
  <g id="axes_6">
   <g id="patch_47">
    <path d="M 489.468149 133.198125 
L 566.729688 133.198125 
L 566.729688 22.318125 
L 489.468149 22.318125 
z
" style="fill: #ffffff"/>
   </g>
   <g id="patch_48">
    <path d="M 491.399688 133.198125 
L 506.851995 133.198125 
L 506.851995 133.170028 
L 491.399688 133.170028 
z
" clip-path="url(#p4035c8769f)" style="fill: #cce0cc; opacity: 0.7"/>
   </g>
   <g id="patch_49">
    <path d="M 510.715072 133.198125 
L 526.16738 133.198125 
L 526.16738 125.759343 
L 510.715072 125.759343 
z
" clip-path="url(#p4035c8769f)" style="fill: #a8ceab; opacity: 0.7"/>
   </g>
   <g id="patch_50">
    <path d="M 530.030457 133.198125 
L 545.482764 133.198125 
L 545.482764 124.021319 
L 530.030457 124.021319 
z
" clip-path="url(#p4035c8769f)" style="fill: #6eb374; opacity: 0.7"/>
   </g>
   <g id="patch_51">
    <path d="M 549.345841 133.198125 
L 564.798149 133.198125 
L 564.798149 119.663214 
L 549.345841 119.663214 
z
" clip-path="url(#p4035c8769f)" style="fill: #339350; opacity: 0.7"/>
   </g>
   <g id="matplotlib.axis_11">
    <g id="xtick_21"/>
    <g id="xtick_22"/>
    <g id="xtick_23"/>
    <g id="xtick_24"/>
    <g id="text_16">
     <!--   -->
     <g transform="translate(526.509856 144.796562) scale(0.1 -0.1)">
      <use xlink:href="#DejaVuSans-20"/>
     </g>
    </g>
   </g>
   <g id="matplotlib.axis_12">
    <g id="ytick_21">
     <g id="line2d_21">
      <g>
       <use xlink:href="#md15224ffe3" x="489.468149" y="133.198125" style="stroke: #000000; stroke-width: 0.8"/>
      </g>
     </g>
    </g>
    <g id="ytick_22">
     <g id="line2d_22">
      <g>
       <use xlink:href="#md15224ffe3" x="489.468149" y="103.093786" style="stroke: #000000; stroke-width: 0.8"/>
      </g>
     </g>
    </g>
    <g id="ytick_23">
     <g id="line2d_23">
      <g>
       <use xlink:href="#md15224ffe3" x="489.468149" y="72.989447" style="stroke: #000000; stroke-width: 0.8"/>
      </g>
     </g>
    </g>
    <g id="ytick_24">
     <g id="line2d_24">
      <g>
       <use xlink:href="#md15224ffe3" x="489.468149" y="42.885108" style="stroke: #000000; stroke-width: 0.8"/>
      </g>
     </g>
    </g>
   </g>
   <g id="patch_52">
    <path d="M 489.468149 133.198125 
L 489.468149 22.318125 
" style="fill: none; stroke: #000000; stroke-width: 0.8; stroke-linejoin: miter; stroke-linecap: square"/>
   </g>
   <g id="patch_53">
    <path d="M 566.729688 133.198125 
L 566.729688 22.318125 
" style="fill: none; stroke: #000000; stroke-width: 0.8; stroke-linejoin: miter; stroke-linecap: square"/>
   </g>
   <g id="patch_54">
    <path d="M 489.468149 133.198125 
L 566.729688 133.198125 
" style="fill: none; stroke: #000000; stroke-width: 0.8; stroke-linejoin: miter; stroke-linecap: square"/>
   </g>
   <g id="patch_55">
    <path d="M 489.468149 22.318125 
L 566.729688 22.318125 
" style="fill: none; stroke: #000000; stroke-width: 0.8; stroke-linejoin: miter; stroke-linecap: square"/>
   </g>
   <g id="PathCollection_21">
    <defs>
     <path id="C14_0_b8d2881213" d="M 0 1.5 
C 0.397805 1.5 0.77937 1.341951 1.06066 1.06066 
C 1.341951 0.77937 1.5 0.397805 1.5 -0 
C 1.5 -0.397805 1.341951 -0.77937 1.06066 -1.06066 
C 0.77937 -1.341951 0.397805 -1.5 0 -1.5 
C -0.397805 -1.5 -0.77937 -1.341951 -1.06066 -1.06066 
C -1.341951 -0.77937 -1.5 -0.397805 -1.5 0 
C -1.5 0.397805 -1.341951 0.77937 -1.06066 1.06066 
C -0.77937 1.341951 -0.397805 1.5 0 1.5 
z
"/>
    </defs>
    <g clip-path="url(#p4035c8769f)">
     <use xlink:href="#C14_0_b8d2881213" x="500.337232" y="133.183073" style="fill: #c8e4c9; stroke: #000000; stroke-width: 0.5"/>
    </g>
    <g clip-path="url(#p4035c8769f)">
     <use xlink:href="#C14_0_b8d2881213" x="500.395896" y="133.155979" style="fill: #c8e4c9; stroke: #000000; stroke-width: 0.5"/>
    </g>
    <g clip-path="url(#p4035c8769f)">
     <use xlink:href="#C14_0_b8d2881213" x="500.062305" y="133.171031" style="fill: #c8e4c9; stroke: #000000; stroke-width: 0.5"/>
    </g>
   </g>
   <g id="PathCollection_22">
    <defs>
     <path id="C15_0_a5604b4807" d="M 0 1.5 
C 0.397805 1.5 0.77937 1.341951 1.06066 1.06066 
C 1.341951 0.77937 1.5 0.397805 1.5 -0 
C 1.5 -0.397805 1.341951 -0.77937 1.06066 -1.06066 
C 0.77937 -1.341951 0.397805 -1.5 0 -1.5 
C -0.397805 -1.5 -0.77937 -1.341951 -1.06066 -1.06066 
C -1.341951 -0.77937 -1.5 -0.397805 -1.5 0 
C -1.5 0.397805 -1.341951 0.77937 -1.06066 1.06066 
C -0.77937 1.341951 -0.397805 1.5 0 1.5 
z
"/>
    </defs>
    <g clip-path="url(#p4035c8769f)">
     <use xlink:href="#C15_0_a5604b4807" x="519.439018" y="125.939969" style="fill: #a2d4a5; stroke: #000000; stroke-width: 0.5"/>
    </g>
    <g clip-path="url(#p4035c8769f)">
     <use xlink:href="#C15_0_a5604b4807" x="516.637832" y="125.584738" style="fill: #a2d4a5; stroke: #000000; stroke-width: 0.5"/>
    </g>
    <g clip-path="url(#p4035c8769f)">
     <use xlink:href="#C15_0_a5604b4807" x="518.399433" y="125.753322" style="fill: #a2d4a5; stroke: #000000; stroke-width: 0.5"/>
    </g>
   </g>
   <g id="PathCollection_23">
    <defs>
     <path id="C16_0_534cef0320" d="M 0 1.5 
C 0.397805 1.5 0.77937 1.341951 1.06066 1.06066 
C 1.341951 0.77937 1.5 0.397805 1.5 -0 
C 1.5 -0.397805 1.341951 -0.77937 1.06066 -1.06066 
C 0.77937 -1.341951 0.397805 -1.5 0 -1.5 
C -0.397805 -1.5 -0.77937 -1.341951 -1.06066 -1.06066 
C -1.341951 -0.77937 -1.5 -0.397805 -1.5 0 
C -1.5 0.397805 -1.341951 0.77937 -1.06066 1.06066 
C -0.77937 1.341951 -0.397805 1.5 0 1.5 
z
"/>
    </defs>
    <g clip-path="url(#p4035c8769f)">
     <use xlink:href="#C16_0_534cef0320" x="539.239803" y="123.609893" style="fill: #63be6b; stroke: #000000; stroke-width: 0.5"/>
    </g>
    <g clip-path="url(#p4035c8769f)">
     <use xlink:href="#C16_0_534cef0320" x="537.584344" y="124.163813" style="fill: #63be6b; stroke: #000000; stroke-width: 0.5"/>
    </g>
    <g clip-path="url(#p4035c8769f)">
     <use xlink:href="#C16_0_534cef0320" x="538.372061" y="124.290251" style="fill: #63be6b; stroke: #000000; stroke-width: 0.5"/>
    </g>
   </g>
   <g id="PathCollection_24">
    <defs>
     <path id="C17_0_a4d1fea677" d="M 0 1.5 
C 0.397805 1.5 0.77937 1.341951 1.06066 1.06066 
C 1.341951 0.77937 1.5 0.397805 1.5 -0 
C 1.5 -0.397805 1.341951 -0.77937 1.06066 -1.06066 
C 0.77937 -1.341951 0.397805 -1.5 0 -1.5 
C -0.397805 -1.5 -0.77937 -1.341951 -1.06066 -1.06066 
C -1.341951 -0.77937 -1.5 -0.397805 -1.5 0 
C -1.5 0.397805 -1.341951 0.77937 -1.06066 1.06066 
C -0.77937 1.341951 -0.397805 1.5 0 1.5 
z
"/>
    </defs>
    <g clip-path="url(#p4035c8769f)">
     <use xlink:href="#C17_0_a4d1fea677" x="558.119041" y="118.80223" style="fill: #23a349; stroke: #000000; stroke-width: 0.5"/>
    </g>
    <g clip-path="url(#p4035c8769f)">
     <use xlink:href="#C17_0_a4d1fea677" x="558.455491" y="120.015435" style="fill: #23a349; stroke: #000000; stroke-width: 0.5"/>
    </g>
    <g clip-path="url(#p4035c8769f)">
     <use xlink:href="#C17_0_a4d1fea677" x="558.986455" y="120.171978" style="fill: #23a349; stroke: #000000; stroke-width: 0.5"/>
    </g>
   </g>
   <g id="text_17">
    <!-- Msp6 -->
    <g transform="translate(512.169856 16.318125) scale(0.12 -0.12)">
     <defs>
      <path id="DejaVuSans-36" d="M 2113 2584 
Q 1688 2584 1439 2293 
Q 1191 2003 1191 1497 
Q 1191 994 1439 701 
Q 1688 409 2113 409 
Q 2538 409 2786 701 
Q 3034 994 3034 1497 
Q 3034 2003 2786 2293 
Q 2538 2584 2113 2584 
z
M 3366 4563 
L 3366 3988 
Q 3128 4100 2886 4159 
Q 2644 4219 2406 4219 
Q 1781 4219 1451 3797 
Q 1122 3375 1075 2522 
Q 1259 2794 1537 2939 
Q 1816 3084 2150 3084 
Q 2853 3084 3261 2657 
Q 3669 2231 3669 1497 
Q 3669 778 3244 343 
Q 2819 -91 2113 -91 
Q 1303 -91 875 529 
Q 447 1150 447 2328 
Q 447 3434 972 4092 
Q 1497 4750 2381 4750 
Q 2619 4750 2861 4703 
Q 3103 4656 3366 4563 
z
" transform="scale(0.015625)"/>
     </defs>
     <use xlink:href="#DejaVuSans-4d"/>
     <use xlink:href="#DejaVuSans-73" x="86.279297"/>
     <use xlink:href="#DejaVuSans-70" x="138.378906"/>
     <use xlink:href="#DejaVuSans-36" x="201.855469"/>
    </g>
   </g>
  </g>
 </g>
 <defs>
  <clipPath id="pf0a8026a43">
   <rect x="64.529687" y="22.318125" width="77.261538" height="110.88"/>
  </clipPath>
  <clipPath id="pb543067d4c">
   <rect x="149.51738" y="22.318125" width="77.261538" height="110.88"/>
  </clipPath>
  <clipPath id="pa0c54fd1db">
   <rect x="234.505072" y="22.318125" width="77.261538" height="110.88"/>
  </clipPath>
  <clipPath id="p5b78eae8d0">
   <rect x="319.492764" y="22.318125" width="77.261538" height="110.88"/>
  </clipPath>
  <clipPath id="p3c24bae685">
   <rect x="404.480457" y="22.318125" width="77.261538" height="110.88"/>
  </clipPath>
  <clipPath id="p4035c8769f">
   <rect x="489.468149" y="22.318125" width="77.261538" height="110.88"/>
  </clipPath>
 </defs>
</svg>
