<?xml version="1.0" encoding="utf-8" standalone="no"?>
<!DOCTYPE svg PUBLIC "-//W3C//DTD SVG 1.1//EN"
  "http://www.w3.org/Graphics/SVG/1.1/DTD/svg11.dtd">
<svg xmlns:xlink="http://www.w3.org/1999/xlink" width="342.642031pt" height="236.699531pt" viewBox="0 0 342.642031 236.699531" xmlns="http://www.w3.org/2000/svg" version="1.1">
 <metadata>
  <rdf:RDF xmlns:dc="http://purl.org/dc/elements/1.1/" xmlns:cc="http://creativecommons.org/ns#" xmlns:rdf="http://www.w3.org/1999/02/22-rdf-syntax-ns#">
   <cc:Work>
    <dc:type rdf:resource="http://purl.org/dc/dcmitype/StillImage"/>
    <dc:date>2024-10-19T10:50:35.405834</dc:date>
    <dc:format>image/svg+xml</dc:format>
    <dc:creator>
     <cc:Agent>
      <dc:title>Matplotlib v3.7.2, https://matplotlib.org/</dc:title>
     </cc:Agent>
    </dc:creator>
   </cc:Work>
  </rdf:RDF>
 </metadata>
 <defs>
  <style type="text/css">*{stroke-linejoin: round; stroke-linecap: butt}</style>
 </defs>
 <g id="figure_1">
  <g id="patch_1">
   <path d="M 0 236.699531 
L 342.642031 236.699531 
L 342.642031 0 
L 0 0 
z
" style="fill: #ffffff"/>
  </g>
  <g id="axes_1">
   <g id="patch_2">
    <path d="M 56.442031 193.72 
L 335.442031 193.72 
L 335.442031 27.4 
L 56.442031 27.4 
z
" style="fill: #ffffff"/>
   </g>
   <g id="patch_3">
    <path d="M 62.022031 193.72 
L 106.662031 193.72 
L 106.662031 192.8884 
L 62.022031 192.8884 
z
" clip-path="url(#pa640e3784d)" style="fill: #dfdf20; opacity: 0.7"/>
   </g>
   <g id="patch_4">
    <path d="M 117.822031 193.72 
L 162.462031 193.72 
L 162.462031 146.53264 
L 117.822031 146.53264 
z
" clip-path="url(#pa640e3784d)" style="fill: #3a90e3; opacity: 0.7"/>
   </g>
   <g id="patch_5">
    <path d="M 173.622031 193.72 
L 218.262031 193.72 
L 218.262031 145.03576 
L 173.622031 145.03576 
z
" clip-path="url(#pa640e3784d)" style="fill: #45ba45; opacity: 0.7"/>
   </g>
   <g id="patch_6">
    <path d="M 229.422031 193.72 
L 274.062031 193.72 
L 274.062031 80.69368 
L 229.422031 80.69368 
z
" clip-path="url(#pa640e3784d)" style="fill: #df2020; opacity: 0.7"/>
   </g>
   <g id="patch_7">
    <path d="M 285.222031 193.72 
L 329.862031 193.72 
L 329.862031 74.84872 
L 285.222031 74.84872 
z
" clip-path="url(#pa640e3784d)" style="fill: #f7c8d0; opacity: 0.7"/>
   </g>
   <g id="matplotlib.axis_1">
    <g id="xtick_1">
     <g id="line2d_1">
      <defs>
       <path id="m61e596dccf" d="M 0 0 
L 0 3.5 
" style="stroke: #000000; stroke-width: 0.8"/>
      </defs>
      <g>
       <use xlink:href="#m61e596dccf" x="84.342031" y="193.72" style="stroke: #000000; stroke-width: 0.8"/>
      </g>
     </g>
     <g id="text_1">
      <!-- suppressed -->
      <g transform="translate(55.722969 209.24) scale(0.12 -0.12)">
       <defs>
        <path id="MyriadPro-Regular-73" d="M 256 147 
C 474 19 787 -70 1126 -70 
C 1850 -70 2278 314 2278 864 
C 2278 1325 1997 1594 1466 1792 
C 1062 1952 883 2067 883 2323 
C 883 2554 1062 2746 1395 2746 
C 1683 2746 1907 2637 2029 2560 
L 2163 2970 
C 1997 3078 1722 3162 1408 3162 
C 749 3162 339 2752 339 2253 
C 339 1882 602 1581 1165 1376 
C 1574 1222 1734 1082 1734 813 
C 1734 550 1542 352 1139 352 
C 858 352 563 467 390 570 
L 256 147 
z
" transform="scale(0.015625)"/>
        <path id="MyriadPro-Regular-75" d="M 3059 3098 
L 2496 3098 
L 2496 1203 
C 2496 1094 2477 992 2445 915 
C 2342 659 2080 397 1702 397 
C 1197 397 1011 800 1011 1389 
L 1011 3098 
L 448 3098 
L 448 1286 
C 448 205 1030 -70 1517 -70 
C 2067 -70 2400 256 2541 506 
L 2554 506 
L 2586 0 
L 3085 0 
C 3066 243 3059 525 3059 851 
L 3059 3098 
z
" transform="scale(0.015625)"/>
        <path id="MyriadPro-Regular-70" d="M 467 -1267 
L 1024 -1267 
L 1024 416 
L 1037 416 
C 1222 109 1581 -70 1990 -70 
C 2720 -70 3405 480 3405 1594 
C 3405 2528 2842 3162 2086 3162 
C 1581 3162 1210 2944 986 2566 
L 973 2566 
L 941 3098 
L 442 3098 
C 454 2803 467 2483 467 2086 
L 467 -1267 
z
M 1024 1798 
C 1024 1869 1043 1952 1062 2022 
C 1165 2445 1530 2714 1914 2714 
C 2509 2714 2835 2182 2835 1568 
C 2835 858 2490 371 1894 371 
C 1491 371 1152 640 1050 1030 
C 1030 1101 1024 1178 1024 1261 
L 1024 1798 
z
" transform="scale(0.015625)"/>
        <path id="MyriadPro-Regular-72" d="M 467 0 
L 1030 0 
L 1030 1651 
C 1030 1741 1037 1837 1050 1914 
C 1126 2336 1408 2630 1805 2630 
C 1882 2630 1939 2630 1997 2618 
L 1997 3149 
C 1946 3155 1901 3162 1843 3162 
C 1466 3162 1120 2899 979 2483 
L 960 2483 
L 934 3098 
L 442 3098 
C 461 2810 467 2496 467 2131 
L 467 0 
z
" transform="scale(0.015625)"/>
        <path id="MyriadPro-Regular-65" d="M 2957 1446 
C 2970 1510 2976 1594 2976 1709 
C 2976 2278 2714 3162 1696 3162 
C 794 3162 243 2432 243 1498 
C 243 563 813 -70 1766 -70 
C 2259 -70 2605 38 2803 128 
L 2701 531 
C 2496 442 2246 371 1843 371 
C 1274 371 794 685 781 1446 
L 2957 1446 
z
M 787 1850 
C 832 2240 1075 2758 1651 2758 
C 2285 2758 2438 2202 2432 1850 
L 787 1850 
z
" transform="scale(0.015625)"/>
        <path id="MyriadPro-Regular-64" d="M 2579 4544 
L 2579 2694 
L 2566 2694 
C 2426 2938 2112 3162 1632 3162 
C 883 3162 237 2534 243 1504 
C 243 563 826 -70 1574 -70 
C 2080 -70 2451 192 2618 538 
L 2637 538 
L 2662 0 
L 3162 0 
C 3149 211 3136 525 3136 800 
L 3136 4544 
L 2579 4544 
z
M 2579 1299 
C 2579 1210 2573 1133 2554 1056 
C 2451 640 2106 384 1728 384 
C 1126 384 813 902 813 1530 
C 813 2208 1158 2720 1741 2720 
C 2163 2720 2470 2426 2554 2074 
C 2573 2003 2579 1907 2579 1837 
L 2579 1299 
z
" transform="scale(0.015625)"/>
       </defs>
       <use xlink:href="#MyriadPro-Regular-73"/>
       <use xlink:href="#MyriadPro-Regular-75" x="39.599991"/>
       <use xlink:href="#MyriadPro-Regular-70" x="94.699982"/>
       <use xlink:href="#MyriadPro-Regular-70" x="151.599976"/>
       <use xlink:href="#MyriadPro-Regular-72" x="208.499969"/>
       <use xlink:href="#MyriadPro-Regular-65" x="241.199966"/>
       <use xlink:href="#MyriadPro-Regular-73" x="291.299957"/>
       <use xlink:href="#MyriadPro-Regular-73" x="330.899948"/>
       <use xlink:href="#MyriadPro-Regular-65" x="370.499939"/>
       <use xlink:href="#MyriadPro-Regular-64" x="420.59993"/>
      </g>
     </g>
    </g>
    <g id="xtick_2">
     <g id="line2d_2">
      <g>
       <use xlink:href="#m61e596dccf" x="140.142031" y="193.72" style="stroke: #000000; stroke-width: 0.8"/>
      </g>
     </g>
     <g id="text_2">
      <!-- resting -->
      <g transform="translate(122.724219 209.106875) scale(0.12 -0.12)">
       <defs>
        <path id="MyriadPro-Regular-74" d="M 595 3674 
L 595 3098 
L 115 3098 
L 115 2669 
L 595 2669 
L 595 979 
C 595 614 659 339 813 166 
C 947 19 1158 -70 1421 -70 
C 1638 -70 1811 -32 1920 6 
L 1894 435 
C 1811 410 1722 397 1568 397 
C 1254 397 1146 614 1146 998 
L 1146 2669 
L 1952 2669 
L 1952 3098 
L 1146 3098 
L 1146 3840 
L 595 3674 
z
" transform="scale(0.015625)"/>
        <path id="MyriadPro-Regular-69" d="M 1030 0 
L 1030 3098 
L 467 3098 
L 467 0 
L 1030 0 
z
M 749 4320 
C 538 4320 397 4160 397 3968 
C 397 3776 531 3622 736 3622 
C 960 3622 1094 3776 1094 3968 
C 1094 4166 954 4320 749 4320 
z
" transform="scale(0.015625)"/>
        <path id="MyriadPro-Regular-6e" d="M 467 0 
L 1030 0 
L 1030 1862 
C 1030 1958 1043 2054 1069 2125 
C 1171 2438 1459 2701 1824 2701 
C 2355 2701 2541 2285 2541 1786 
L 2541 0 
L 3104 0 
L 3104 1843 
C 3104 2906 2438 3162 2010 3162 
C 1498 3162 1139 2874 986 2586 
L 973 2586 
L 941 3098 
L 442 3098 
C 461 2842 467 2586 467 2259 
L 467 0 
z
" transform="scale(0.015625)"/>
        <path id="MyriadPro-Regular-67" d="M 3117 2253 
C 3117 2624 3123 2880 3142 3098 
L 2643 3098 
L 2624 2630 
L 2611 2630 
C 2470 2886 2182 3162 1645 3162 
C 928 3162 243 2573 243 1523 
C 243 666 794 13 1562 13 
C 2042 13 2381 243 2547 531 
L 2560 531 
L 2560 192 
C 2560 -595 2138 -896 1562 -896 
C 1178 -896 858 -781 653 -646 
L 512 -1082 
C 762 -1248 1171 -1338 1542 -1338 
C 1933 -1338 2368 -1242 2675 -966 
C 2970 -691 3117 -262 3117 454 
L 3117 2253 
z
M 2554 1318 
C 2554 1222 2541 1114 2509 1018 
C 2394 659 2080 442 1728 442 
C 1126 442 813 947 813 1555 
C 813 2272 1197 2726 1734 2726 
C 2150 2726 2419 2458 2522 2125 
C 2547 2054 2554 1971 2554 1875 
L 2554 1318 
z
" transform="scale(0.015625)"/>
       </defs>
       <use xlink:href="#MyriadPro-Regular-72"/>
       <use xlink:href="#MyriadPro-Regular-65" x="32.699997"/>
       <use xlink:href="#MyriadPro-Regular-73" x="82.799988"/>
       <use xlink:href="#MyriadPro-Regular-74" x="122.399979"/>
       <use xlink:href="#MyriadPro-Regular-69" x="155.499969"/>
       <use xlink:href="#MyriadPro-Regular-6e" x="178.899963"/>
       <use xlink:href="#MyriadPro-Regular-67" x="234.399948"/>
      </g>
     </g>
    </g>
    <g id="xtick_3">
     <g id="line2d_3">
      <g>
       <use xlink:href="#m61e596dccf" x="195.942031" y="193.72" style="stroke: #000000; stroke-width: 0.8"/>
      </g>
     </g>
     <g id="text_3">
      <!-- enriched -->
      <g transform="translate(173.832031 209.24) scale(0.12 -0.12)">
       <defs>
        <path id="MyriadPro-Regular-63" d="M 2579 531 
C 2419 461 2208 384 1888 384 
C 1274 384 813 826 813 1542 
C 813 2182 1197 2714 1907 2714 
C 2214 2714 2426 2637 2560 2566 
L 2688 2995 
C 2534 3078 2240 3162 1907 3162 
C 896 3162 243 2464 243 1510 
C 243 563 851 -70 1786 -70 
C 2202 -70 2528 38 2675 109 
L 2579 531 
z
" transform="scale(0.015625)"/>
        <path id="MyriadPro-Regular-68" d="M 467 0 
L 1030 0 
L 1030 1869 
C 1030 1971 1037 2054 1069 2138 
C 1178 2438 1459 2694 1824 2694 
C 2355 2694 2541 2278 2541 1779 
L 2541 0 
L 3104 0 
L 3104 1843 
C 3104 2906 2438 3162 2022 3162 
C 1811 3162 1613 3104 1446 3008 
C 1274 2912 1133 2765 1043 2605 
L 1030 2605 
L 1030 4544 
L 467 4544 
L 467 0 
z
" transform="scale(0.015625)"/>
       </defs>
       <use xlink:href="#MyriadPro-Regular-65"/>
       <use xlink:href="#MyriadPro-Regular-6e" x="50.099991"/>
       <use xlink:href="#MyriadPro-Regular-72" x="105.599976"/>
       <use xlink:href="#MyriadPro-Regular-69" x="138.299973"/>
       <use xlink:href="#MyriadPro-Regular-63" x="161.699966"/>
       <use xlink:href="#MyriadPro-Regular-68" x="206.499954"/>
       <use xlink:href="#MyriadPro-Regular-65" x="261.999939"/>
       <use xlink:href="#MyriadPro-Regular-64" x="312.09993"/>
      </g>
     </g>
    </g>
    <g id="xtick_4">
     <g id="line2d_4">
      <g>
       <use xlink:href="#m61e596dccf" x="251.742031" y="193.72" style="stroke: #000000; stroke-width: 0.8"/>
      </g>
     </g>
     <g id="text_4">
      <!-- detected -->
      <g transform="translate(229.297344 209.24) scale(0.12 -0.12)">
       <use xlink:href="#MyriadPro-Regular-64"/>
       <use xlink:href="#MyriadPro-Regular-65" x="56.399994"/>
       <use xlink:href="#MyriadPro-Regular-74" x="106.499985"/>
       <use xlink:href="#MyriadPro-Regular-65" x="139.599976"/>
       <use xlink:href="#MyriadPro-Regular-63" x="189.699966"/>
       <use xlink:href="#MyriadPro-Regular-74" x="234.499954"/>
       <use xlink:href="#MyriadPro-Regular-65" x="267.599945"/>
       <use xlink:href="#MyriadPro-Regular-64" x="317.699936"/>
      </g>
     </g>
    </g>
    <g id="xtick_5">
     <g id="line2d_5">
      <g>
       <use xlink:href="#m61e596dccf" x="307.542031" y="193.72" style="stroke: #000000; stroke-width: 0.8"/>
      </g>
     </g>
     <g id="text_5">
      <!-- hyper -->
      <g transform="translate(293.004219 209.24) scale(0.12 -0.12)">
       <defs>
        <path id="MyriadPro-Regular-79" d="M 58 3098 
L 1197 243 
C 1229 173 1242 128 1242 96 
C 1242 64 1222 19 1197 -38 
C 1062 -326 877 -544 723 -666 
C 557 -806 371 -896 230 -941 
L 371 -1408 
C 512 -1382 781 -1286 1062 -1050 
C 1446 -710 1722 -173 2125 890 
L 2970 3098 
L 2374 3098 
L 1760 1280 
C 1683 1056 1619 819 1562 634 
L 1549 634 
C 1498 819 1421 1062 1344 1267 
L 672 3098 
L 58 3098 
z
" transform="scale(0.015625)"/>
       </defs>
       <use xlink:href="#MyriadPro-Regular-68"/>
       <use xlink:href="#MyriadPro-Regular-79" x="55.499985"/>
       <use xlink:href="#MyriadPro-Regular-70" x="102.599976"/>
       <use xlink:href="#MyriadPro-Regular-65" x="159.499969"/>
       <use xlink:href="#MyriadPro-Regular-72" x="209.59996"/>
      </g>
     </g>
    </g>
    <g id="text_6">
     <!--   -->
     <g transform="translate(194.351797 226.53) scale(0.15 -0.15)">
      <defs>
       <path id="MyriadPro-Regular-20" transform="scale(0.015625)"/>
      </defs>
      <use xlink:href="#MyriadPro-Regular-20"/>
     </g>
    </g>
   </g>
   <g id="matplotlib.axis_2">
    <g id="ytick_1">
     <g id="line2d_6">
      <defs>
       <path id="m15b3c7320c" d="M 0 0 
L -3.5 0 
" style="stroke: #000000; stroke-width: 0.8"/>
      </defs>
      <g>
       <use xlink:href="#m15b3c7320c" x="56.442031" y="193.72" style="stroke: #000000; stroke-width: 0.8"/>
      </g>
     </g>
     <g id="text_7">
      <!-- 0 -->
      <g transform="translate(43.286406 197.98) scale(0.12 -0.12)">
       <defs>
        <path id="MyriadPro-Regular-30" d="M 1683 4230 
C 838 4230 230 3469 230 2067 
C 243 691 800 -70 1613 -70 
C 2528 -70 3059 710 3059 2125 
C 3059 3450 2554 4230 1683 4230 
z
M 1645 3795 
C 2234 3795 2490 3123 2490 2099 
C 2490 1037 2214 365 1645 365 
C 1133 365 800 979 800 2061 
C 800 3194 1158 3795 1645 3795 
z
" transform="scale(0.015625)"/>
       </defs>
       <use xlink:href="#MyriadPro-Regular-30"/>
      </g>
     </g>
    </g>
    <g id="ytick_2">
     <g id="line2d_7">
      <g>
       <use xlink:href="#m15b3c7320c" x="56.442031" y="164.02" style="stroke: #000000; stroke-width: 0.8"/>
      </g>
     </g>
     <g id="text_8">
      <!-- 250 -->
      <g transform="translate(30.975156 168.28) scale(0.12 -0.12)">
       <defs>
        <path id="MyriadPro-Regular-32" d="M 2944 0 
L 2944 467 
L 1082 467 
L 1082 480 
L 1408 787 
C 2285 1632 2842 2253 2842 3021 
C 2842 3616 2464 4230 1568 4230 
C 1094 4230 678 4045 397 3808 
L 576 3411 
C 768 3571 1082 3763 1459 3763 
C 2080 3763 2278 3373 2278 2950 
C 2278 2323 1792 1786 730 774 
L 288 346 
L 288 0 
L 2944 0 
z
" transform="scale(0.015625)"/>
        <path id="MyriadPro-Regular-35" d="M 2771 4160 
L 781 4160 
L 512 2163 
C 666 2182 851 2202 1094 2202 
C 1920 2202 2285 1824 2285 1286 
C 2291 730 1830 384 1306 384 
C 922 384 582 512 410 614 
L 269 186 
C 474 58 851 -70 1306 -70 
C 2208 -70 2854 538 2854 1350 
C 2854 1869 2586 2234 2259 2413 
C 2003 2573 1690 2637 1363 2637 
C 1210 2637 1120 2630 1024 2618 
L 1184 3686 
L 2771 3686 
L 2771 4160 
z
" transform="scale(0.015625)"/>
       </defs>
       <use xlink:href="#MyriadPro-Regular-32"/>
       <use xlink:href="#MyriadPro-Regular-35" x="51.299988"/>
       <use xlink:href="#MyriadPro-Regular-30" x="102.599976"/>
      </g>
     </g>
    </g>
    <g id="ytick_3">
     <g id="line2d_8">
      <g>
       <use xlink:href="#m15b3c7320c" x="56.442031" y="134.32" style="stroke: #000000; stroke-width: 0.8"/>
      </g>
     </g>
     <g id="text_9">
      <!-- 500 -->
      <g transform="translate(30.975156 138.58) scale(0.12 -0.12)">
       <use xlink:href="#MyriadPro-Regular-35"/>
       <use xlink:href="#MyriadPro-Regular-30" x="51.299988"/>
       <use xlink:href="#MyriadPro-Regular-30" x="102.599976"/>
      </g>
     </g>
    </g>
    <g id="ytick_4">
     <g id="line2d_9">
      <g>
       <use xlink:href="#m15b3c7320c" x="56.442031" y="104.62" style="stroke: #000000; stroke-width: 0.8"/>
      </g>
     </g>
     <g id="text_10">
      <!-- 750 -->
      <g transform="translate(30.975156 108.88) scale(0.12 -0.12)">
       <defs>
        <path id="MyriadPro-Regular-37" d="M 365 4160 
L 365 3693 
L 2400 3693 
L 2400 3680 
L 595 0 
L 1178 0 
L 2989 3789 
L 2989 4160 
L 365 4160 
z
" transform="scale(0.015625)"/>
       </defs>
       <use xlink:href="#MyriadPro-Regular-37"/>
       <use xlink:href="#MyriadPro-Regular-35" x="51.299988"/>
       <use xlink:href="#MyriadPro-Regular-30" x="102.599976"/>
      </g>
     </g>
    </g>
    <g id="ytick_5">
     <g id="line2d_10">
      <g>
       <use xlink:href="#m15b3c7320c" x="56.442031" y="74.92" style="stroke: #000000; stroke-width: 0.8"/>
      </g>
     </g>
     <g id="text_11">
      <!-- 1000 -->
      <g transform="translate(24.819531 79.18) scale(0.12 -0.12)">
       <defs>
        <path id="MyriadPro-Regular-31" d="M 1510 0 
L 2054 0 
L 2054 4160 
L 1574 4160 
L 666 3674 
L 774 3245 
L 1498 3635 
L 1510 3635 
L 1510 0 
z
" transform="scale(0.015625)"/>
       </defs>
       <use xlink:href="#MyriadPro-Regular-31"/>
       <use xlink:href="#MyriadPro-Regular-30" x="51.299988"/>
       <use xlink:href="#MyriadPro-Regular-30" x="102.599976"/>
       <use xlink:href="#MyriadPro-Regular-30" x="153.899963"/>
      </g>
     </g>
    </g>
    <g id="ytick_6">
     <g id="line2d_11">
      <g>
       <use xlink:href="#m15b3c7320c" x="56.442031" y="45.22" style="stroke: #000000; stroke-width: 0.8"/>
      </g>
     </g>
     <g id="text_12">
      <!-- 1250 -->
      <g transform="translate(24.819531 49.48) scale(0.12 -0.12)">
       <use xlink:href="#MyriadPro-Regular-31"/>
       <use xlink:href="#MyriadPro-Regular-32" x="51.299988"/>
       <use xlink:href="#MyriadPro-Regular-35" x="102.599976"/>
       <use xlink:href="#MyriadPro-Regular-30" x="153.899963"/>
      </g>
     </g>
    </g>
    <g id="text_13">
     <!-- GFP (a.u.) -->
     <g transform="translate(17.85 139.751406) rotate(-90) scale(0.15 -0.15)">
      <defs>
       <path id="MyriadPro-Regular-47" d="M 3776 2266 
L 2355 2266 
L 2355 1818 
L 3226 1818 
L 3226 531 
C 3098 467 2848 416 2483 416 
C 1472 416 819 1062 819 2157 
C 819 3238 1504 3891 2554 3891 
C 2989 3891 3277 3814 3507 3706 
L 3648 4160 
C 3462 4250 3066 4358 2566 4358 
C 1120 4358 230 3418 230 2131 
C 230 1459 461 883 832 525 
C 1254 122 1792 -45 2445 -45 
C 3027 -45 3526 96 3776 192 
L 3776 2266 
z
" transform="scale(0.015625)"/>
       <path id="MyriadPro-Regular-46" d="M 480 0 
L 1043 0 
L 1043 1952 
L 2669 1952 
L 2669 2413 
L 1043 2413 
L 1043 3846 
L 2803 3846 
L 2803 4314 
L 480 4314 
L 480 0 
z
" transform="scale(0.015625)"/>
       <path id="MyriadPro-Regular-50" d="M 486 0 
L 1043 0 
L 1043 1728 
C 1171 1696 1325 1690 1491 1690 
C 2035 1690 2509 1850 2810 2163 
C 3027 2387 3142 2694 3142 3085 
C 3142 3469 2995 3782 2765 3987 
C 2509 4218 2106 4346 1555 4346 
C 1107 4346 755 4307 486 4262 
L 486 0 
z
M 1043 3859 
C 1139 3885 1325 3904 1568 3904 
C 2176 3904 2586 3629 2586 3053 
C 2586 2470 2176 2138 1504 2138 
C 1318 2138 1165 2150 1043 2182 
L 1043 3859 
z
" transform="scale(0.015625)"/>
       <path id="MyriadPro-Regular-28" d="M 1248 4442 
C 845 3904 416 3078 410 1824 
C 410 576 845 -243 1248 -774 
L 1683 -774 
C 1235 -134 883 678 883 1818 
C 883 2982 1216 3808 1683 4442 
L 1248 4442 
z
" transform="scale(0.015625)"/>
       <path id="MyriadPro-Regular-61" d="M 2643 1901 
C 2643 2515 2413 3162 1466 3162 
C 1075 3162 698 3053 442 2893 
L 570 2515 
C 787 2662 1088 2746 1382 2746 
C 2016 2752 2086 2285 2086 2035 
L 2086 1971 
C 890 1978 224 1568 224 819 
C 224 371 544 -70 1171 -70 
C 1613 -70 1946 147 2118 390 
L 2138 390 
L 2182 0 
L 2688 0 
C 2656 211 2643 474 2643 742 
L 2643 1901 
z
M 2099 1043 
C 2099 992 2093 928 2074 864 
C 1984 602 1722 346 1312 346 
C 1030 346 787 512 787 883 
C 787 1485 1485 1594 2099 1581 
L 2099 1043 
z
" transform="scale(0.015625)"/>
       <path id="MyriadPro-Regular-2e" d="M 704 -70 
C 941 -70 1094 102 1094 333 
C 1094 570 941 736 717 736 
C 493 736 333 563 333 333 
C 333 102 486 -70 704 -70 
z
" transform="scale(0.015625)"/>
       <path id="MyriadPro-Regular-29" d="M 563 -774 
C 966 -237 1395 582 1402 1837 
C 1402 3091 966 3917 563 4442 
L 128 4442 
C 582 3802 928 2989 928 1837 
C 928 685 576 -141 128 -774 
L 563 -774 
z
" transform="scale(0.015625)"/>
      </defs>
      <use xlink:href="#MyriadPro-Regular-47"/>
      <use xlink:href="#MyriadPro-Regular-46" x="64.599991"/>
      <use xlink:href="#MyriadPro-Regular-50" x="113.299988"/>
      <use xlink:href="#MyriadPro-Regular-20" x="166.499985"/>
      <use xlink:href="#MyriadPro-Regular-28" x="187.699982"/>
      <use xlink:href="#MyriadPro-Regular-61" x="216.099976"/>
      <use xlink:href="#MyriadPro-Regular-2e" x="264.299973"/>
      <use xlink:href="#MyriadPro-Regular-75" x="284.999969"/>
      <use xlink:href="#MyriadPro-Regular-2e" x="340.09996"/>
      <use xlink:href="#MyriadPro-Regular-29" x="360.799957"/>
     </g>
    </g>
   </g>
   <g id="patch_8">
    <path d="M 56.442031 193.72 
L 56.442031 27.4 
" style="fill: none; stroke: #000000; stroke-width: 0.8; stroke-linejoin: miter; stroke-linecap: square"/>
   </g>
   <g id="patch_9">
    <path d="M 335.442031 193.72 
L 335.442031 27.4 
" style="fill: none; stroke: #000000; stroke-width: 0.8; stroke-linejoin: miter; stroke-linecap: square"/>
   </g>
   <g id="patch_10">
    <path d="M 56.442031 193.72 
L 335.442031 193.72 
" style="fill: none; stroke: #000000; stroke-width: 0.8; stroke-linejoin: miter; stroke-linecap: square"/>
   </g>
   <g id="patch_11">
    <path d="M 56.442031 27.4 
L 335.442031 27.4 
" style="fill: none; stroke: #000000; stroke-width: 0.8; stroke-linejoin: miter; stroke-linecap: square"/>
   </g>
   <g id="PathCollection_1">
    <defs>
     <path id="C0_0_e38f46a9ed" d="M 0 3.5 
C 0.928211 3.5 1.81853 3.131218 2.474874 2.474874 
C 3.131218 1.81853 3.5 0.928211 3.5 -0 
C 3.5 -0.928211 3.131218 -1.81853 2.474874 -2.474874 
C 1.81853 -3.131218 0.928211 -3.5 0 -3.5 
C -0.928211 -3.5 -1.81853 -3.131218 -2.474874 -2.474874 
C -3.131218 -1.81853 -3.5 -0.928211 -3.5 0 
C -3.5 0.928211 -3.131218 1.81853 -2.474874 2.474874 
C -1.81853 3.131218 -0.928211 3.5 0 3.5 
z
"/>
    </defs>
    <g clip-path="url(#pa640e3784d)">
     <use xlink:href="#C0_0_e38f46a9ed" x="87.940326" y="193.4824" style="fill: #a1c9f4; stroke: #000000; stroke-width: 0.5"/>
    </g>
    <g clip-path="url(#pa640e3784d)">
     <use xlink:href="#C0_0_e38f46a9ed" x="89.778974" y="193.0072" style="fill: #ffb482; stroke: #000000; stroke-width: 0.5"/>
    </g>
    <g clip-path="url(#pa640e3784d)">
     <use xlink:href="#C0_0_e38f46a9ed" x="83.93349" y="193.0072" style="fill: #8de5a1; stroke: #000000; stroke-width: 0.5"/>
    </g>
    <g clip-path="url(#pa640e3784d)">
     <use xlink:href="#C0_0_e38f46a9ed" x="82.290233" y="192.532" style="fill: #ff9f9b; stroke: #000000; stroke-width: 0.5"/>
    </g>
    <g clip-path="url(#pa640e3784d)">
     <use xlink:href="#C0_0_e38f46a9ed" x="87.616407" y="192.4132" style="fill: #d0bbff; stroke: #000000; stroke-width: 0.5"/>
    </g>
   </g>
   <g id="PathCollection_2">
    <defs>
     <path id="C1_0_5e39a2fa8e" d="M 0 3.5 
C 0.928211 3.5 1.81853 3.131218 2.474874 2.474874 
C 3.131218 1.81853 3.5 0.928211 3.5 -0 
C 3.5 -0.928211 3.131218 -1.81853 2.474874 -2.474874 
C 1.81853 -3.131218 0.928211 -3.5 0 -3.5 
C -0.928211 -3.5 -1.81853 -3.131218 -2.474874 -2.474874 
C -3.131218 -1.81853 -3.5 -0.928211 -3.5 0 
C -3.5 0.928211 -3.131218 1.81853 -2.474874 2.474874 
C -1.81853 3.131218 -0.928211 3.5 0 3.5 
z
"/>
    </defs>
    <g clip-path="url(#pa640e3784d)">
     <use xlink:href="#C1_0_5e39a2fa8e" x="136.280634" y="154.1596" style="fill: #a1c9f4; stroke: #000000; stroke-width: 0.5"/>
    </g>
    <g clip-path="url(#pa640e3784d)">
     <use xlink:href="#C1_0_5e39a2fa8e" x="136.289036" y="151.4272" style="fill: #ffb482; stroke: #000000; stroke-width: 0.5"/>
    </g>
    <g clip-path="url(#pa640e3784d)">
     <use xlink:href="#C1_0_5e39a2fa8e" x="137.956554" y="157.2484" style="fill: #8de5a1; stroke: #000000; stroke-width: 0.5"/>
    </g>
    <g clip-path="url(#pa640e3784d)">
     <use xlink:href="#C1_0_5e39a2fa8e" x="142.619756" y="137.6464" style="fill: #ff9f9b; stroke: #000000; stroke-width: 0.5"/>
    </g>
    <g clip-path="url(#pa640e3784d)">
     <use xlink:href="#C1_0_5e39a2fa8e" x="135.930773" y="132.1816" style="fill: #d0bbff; stroke: #000000; stroke-width: 0.5"/>
    </g>
   </g>
   <g id="PathCollection_3">
    <defs>
     <path id="C2_0_71aa5dfc13" d="M 0 3.5 
C 0.928211 3.5 1.81853 3.131218 2.474874 2.474874 
C 3.131218 1.81853 3.5 0.928211 3.5 -0 
C 3.5 -0.928211 3.131218 -1.81853 2.474874 -2.474874 
C 1.81853 -3.131218 0.928211 -3.5 0 -3.5 
C -0.928211 -3.5 -1.81853 -3.131218 -2.474874 -2.474874 
C -3.131218 -1.81853 -3.5 -0.928211 -3.5 0 
C -3.5 0.928211 -3.131218 1.81853 -2.474874 2.474874 
C -1.81853 3.131218 -0.928211 3.5 0 3.5 
z
"/>
    </defs>
    <g clip-path="url(#pa640e3784d)">
     <use xlink:href="#C2_0_71aa5dfc13" x="198.369479" y="159.0304" style="fill: #a1c9f4; stroke: #000000; stroke-width: 0.5"/>
    </g>
    <g clip-path="url(#pa640e3784d)">
     <use xlink:href="#C2_0_71aa5dfc13" x="190.696773" y="164.4952" style="fill: #ffb482; stroke: #000000; stroke-width: 0.5"/>
    </g>
    <g clip-path="url(#pa640e3784d)">
     <use xlink:href="#C2_0_71aa5dfc13" x="191.264746" y="134.0824" style="fill: #8de5a1; stroke: #000000; stroke-width: 0.5"/>
    </g>
    <g clip-path="url(#pa640e3784d)">
     <use xlink:href="#C2_0_71aa5dfc13" x="199.614724" y="110.9164" style="fill: #ff9f9b; stroke: #000000; stroke-width: 0.5"/>
    </g>
    <g clip-path="url(#pa640e3784d)">
     <use xlink:href="#C2_0_71aa5dfc13" x="191.632714" y="156.6544" style="fill: #d0bbff; stroke: #000000; stroke-width: 0.5"/>
    </g>
   </g>
   <g id="PathCollection_4">
    <defs>
     <path id="C3_0_6450497e55" d="M 0 3.5 
C 0.928211 3.5 1.81853 3.131218 2.474874 2.474874 
C 3.131218 1.81853 3.5 0.928211 3.5 -0 
C 3.5 -0.928211 3.131218 -1.81853 2.474874 -2.474874 
C 1.81853 -3.131218 0.928211 -3.5 0 -3.5 
C -0.928211 -3.5 -1.81853 -3.131218 -2.474874 -2.474874 
C -3.131218 -1.81853 -3.5 -0.928211 -3.5 0 
C -3.5 0.928211 -3.131218 1.81853 -2.474874 2.474874 
C -1.81853 3.131218 -0.928211 3.5 0 3.5 
z
"/>
    </defs>
    <g clip-path="url(#pa640e3784d)">
     <use xlink:href="#C3_0_6450497e55" x="255.610438" y="42.0124" style="fill: #a1c9f4; stroke: #000000; stroke-width: 0.5"/>
    </g>
    <g clip-path="url(#pa640e3784d)">
     <use xlink:href="#C3_0_6450497e55" x="250.671323" y="103.9072" style="fill: #ffb482; stroke: #000000; stroke-width: 0.5"/>
    </g>
    <g clip-path="url(#pa640e3784d)">
     <use xlink:href="#C3_0_6450497e55" x="251.008732" y="93.4528" style="fill: #8de5a1; stroke: #000000; stroke-width: 0.5"/>
    </g>
    <g clip-path="url(#pa640e3784d)">
     <use xlink:href="#C3_0_6450497e55" x="255.151473" y="79.7908" style="fill: #ff9f9b; stroke: #000000; stroke-width: 0.5"/>
    </g>
    <g clip-path="url(#pa640e3784d)">
     <use xlink:href="#C3_0_6450497e55" x="252.423346" y="84.3052" style="fill: #d0bbff; stroke: #000000; stroke-width: 0.5"/>
    </g>
   </g>
   <g id="PathCollection_5">
    <defs>
     <path id="C4_0_59333b5002" d="M 0 3.5 
C 0.928211 3.5 1.81853 3.131218 2.474874 2.474874 
C 3.131218 1.81853 3.5 0.928211 3.5 -0 
C 3.5 -0.928211 3.131218 -1.81853 2.474874 -2.474874 
C 1.81853 -3.131218 0.928211 -3.5 0 -3.5 
C -0.928211 -3.5 -1.81853 -3.131218 -2.474874 -2.474874 
C -3.131218 -1.81853 -3.5 -0.928211 -3.5 0 
C -3.5 0.928211 -3.131218 1.81853 -2.474874 2.474874 
C -1.81853 3.131218 -0.928211 3.5 0 3.5 
z
"/>
    </defs>
    <g clip-path="url(#pa640e3784d)">
     <use xlink:href="#C4_0_59333b5002" x="309.086845" y="50.8036" style="fill: #a1c9f4; stroke: #000000; stroke-width: 0.5"/>
    </g>
    <g clip-path="url(#pa640e3784d)">
     <use xlink:href="#C4_0_59333b5002" x="302.633188" y="84.7804" style="fill: #ffb482; stroke: #000000; stroke-width: 0.5"/>
    </g>
    <g clip-path="url(#pa640e3784d)">
     <use xlink:href="#C4_0_59333b5002" x="311.081121" y="70.6432" style="fill: #8de5a1; stroke: #000000; stroke-width: 0.5"/>
    </g>
    <g clip-path="url(#pa640e3784d)">
     <use xlink:href="#C4_0_59333b5002" x="311.953862" y="92.8588" style="fill: #ff9f9b; stroke: #000000; stroke-width: 0.5"/>
    </g>
    <g clip-path="url(#pa640e3784d)">
     <use xlink:href="#C4_0_59333b5002" x="310.047107" y="75.1576" style="fill: #d0bbff; stroke: #000000; stroke-width: 0.5"/>
    </g>
   </g>
   <g id="line2d_12"/>
   <g id="line2d_13"/>
   <g id="line2d_14"/>
   <g id="line2d_15"/>
   <g id="line2d_16"/>
   <g id="text_14">
    <!-- Initial detection -->
    <g transform="translate(130.571719 21.4) scale(0.2 -0.2)">
     <defs>
      <path id="MyriadPro-Regular-49" d="M 480 4314 
L 480 0 
L 1043 0 
L 1043 4314 
L 480 4314 
z
" transform="scale(0.015625)"/>
      <path id="MyriadPro-Regular-6c" d="M 467 0 
L 1030 0 
L 1030 4544 
L 467 4544 
L 467 0 
z
" transform="scale(0.015625)"/>
      <path id="MyriadPro-Regular-6f" d="M 1779 3162 
C 928 3162 243 2554 243 1523 
C 243 544 896 -70 1728 -70 
C 2470 -70 3270 429 3270 1574 
C 3270 2515 2669 3162 1779 3162 
z
M 1766 2739 
C 2432 2739 2694 2080 2694 1555 
C 2694 858 2291 352 1754 352 
C 1203 352 819 864 819 1542 
C 819 2125 1107 2739 1766 2739 
z
" transform="scale(0.015625)"/>
     </defs>
     <use xlink:href="#MyriadPro-Regular-49"/>
     <use xlink:href="#MyriadPro-Regular-6e" x="23.899994"/>
     <use xlink:href="#MyriadPro-Regular-69" x="79.399979"/>
     <use xlink:href="#MyriadPro-Regular-74" x="102.799973"/>
     <use xlink:href="#MyriadPro-Regular-69" x="135.899963"/>
     <use xlink:href="#MyriadPro-Regular-61" x="159.299957"/>
     <use xlink:href="#MyriadPro-Regular-6c" x="207.499954"/>
     <use xlink:href="#MyriadPro-Regular-20" x="231.099945"/>
     <use xlink:href="#MyriadPro-Regular-64" x="252.299942"/>
     <use xlink:href="#MyriadPro-Regular-65" x="308.699936"/>
     <use xlink:href="#MyriadPro-Regular-74" x="358.799927"/>
     <use xlink:href="#MyriadPro-Regular-65" x="391.899918"/>
     <use xlink:href="#MyriadPro-Regular-63" x="441.999908"/>
     <use xlink:href="#MyriadPro-Regular-74" x="486.799896"/>
     <use xlink:href="#MyriadPro-Regular-69" x="519.899887"/>
     <use xlink:href="#MyriadPro-Regular-6f" x="543.299881"/>
     <use xlink:href="#MyriadPro-Regular-6e" x="598.199875"/>
    </g>
   </g>
  </g>
 </g>
 <defs>
  <clipPath id="pa640e3784d">
   <rect x="56.442031" y="27.4" width="279" height="166.32"/>
  </clipPath>
 </defs>
</svg>
