<?xml version="1.0" encoding="utf-8" standalone="no"?>
<!DOCTYPE svg PUBLIC "-//W3C//DTD SVG 1.1//EN"
  "http://www.w3.org/Graphics/SVG/1.1/DTD/svg11.dtd">
<svg xmlns:xlink="http://www.w3.org/1999/xlink" width="580.974062pt" height="247.073594pt" viewBox="0 0 580.974062 247.073594" xmlns="http://www.w3.org/2000/svg" version="1.1">
 <metadata>
  <rdf:RDF xmlns:dc="http://purl.org/dc/elements/1.1/" xmlns:cc="http://creativecommons.org/ns#" xmlns:rdf="http://www.w3.org/1999/02/22-rdf-syntax-ns#">
   <cc:Work>
    <dc:type rdf:resource="http://purl.org/dc/dcmitype/StillImage"/>
    <dc:date>2024-10-19T11:27:53.161134</dc:date>
    <dc:format>image/svg+xml</dc:format>
    <dc:creator>
     <cc:Agent>
      <dc:title>Matplotlib v3.7.2, https://matplotlib.org/</dc:title>
     </cc:Agent>
    </dc:creator>
   </cc:Work>
  </rdf:RDF>
 </metadata>
 <defs>
  <style type="text/css">*{stroke-linejoin: round; stroke-linecap: butt}</style>
 </defs>
 <g id="figure_1">
  <g id="patch_1">
   <path d="M 0 247.073594 
L 580.974062 247.073594 
L 580.974062 0 
L 0 0 
z
" style="fill: #ffffff"/>
  </g>
  <g id="axes_1">
   <g id="patch_2">
    <path d="M 50.314062 185.885 
L 573.774063 185.885 
L 573.774063 12.525 
L 50.314062 12.525 
z
" style="fill: #ffffff"/>
   </g>
   <g id="matplotlib.axis_1">
    <g id="xtick_1">
     <g id="line2d_1">
      <defs>
       <path id="md5953cb542" d="M 0 0 
L 0 3.5 
" style="stroke: #000000; stroke-width: 0.8"/>
      </defs>
      <g>
       <use xlink:href="#md5953cb542" x="93.935729" y="185.885" style="stroke: #000000; stroke-width: 0.8"/>
      </g>
     </g>
     <g id="text_1">
      <!-- sp (-oriT) -->
      <g transform="translate(66.490417 203.535) scale(0.15 -0.15)">
       <defs>
        <path id="MyriadPro-Regular-73" d="M 256 147 
C 474 19 787 -70 1126 -70 
C 1850 -70 2278 314 2278 864 
C 2278 1325 1997 1594 1466 1792 
C 1062 1952 883 2067 883 2323 
C 883 2554 1062 2746 1395 2746 
C 1683 2746 1907 2637 2029 2560 
L 2163 2970 
C 1997 3078 1722 3162 1408 3162 
C 749 3162 339 2752 339 2253 
C 339 1882 602 1581 1165 1376 
C 1574 1222 1734 1082 1734 813 
C 1734 550 1542 352 1139 352 
C 858 352 563 467 390 570 
L 256 147 
z
" transform="scale(0.015625)"/>
        <path id="MyriadPro-Regular-70" d="M 467 -1267 
L 1024 -1267 
L 1024 416 
L 1037 416 
C 1222 109 1581 -70 1990 -70 
C 2720 -70 3405 480 3405 1594 
C 3405 2528 2842 3162 2086 3162 
C 1581 3162 1210 2944 986 2566 
L 973 2566 
L 941 3098 
L 442 3098 
C 454 2803 467 2483 467 2086 
L 467 -1267 
z
M 1024 1798 
C 1024 1869 1043 1952 1062 2022 
C 1165 2445 1530 2714 1914 2714 
C 2509 2714 2835 2182 2835 1568 
C 2835 858 2490 371 1894 371 
C 1491 371 1152 640 1050 1030 
C 1030 1101 1024 1178 1024 1261 
L 1024 1798 
z
" transform="scale(0.015625)"/>
        <path id="MyriadPro-Regular-20" transform="scale(0.015625)"/>
        <path id="MyriadPro-Regular-28" d="M 1248 4442 
C 845 3904 416 3078 410 1824 
C 410 576 845 -243 1248 -774 
L 1683 -774 
C 1235 -134 883 678 883 1818 
C 883 2982 1216 3808 1683 4442 
L 1248 4442 
z
" transform="scale(0.015625)"/>
        <path id="MyriadPro-Regular-2d" d="M 192 1933 
L 192 1523 
L 1773 1523 
L 1773 1933 
L 192 1933 
z
" transform="scale(0.015625)"/>
        <path id="MyriadPro-Regular-6f" d="M 1779 3162 
C 928 3162 243 2554 243 1523 
C 243 544 896 -70 1728 -70 
C 2470 -70 3270 429 3270 1574 
C 3270 2515 2669 3162 1779 3162 
z
M 1766 2739 
C 2432 2739 2694 2080 2694 1555 
C 2694 858 2291 352 1754 352 
C 1203 352 819 864 819 1542 
C 819 2125 1107 2739 1766 2739 
z
" transform="scale(0.015625)"/>
        <path id="MyriadPro-Regular-72" d="M 467 0 
L 1030 0 
L 1030 1651 
C 1030 1741 1037 1837 1050 1914 
C 1126 2336 1408 2630 1805 2630 
C 1882 2630 1939 2630 1997 2618 
L 1997 3149 
C 1946 3155 1901 3162 1843 3162 
C 1466 3162 1120 2899 979 2483 
L 960 2483 
L 934 3098 
L 442 3098 
C 461 2810 467 2496 467 2131 
L 467 0 
z
" transform="scale(0.015625)"/>
        <path id="MyriadPro-Regular-69" d="M 1030 0 
L 1030 3098 
L 467 3098 
L 467 0 
L 1030 0 
z
M 749 4320 
C 538 4320 397 4160 397 3968 
C 397 3776 531 3622 736 3622 
C 960 3622 1094 3776 1094 3968 
C 1094 4166 954 4320 749 4320 
z
" transform="scale(0.015625)"/>
        <path id="MyriadPro-Regular-54" d="M 1306 0 
L 1869 0 
L 1869 3840 
L 3187 3840 
L 3187 4314 
L -6 4314 
L -6 3840 
L 1306 3840 
L 1306 0 
z
" transform="scale(0.015625)"/>
        <path id="MyriadPro-Regular-29" d="M 563 -774 
C 966 -237 1395 582 1402 1837 
C 1402 3091 966 3917 563 4442 
L 128 4442 
C 582 3802 928 2989 928 1837 
C 928 685 576 -141 128 -774 
L 563 -774 
z
" transform="scale(0.015625)"/>
       </defs>
       <use xlink:href="#MyriadPro-Regular-73"/>
       <use xlink:href="#MyriadPro-Regular-70" x="39.599991"/>
       <use xlink:href="#MyriadPro-Regular-20" x="96.499985"/>
       <use xlink:href="#MyriadPro-Regular-28" x="117.699982"/>
       <use xlink:href="#MyriadPro-Regular-2d" x="146.099976"/>
       <use xlink:href="#MyriadPro-Regular-6f" x="176.799973"/>
       <use xlink:href="#MyriadPro-Regular-72" x="231.699966"/>
       <use xlink:href="#MyriadPro-Regular-69" x="264.399963"/>
       <use xlink:href="#MyriadPro-Regular-54" x="287.799957"/>
       <use xlink:href="#MyriadPro-Regular-29" x="337.499954"/>
      </g>
     </g>
    </g>
    <g id="xtick_2">
     <g id="line2d_2">
      <g>
       <use xlink:href="#md5953cb542" x="181.179063" y="185.885" style="stroke: #000000; stroke-width: 0.8"/>
      </g>
     </g>
     <g id="text_2">
      <!-- sp (+oriT) -->
      <g transform="translate(151.566953 203.535) scale(0.15 -0.15)">
       <defs>
        <path id="MyriadPro-Regular-2b" d="M 1702 3405 
L 1702 1901 
L 256 1901 
L 256 1517 
L 1702 1517 
L 1702 0 
L 2112 0 
L 2112 1517 
L 3558 1517 
L 3558 1901 
L 2112 1901 
L 2112 3405 
L 1702 3405 
z
" transform="scale(0.015625)"/>
       </defs>
       <use xlink:href="#MyriadPro-Regular-73"/>
       <use xlink:href="#MyriadPro-Regular-70" x="39.599991"/>
       <use xlink:href="#MyriadPro-Regular-20" x="96.499985"/>
       <use xlink:href="#MyriadPro-Regular-28" x="117.699982"/>
       <use xlink:href="#MyriadPro-Regular-2b" x="146.099976"/>
       <use xlink:href="#MyriadPro-Regular-6f" x="205.699966"/>
       <use xlink:href="#MyriadPro-Regular-72" x="260.59996"/>
       <use xlink:href="#MyriadPro-Regular-69" x="293.299957"/>
       <use xlink:href="#MyriadPro-Regular-54" x="316.699951"/>
       <use xlink:href="#MyriadPro-Regular-29" x="366.399948"/>
      </g>
     </g>
    </g>
    <g id="xtick_3">
     <g id="line2d_3">
      <g>
       <use xlink:href="#md5953cb542" x="268.422396" y="185.885" style="stroke: #000000; stroke-width: 0.8"/>
      </g>
     </g>
     <g id="text_3">
      <!-- NT (+oriT) -->
      <g transform="translate(237.385286 203.535) scale(0.15 -0.15)">
       <defs>
        <path id="MyriadPro-Regular-4e" d="M 1011 0 
L 1011 1843 
C 1011 2560 1005 3078 973 3622 
L 992 3629 
C 1203 3162 1491 2669 1792 2189 
L 3162 0 
L 3725 0 
L 3725 4314 
L 3200 4314 
L 3200 2509 
C 3200 1837 3213 1312 3264 736 
L 3245 730 
C 3046 1171 2790 1626 2477 2131 
L 1101 4314 
L 486 4314 
L 486 0 
L 1011 0 
z
" transform="scale(0.015625)"/>
       </defs>
       <use xlink:href="#MyriadPro-Regular-4e"/>
       <use xlink:href="#MyriadPro-Regular-54" x="65.799988"/>
       <use xlink:href="#MyriadPro-Regular-20" x="115.499985"/>
       <use xlink:href="#MyriadPro-Regular-28" x="136.699982"/>
       <use xlink:href="#MyriadPro-Regular-2b" x="165.099976"/>
       <use xlink:href="#MyriadPro-Regular-6f" x="224.699966"/>
       <use xlink:href="#MyriadPro-Regular-72" x="279.59996"/>
       <use xlink:href="#MyriadPro-Regular-69" x="312.299957"/>
       <use xlink:href="#MyriadPro-Regular-54" x="335.699951"/>
       <use xlink:href="#MyriadPro-Regular-29" x="385.399948"/>
      </g>
     </g>
    </g>
    <g id="xtick_4">
     <g id="line2d_4">
      <g>
       <use xlink:href="#md5953cb542" x="355.665729" y="185.885" style="stroke: #000000; stroke-width: 0.8"/>
      </g>
     </g>
     <g id="text_4">
      <!-- Msp1 (+oriT) -->
      <g transform="translate(316.175885 203.535) scale(0.15 -0.15)">
       <defs>
        <path id="MyriadPro-Regular-4d" d="M 4224 0 
L 4774 0 
L 4506 4314 
L 3795 4314 
L 3027 2227 
C 2835 1683 2682 1210 2566 774 
L 2554 774 
C 2438 1222 2298 1696 2118 2227 
L 1382 4314 
L 672 4314 
L 371 0 
L 902 0 
L 1018 1850 
C 1056 2502 1088 3219 1101 3757 
L 1114 3757 
C 1235 3245 1402 2694 1606 2080 
L 2310 26 
L 2733 26 
L 3494 2118 
C 3712 2714 3885 3258 4038 3757 
L 4051 3757 
C 4051 3226 4090 2496 4122 1894 
L 4224 0 
z
" transform="scale(0.015625)"/>
        <path id="MyriadPro-Regular-31" d="M 1510 0 
L 2054 0 
L 2054 4160 
L 1574 4160 
L 666 3674 
L 774 3245 
L 1498 3635 
L 1510 3635 
L 1510 0 
z
" transform="scale(0.015625)"/>
       </defs>
       <use xlink:href="#MyriadPro-Regular-4d"/>
       <use xlink:href="#MyriadPro-Regular-73" x="80.399994"/>
       <use xlink:href="#MyriadPro-Regular-70" x="119.999985"/>
       <use xlink:href="#MyriadPro-Regular-31" x="176.899979"/>
       <use xlink:href="#MyriadPro-Regular-20" x="228.199966"/>
       <use xlink:href="#MyriadPro-Regular-28" x="249.399963"/>
       <use xlink:href="#MyriadPro-Regular-2b" x="277.799957"/>
       <use xlink:href="#MyriadPro-Regular-6f" x="337.399948"/>
       <use xlink:href="#MyriadPro-Regular-72" x="392.299942"/>
       <use xlink:href="#MyriadPro-Regular-69" x="424.999939"/>
       <use xlink:href="#MyriadPro-Regular-54" x="448.399933"/>
       <use xlink:href="#MyriadPro-Regular-29" x="498.09993"/>
      </g>
     </g>
    </g>
    <g id="xtick_5">
     <g id="line2d_5">
      <g>
       <use xlink:href="#md5953cb542" x="442.909063" y="185.885" style="stroke: #000000; stroke-width: 0.8"/>
      </g>
     </g>
     <g id="text_5">
      <!-- Msp2 (+oriT) -->
      <g transform="translate(403.419219 203.535) scale(0.15 -0.15)">
       <defs>
        <path id="MyriadPro-Regular-32" d="M 2944 0 
L 2944 467 
L 1082 467 
L 1082 480 
L 1408 787 
C 2285 1632 2842 2253 2842 3021 
C 2842 3616 2464 4230 1568 4230 
C 1094 4230 678 4045 397 3808 
L 576 3411 
C 768 3571 1082 3763 1459 3763 
C 2080 3763 2278 3373 2278 2950 
C 2278 2323 1792 1786 730 774 
L 288 346 
L 288 0 
L 2944 0 
z
" transform="scale(0.015625)"/>
       </defs>
       <use xlink:href="#MyriadPro-Regular-4d"/>
       <use xlink:href="#MyriadPro-Regular-73" x="80.399994"/>
       <use xlink:href="#MyriadPro-Regular-70" x="119.999985"/>
       <use xlink:href="#MyriadPro-Regular-32" x="176.899979"/>
       <use xlink:href="#MyriadPro-Regular-20" x="228.199966"/>
       <use xlink:href="#MyriadPro-Regular-28" x="249.399963"/>
       <use xlink:href="#MyriadPro-Regular-2b" x="277.799957"/>
       <use xlink:href="#MyriadPro-Regular-6f" x="337.399948"/>
       <use xlink:href="#MyriadPro-Regular-72" x="392.299942"/>
       <use xlink:href="#MyriadPro-Regular-69" x="424.999939"/>
       <use xlink:href="#MyriadPro-Regular-54" x="448.399933"/>
       <use xlink:href="#MyriadPro-Regular-29" x="498.09993"/>
      </g>
     </g>
    </g>
    <g id="xtick_6">
     <g id="line2d_6">
      <g>
       <use xlink:href="#md5953cb542" x="530.152396" y="185.885" style="stroke: #000000; stroke-width: 0.8"/>
      </g>
     </g>
     <g id="text_6">
      <!-- Msp3 (+oriT) -->
      <g transform="translate(490.662552 203.535) scale(0.15 -0.15)">
       <defs>
        <path id="MyriadPro-Regular-33" d="M 269 211 
C 474 77 883 -70 1350 -70 
C 2342 -70 2867 512 2867 1178 
C 2861 1760 2451 2144 1939 2240 
L 1939 2253 
C 2445 2438 2707 2803 2707 3238 
C 2707 3744 2336 4230 1517 4230 
C 1069 4230 646 4070 422 3910 
L 576 3501 
C 755 3629 1075 3776 1408 3776 
C 1926 3776 2138 3482 2138 3149 
C 2138 2656 1619 2445 1210 2445 
L 896 2445 
L 896 2022 
L 1210 2022 
C 1754 2022 2278 1773 2285 1190 
C 2291 838 2061 384 1344 384 
C 947 384 582 544 422 640 
L 269 211 
z
" transform="scale(0.015625)"/>
       </defs>
       <use xlink:href="#MyriadPro-Regular-4d"/>
       <use xlink:href="#MyriadPro-Regular-73" x="80.399994"/>
       <use xlink:href="#MyriadPro-Regular-70" x="119.999985"/>
       <use xlink:href="#MyriadPro-Regular-33" x="176.899979"/>
       <use xlink:href="#MyriadPro-Regular-20" x="228.199966"/>
       <use xlink:href="#MyriadPro-Regular-28" x="249.399963"/>
       <use xlink:href="#MyriadPro-Regular-2b" x="277.799957"/>
       <use xlink:href="#MyriadPro-Regular-6f" x="337.399948"/>
       <use xlink:href="#MyriadPro-Regular-72" x="392.299942"/>
       <use xlink:href="#MyriadPro-Regular-69" x="424.999939"/>
       <use xlink:href="#MyriadPro-Regular-54" x="448.399933"/>
       <use xlink:href="#MyriadPro-Regular-29" x="498.09993"/>
      </g>
     </g>
    </g>
    <g id="text_7">
     <!--  -->
     <g transform="translate(312.044062 221.154531) scale(0.15 -0.15)"/>
     <!-- Sample Name -->
     <g transform="translate(268.528828 236.904062) scale(0.15 -0.15)">
      <defs>
       <path id="MyriadPro-Regular-53" d="M 269 211 
C 499 58 954 -70 1370 -70 
C 2387 -70 2874 512 2874 1178 
C 2874 1811 2509 2163 1779 2445 
C 1184 2675 922 2874 922 3277 
C 922 3571 1146 3923 1734 3923 
C 2125 3923 2413 3802 2547 3718 
L 2701 4173 
C 2515 4282 2189 4384 1754 4384 
C 915 4384 358 3885 358 3213 
C 358 2611 794 2240 1498 1984 
C 2080 1766 2310 1530 2310 1133 
C 2310 698 1978 397 1408 397 
C 1024 397 666 518 416 678 
L 269 211 
z
" transform="scale(0.015625)"/>
       <path id="MyriadPro-Regular-61" d="M 2643 1901 
C 2643 2515 2413 3162 1466 3162 
C 1075 3162 698 3053 442 2893 
L 570 2515 
C 787 2662 1088 2746 1382 2746 
C 2016 2752 2086 2285 2086 2035 
L 2086 1971 
C 890 1978 224 1568 224 819 
C 224 371 544 -70 1171 -70 
C 1613 -70 1946 147 2118 390 
L 2138 390 
L 2182 0 
L 2688 0 
C 2656 211 2643 474 2643 742 
L 2643 1901 
z
M 2099 1043 
C 2099 992 2093 928 2074 864 
C 1984 602 1722 346 1312 346 
C 1030 346 787 512 787 883 
C 787 1485 1485 1594 2099 1581 
L 2099 1043 
z
" transform="scale(0.015625)"/>
       <path id="MyriadPro-Regular-6d" d="M 467 0 
L 1018 0 
L 1018 1862 
C 1018 1958 1030 2061 1062 2138 
C 1152 2419 1414 2701 1760 2701 
C 2189 2701 2406 2349 2406 1856 
L 2406 0 
L 2957 0 
L 2957 1914 
C 2957 2016 2976 2112 3002 2195 
C 3104 2464 3347 2701 3674 2701 
C 4122 2701 4346 2349 4346 1747 
L 4346 0 
L 4896 0 
L 4896 1818 
C 4896 2893 4288 3162 3872 3162 
C 3578 3162 3379 3085 3194 2944 
C 3066 2848 2938 2720 2842 2541 
L 2829 2541 
C 2694 2906 2374 3162 1958 3162 
C 1440 3162 1152 2886 979 2592 
L 960 2592 
L 934 3098 
L 442 3098 
C 454 2842 467 2586 467 2259 
L 467 0 
z
" transform="scale(0.015625)"/>
       <path id="MyriadPro-Regular-6c" d="M 467 0 
L 1030 0 
L 1030 4544 
L 467 4544 
L 467 0 
z
" transform="scale(0.015625)"/>
       <path id="MyriadPro-Regular-65" d="M 2957 1446 
C 2970 1510 2976 1594 2976 1709 
C 2976 2278 2714 3162 1696 3162 
C 794 3162 243 2432 243 1498 
C 243 563 813 -70 1766 -70 
C 2259 -70 2605 38 2803 128 
L 2701 531 
C 2496 442 2246 371 1843 371 
C 1274 371 794 685 781 1446 
L 2957 1446 
z
M 787 1850 
C 832 2240 1075 2758 1651 2758 
C 2285 2758 2438 2202 2432 1850 
L 787 1850 
z
" transform="scale(0.015625)"/>
      </defs>
      <use xlink:href="#MyriadPro-Regular-53"/>
      <use xlink:href="#MyriadPro-Regular-61" x="49.299988"/>
      <use xlink:href="#MyriadPro-Regular-6d" x="97.499985"/>
      <use xlink:href="#MyriadPro-Regular-70" x="180.899979"/>
      <use xlink:href="#MyriadPro-Regular-6c" x="237.799973"/>
      <use xlink:href="#MyriadPro-Regular-65" x="261.399963"/>
      <use xlink:href="#MyriadPro-Regular-20" x="311.499954"/>
      <use xlink:href="#MyriadPro-Regular-4e" x="332.699951"/>
      <use xlink:href="#MyriadPro-Regular-61" x="398.499939"/>
      <use xlink:href="#MyriadPro-Regular-6d" x="446.699936"/>
      <use xlink:href="#MyriadPro-Regular-65" x="530.09993"/>
     </g>
    </g>
   </g>
   <g id="matplotlib.axis_2">
    <g id="ytick_1">
     <g id="line2d_7">
      <defs>
       <path id="m826d4f5104" d="M 0 0 
L -3.5 0 
" style="stroke: #000000; stroke-width: 0.8"/>
      </defs>
      <g>
       <use xlink:href="#m826d4f5104" x="50.314062" y="185.885" style="stroke: #000000; stroke-width: 0.8"/>
      </g>
     </g>
     <g id="text_8">
      <!-- 0.0 -->
      <g transform="translate(24.819531 191.21) scale(0.15 -0.15)">
       <defs>
        <path id="MyriadPro-Regular-30" d="M 1683 4230 
C 838 4230 230 3469 230 2067 
C 243 691 800 -70 1613 -70 
C 2528 -70 3059 710 3059 2125 
C 3059 3450 2554 4230 1683 4230 
z
M 1645 3795 
C 2234 3795 2490 3123 2490 2099 
C 2490 1037 2214 365 1645 365 
C 1133 365 800 979 800 2061 
C 800 3194 1158 3795 1645 3795 
z
" transform="scale(0.015625)"/>
        <path id="MyriadPro-Regular-2e" d="M 704 -70 
C 941 -70 1094 102 1094 333 
C 1094 570 941 736 717 736 
C 493 736 333 563 333 333 
C 333 102 486 -70 704 -70 
z
" transform="scale(0.015625)"/>
       </defs>
       <use xlink:href="#MyriadPro-Regular-30"/>
       <use xlink:href="#MyriadPro-Regular-2e" x="51.299988"/>
       <use xlink:href="#MyriadPro-Regular-30" x="71.999985"/>
      </g>
     </g>
    </g>
    <g id="ytick_2">
     <g id="line2d_8">
      <g>
       <use xlink:href="#m826d4f5104" x="50.314062" y="142.545" style="stroke: #000000; stroke-width: 0.8"/>
      </g>
     </g>
     <g id="text_9">
      <!-- 0.5 -->
      <g transform="translate(24.819531 147.87) scale(0.15 -0.15)">
       <defs>
        <path id="MyriadPro-Regular-35" d="M 2771 4160 
L 781 4160 
L 512 2163 
C 666 2182 851 2202 1094 2202 
C 1920 2202 2285 1824 2285 1286 
C 2291 730 1830 384 1306 384 
C 922 384 582 512 410 614 
L 269 186 
C 474 58 851 -70 1306 -70 
C 2208 -70 2854 538 2854 1350 
C 2854 1869 2586 2234 2259 2413 
C 2003 2573 1690 2637 1363 2637 
C 1210 2637 1120 2630 1024 2618 
L 1184 3686 
L 2771 3686 
L 2771 4160 
z
" transform="scale(0.015625)"/>
       </defs>
       <use xlink:href="#MyriadPro-Regular-30"/>
       <use xlink:href="#MyriadPro-Regular-2e" x="51.299988"/>
       <use xlink:href="#MyriadPro-Regular-35" x="71.999985"/>
      </g>
     </g>
    </g>
    <g id="ytick_3">
     <g id="line2d_9">
      <g>
       <use xlink:href="#m826d4f5104" x="50.314062" y="99.205" style="stroke: #000000; stroke-width: 0.8"/>
      </g>
     </g>
     <g id="text_10">
      <!-- 1.0 -->
      <g transform="translate(24.819531 104.53) scale(0.15 -0.15)">
       <use xlink:href="#MyriadPro-Regular-31"/>
       <use xlink:href="#MyriadPro-Regular-2e" x="51.299988"/>
       <use xlink:href="#MyriadPro-Regular-30" x="71.999985"/>
      </g>
     </g>
    </g>
    <g id="ytick_4">
     <g id="line2d_10">
      <g>
       <use xlink:href="#m826d4f5104" x="50.314062" y="55.865" style="stroke: #000000; stroke-width: 0.8"/>
      </g>
     </g>
     <g id="text_11">
      <!-- 1.5 -->
      <g transform="translate(24.819531 61.19) scale(0.15 -0.15)">
       <use xlink:href="#MyriadPro-Regular-31"/>
       <use xlink:href="#MyriadPro-Regular-2e" x="51.299988"/>
       <use xlink:href="#MyriadPro-Regular-35" x="71.999985"/>
      </g>
     </g>
    </g>
    <g id="ytick_5">
     <g id="line2d_11">
      <g>
       <use xlink:href="#m826d4f5104" x="50.314062" y="12.525" style="stroke: #000000; stroke-width: 0.8"/>
      </g>
     </g>
     <g id="text_12">
      <!-- 2.0 -->
      <g transform="translate(24.819531 17.85) scale(0.15 -0.15)">
       <use xlink:href="#MyriadPro-Regular-32"/>
       <use xlink:href="#MyriadPro-Regular-2e" x="51.299988"/>
       <use xlink:href="#MyriadPro-Regular-30" x="71.999985"/>
      </g>
     </g>
    </g>
    <g id="text_13">
     <!-- F$_{HR}$ fraction -->
     <g transform="translate(17.85 136.48) rotate(-90) scale(0.15 -0.15)">
      <defs>
       <path id="MyriadPro-Regular-46" d="M 480 0 
L 1043 0 
L 1043 1952 
L 2669 1952 
L 2669 2413 
L 1043 2413 
L 1043 3846 
L 2803 3846 
L 2803 4314 
L 480 4314 
L 480 0 
z
" transform="scale(0.015625)"/>
       <path id="DejaVuSans-Oblique-48" d="M 1081 4666 
L 1716 4666 
L 1344 2753 
L 3634 2753 
L 4006 4666 
L 4641 4666 
L 3731 0 
L 3097 0 
L 3531 2222 
L 1241 2222 
L 806 0 
L 172 0 
L 1081 4666 
z
" transform="scale(0.015625)"/>
       <path id="DejaVuSans-Oblique-52" d="M 1613 4147 
L 1294 2491 
L 2106 2491 
Q 2584 2491 2879 2755 
Q 3175 3019 3175 3444 
Q 3175 3784 2976 3965 
Q 2778 4147 2406 4147 
L 1613 4147 
z
M 2772 2241 
Q 2972 2194 3105 2009 
Q 3238 1825 3413 1275 
L 3809 0 
L 3144 0 
L 2778 1197 
Q 2638 1659 2453 1815 
Q 2269 1972 1888 1972 
L 1191 1972 
L 806 0 
L 172 0 
L 1081 4666 
L 2503 4666 
Q 3150 4666 3495 4373 
Q 3841 4081 3841 3531 
Q 3841 3044 3547 2687 
Q 3253 2331 2772 2241 
z
" transform="scale(0.015625)"/>
       <path id="MyriadPro-Regular-66" d="M 1082 0 
L 1082 2669 
L 1830 2669 
L 1830 3098 
L 1082 3098 
L 1082 3264 
C 1082 3744 1203 4160 1683 4160 
C 1850 4160 1958 4128 2042 4090 
L 2118 4525 
C 2010 4570 1843 4614 1638 4614 
C 1376 4614 1094 4531 883 4326 
C 627 4077 525 3680 525 3245 
L 525 3098 
L 96 3098 
L 96 2669 
L 525 2669 
L 525 0 
L 1082 0 
z
" transform="scale(0.015625)"/>
       <path id="MyriadPro-Regular-63" d="M 2579 531 
C 2419 461 2208 384 1888 384 
C 1274 384 813 826 813 1542 
C 813 2182 1197 2714 1907 2714 
C 2214 2714 2426 2637 2560 2566 
L 2688 2995 
C 2534 3078 2240 3162 1907 3162 
C 896 3162 243 2464 243 1510 
C 243 563 851 -70 1786 -70 
C 2202 -70 2528 38 2675 109 
L 2579 531 
z
" transform="scale(0.015625)"/>
       <path id="MyriadPro-Regular-74" d="M 595 3674 
L 595 3098 
L 115 3098 
L 115 2669 
L 595 2669 
L 595 979 
C 595 614 659 339 813 166 
C 947 19 1158 -70 1421 -70 
C 1638 -70 1811 -32 1920 6 
L 1894 435 
C 1811 410 1722 397 1568 397 
C 1254 397 1146 614 1146 998 
L 1146 2669 
L 1952 2669 
L 1952 3098 
L 1146 3098 
L 1146 3840 
L 595 3674 
z
" transform="scale(0.015625)"/>
       <path id="MyriadPro-Regular-6e" d="M 467 0 
L 1030 0 
L 1030 1862 
C 1030 1958 1043 2054 1069 2125 
C 1171 2438 1459 2701 1824 2701 
C 2355 2701 2541 2285 2541 1786 
L 2541 0 
L 3104 0 
L 3104 1843 
C 3104 2906 2438 3162 2010 3162 
C 1498 3162 1139 2874 986 2586 
L 973 2586 
L 941 3098 
L 442 3098 
C 461 2842 467 2586 467 2259 
L 467 0 
z
" transform="scale(0.015625)"/>
      </defs>
      <use xlink:href="#MyriadPro-Regular-46" transform="translate(0 0.90625)"/>
      <use xlink:href="#DejaVuSans-Oblique-48" transform="translate(49.657028 -15.5) scale(0.7)"/>
      <use xlink:href="#DejaVuSans-Oblique-52" transform="translate(102.293747 -15.5) scale(0.7)"/>
      <use xlink:href="#MyriadPro-Regular-20" transform="translate(153.665817 0.90625)"/>
      <use xlink:href="#MyriadPro-Regular-66" transform="translate(174.865814 0.90625)"/>
      <use xlink:href="#MyriadPro-Regular-72" transform="translate(204.065811 0.90625)"/>
      <use xlink:href="#MyriadPro-Regular-61" transform="translate(236.765808 0.90625)"/>
      <use xlink:href="#MyriadPro-Regular-63" transform="translate(284.965805 0.90625)"/>
      <use xlink:href="#MyriadPro-Regular-74" transform="translate(329.765793 0.90625)"/>
      <use xlink:href="#MyriadPro-Regular-69" transform="translate(362.865784 0.90625)"/>
      <use xlink:href="#MyriadPro-Regular-6f" transform="translate(386.265778 0.90625)"/>
      <use xlink:href="#MyriadPro-Regular-6e" transform="translate(441.165771 0.90625)"/>
     </g>
    </g>
   </g>
   <g id="line2d_12"/>
   <g id="line2d_13">
    <path d="M 85.211396 100.966789 
L 102.660063 100.966789 
M 93.935729 100.966789 
L 93.935729 100.966789 
M 85.211396 100.966789 
L 102.660063 100.966789 
" clip-path="url(#p44eb28202f)" style="fill: none; stroke: #a9a9a9; stroke-width: 2.7; stroke-linecap: square"/>
   </g>
   <g id="line2d_14">
    <path d="M 172.454729 103.375172 
L 189.903396 103.375172 
M 181.179063 103.375172 
L 181.179063 103.375172 
M 172.454729 103.375172 
L 189.903396 103.375172 
" clip-path="url(#p44eb28202f)" style="fill: none; stroke: #a9a9a9; stroke-width: 2.7; stroke-linecap: square"/>
   </g>
   <g id="line2d_15">
    <path d="M 259.698062 112.491715 
L 277.146729 112.491715 
M 268.422396 112.491715 
L 268.422396 112.491715 
M 259.698062 112.491715 
L 277.146729 112.491715 
" clip-path="url(#p44eb28202f)" style="fill: none; stroke: #a9a9a9; stroke-width: 2.7; stroke-linecap: square"/>
   </g>
   <g id="line2d_16">
    <path d="M 346.941396 121.73774 
L 364.390062 121.73774 
M 355.665729 121.73774 
L 355.665729 121.73774 
M 346.941396 121.73774 
L 364.390062 121.73774 
" clip-path="url(#p44eb28202f)" style="fill: none; stroke: #a9a9a9; stroke-width: 2.7; stroke-linecap: square"/>
   </g>
   <g id="line2d_17">
    <path d="M 434.184729 82.229541 
L 451.633396 82.229541 
M 442.909063 82.229541 
L 442.909063 82.229541 
M 434.184729 82.229541 
L 451.633396 82.229541 
" clip-path="url(#p44eb28202f)" style="fill: none; stroke: #a9a9a9; stroke-width: 2.7; stroke-linecap: square"/>
   </g>
   <g id="line2d_18">
    <path d="M 521.428063 101.26881 
L 538.876729 101.26881 
M 530.152396 101.26881 
L 530.152396 101.26881 
M 521.428063 101.26881 
L 538.876729 101.26881 
" clip-path="url(#p44eb28202f)" style="fill: none; stroke: #a9a9a9; stroke-width: 2.7; stroke-linecap: square"/>
   </g>
   <g id="patch_3">
    <path d="M 50.314062 185.885 
L 50.314062 12.525 
" style="fill: none; stroke: #000000; stroke-width: 0.8; stroke-linejoin: miter; stroke-linecap: square"/>
   </g>
   <g id="patch_4">
    <path d="M 573.774063 185.885 
L 573.774063 12.525 
" style="fill: none; stroke: #000000; stroke-width: 0.8; stroke-linejoin: miter; stroke-linecap: square"/>
   </g>
   <g id="patch_5">
    <path d="M 50.314063 185.885 
L 573.774063 185.885 
" style="fill: none; stroke: #000000; stroke-width: 0.8; stroke-linejoin: miter; stroke-linecap: square"/>
   </g>
   <g id="patch_6">
    <path d="M 50.314063 12.525 
L 573.774063 12.525 
" style="fill: none; stroke: #000000; stroke-width: 0.8; stroke-linejoin: miter; stroke-linecap: square"/>
   </g>
   <g id="PathCollection_1">
    <defs>
     <path id="C0_0_90c43ddc5d" d="M -2.5 5 
L 0 2.5 
L 2.5 5 
L 5 2.5 
L 2.5 -0 
L 5 -2.5 
L 2.5 -5 
L 0 -2.5 
L -2.5 -5 
L -5 -2.5 
L -2.5 0 
L -5 2.5 
z
"/>
    </defs>
    <g clip-path="url(#p44eb28202f)">
     <use xlink:href="#C0_0_90c43ddc5d" x="89.657169" y="132.326626" style="fill: #1f77b4"/>
    </g>
    <g clip-path="url(#p44eb28202f)">
     <use xlink:href="#C0_0_90c43ddc5d" x="97.671307" y="71.721098" style="fill: #1f77b4"/>
    </g>
    <g clip-path="url(#p44eb28202f)">
     <use xlink:href="#C0_0_90c43ddc5d" x="94.913258" y="78.768252" style="fill: #1f77b4"/>
    </g>
    <g clip-path="url(#p44eb28202f)">
     <use xlink:href="#C0_0_90c43ddc5d" x="100.511399" y="121.051179" style="fill: #1f77b4"/>
    </g>
   </g>
   <g id="PathCollection_2">
    <defs>
     <path id="C1_0_85762c0b88" d="M -2.5 5 
L 0 2.5 
L 2.5 5 
L 5 2.5 
L 2.5 -0 
L 5 -2.5 
L 2.5 -5 
L 0 -2.5 
L -2.5 -5 
L -5 -2.5 
L -2.5 0 
L -5 2.5 
z
"/>
    </defs>
    <g clip-path="url(#p44eb28202f)">
     <use xlink:href="#C1_0_85762c0b88" x="179.973418" y="98.907131" style="fill: #ff7f0e"/>
    </g>
    <g clip-path="url(#p44eb28202f)">
     <use xlink:href="#C1_0_85762c0b88" x="182.134963" y="115.587818" style="fill: #ff7f0e"/>
    </g>
    <g clip-path="url(#p44eb28202f)">
     <use xlink:href="#C1_0_85762c0b88" x="188.648046" y="86.396615" style="fill: #ff7f0e"/>
    </g>
    <g clip-path="url(#p44eb28202f)">
     <use xlink:href="#C1_0_85762c0b88" x="187.995255" y="112.609124" style="fill: #ff7f0e"/>
    </g>
   </g>
   <g id="PathCollection_3">
    <defs>
     <path id="C2_0_65cb42e854" d="M -2.5 5 
L 0 2.5 
L 2.5 5 
L 5 2.5 
L 2.5 -0 
L 5 -2.5 
L 2.5 -5 
L 0 -2.5 
L -2.5 -5 
L -5 -2.5 
L -2.5 0 
L -5 2.5 
z
"/>
    </defs>
    <g clip-path="url(#p44eb28202f)">
     <use xlink:href="#C2_0_65cb42e854" x="272.092223" y="89.714489" style="fill: #2ca02c"/>
    </g>
    <g clip-path="url(#p44eb28202f)">
     <use xlink:href="#C2_0_65cb42e854" x="268.491054" y="112.491715" style="fill: #2ca02c"/>
    </g>
    <g clip-path="url(#p44eb28202f)">
     <use xlink:href="#C2_0_65cb42e854" x="264.395433" y="120.084124" style="fill: #2ca02c"/>
    </g>
    <g clip-path="url(#p44eb28202f)">
     <use xlink:href="#C2_0_65cb42e854" x="264.906205" y="127.676533" style="fill: #2ca02c"/>
    </g>
   </g>
   <g id="PathCollection_4">
    <defs>
     <path id="C3_0_de4bc8522b" d="M -2.5 5 
L 0 2.5 
L 2.5 5 
L 5 2.5 
L 2.5 -0 
L 5 -2.5 
L 2.5 -5 
L 0 -2.5 
L -2.5 -5 
L -5 -2.5 
L -2.5 0 
L -5 2.5 
z
"/>
    </defs>
    <g clip-path="url(#p44eb28202f)">
     <use xlink:href="#C3_0_de4bc8522b" x="353.110042" y="129.045656" style="fill: #d62728"/>
    </g>
    <g clip-path="url(#p44eb28202f)">
     <use xlink:href="#C3_0_de4bc8522b" x="352.556032" y="135.541581" style="fill: #d62728"/>
    </g>
    <g clip-path="url(#p44eb28202f)">
     <use xlink:href="#C3_0_de4bc8522b" x="364.161799" y="107.933899" style="fill: #d62728"/>
    </g>
    <g clip-path="url(#p44eb28202f)">
     <use xlink:href="#C3_0_de4bc8522b" x="347.433947" y="114.429824" style="fill: #d62728"/>
    </g>
   </g>
   <g id="PathCollection_5">
    <defs>
     <path id="C4_0_ef538cb497" d="M -2.5 5 
L 0 2.5 
L 2.5 5 
L 5 2.5 
L 2.5 -0 
L 5 -2.5 
L 2.5 -5 
L 0 -2.5 
L -2.5 -5 
L -5 -2.5 
L -2.5 0 
L -5 2.5 
z
"/>
    </defs>
    <g clip-path="url(#p44eb28202f)">
     <use xlink:href="#C4_0_ef538cb497" x="446.861563" y="96.95162" style="fill: #9467bd"/>
    </g>
    <g clip-path="url(#p44eb28202f)">
     <use xlink:href="#C4_0_ef538cb497" x="448.848921" y="105.364237" style="fill: #9467bd"/>
    </g>
    <g clip-path="url(#p44eb28202f)">
     <use xlink:href="#C4_0_ef538cb497" x="446.378325" y="80.126386" style="fill: #9467bd"/>
    </g>
    <g clip-path="url(#p44eb28202f)">
     <use xlink:href="#C4_0_ef538cb497" x="450.066877" y="46.475919" style="fill: #9467bd"/>
    </g>
   </g>
   <g id="PathCollection_6">
    <defs>
     <path id="C5_0_d329e443b5" d="M -2.5 5 
L 0 2.5 
L 2.5 5 
L 5 2.5 
L 2.5 -0 
L 5 -2.5 
L 2.5 -5 
L 0 -2.5 
L -2.5 -5 
L -5 -2.5 
L -2.5 0 
L -5 2.5 
z
"/>
    </defs>
    <g clip-path="url(#p44eb28202f)">
     <use xlink:href="#C5_0_d329e443b5" x="531.57735" y="83.726429" style="fill: #8c564b"/>
    </g>
    <g clip-path="url(#p44eb28202f)">
     <use xlink:href="#C5_0_d329e443b5" x="531.866185" y="88.885952" style="fill: #8c564b"/>
    </g>
    <g clip-path="url(#p44eb28202f)">
     <use xlink:href="#C5_0_d329e443b5" x="532.412701" y="128.098333" style="fill: #8c564b"/>
    </g>
    <g clip-path="url(#p44eb28202f)">
     <use xlink:href="#C5_0_d329e443b5" x="536.032056" y="104.364524" style="fill: #8c564b"/>
    </g>
   </g>
  </g>
 </g>
 <defs>
  <clipPath id="p44eb28202f">
   <rect x="50.314062" y="12.525" width="523.46" height="173.36"/>
  </clipPath>
 </defs>
</svg>
