<?xml version="1.0" encoding="utf-8" standalone="no"?>
<!DOCTYPE svg PUBLIC "-//W3C//DTD SVG 1.1//EN"
  "http://www.w3.org/Graphics/SVG/1.1/DTD/svg11.dtd">
<svg xmlns:xlink="http://www.w3.org/1999/xlink" width="566.095625pt" height="163.519062pt" viewBox="0 0 566.095625 163.519062" xmlns="http://www.w3.org/2000/svg" version="1.1">
 <metadata>
  <rdf:RDF xmlns:dc="http://purl.org/dc/elements/1.1/" xmlns:cc="http://creativecommons.org/ns#" xmlns:rdf="http://www.w3.org/1999/02/22-rdf-syntax-ns#">
   <cc:Work>
    <dc:type rdf:resource="http://purl.org/dc/dcmitype/StillImage"/>
    <dc:date>2024-10-19T11:25:43.885062</dc:date>
    <dc:format>image/svg+xml</dc:format>
    <dc:creator>
     <cc:Agent>
      <dc:title>Matplotlib v3.7.2, https://matplotlib.org/</dc:title>
     </cc:Agent>
    </dc:creator>
   </cc:Work>
  </rdf:RDF>
 </metadata>
 <defs>
  <style type="text/css">*{stroke-linejoin: round; stroke-linecap: butt}</style>
 </defs>
 <g id="figure_1">
  <g id="patch_1">
   <path d="M 0 163.519062 
L 566.095625 163.519062 
L 566.095625 0 
L 0 0 
z
" style="fill: #ffffff"/>
  </g>
  <g id="axes_1">
   <g id="patch_2">
    <path d="M 56.695625 118.08 
L 558.895625 118.08 
L 558.895625 7.2 
L 56.695625 7.2 
z
" style="fill: #ffffff"/>
   </g>
   <g id="PolyCollection_1"/>
   <g id="PolyCollection_2"/>
   <g id="PolyCollection_3"/>
   <g id="PolyCollection_4"/>
   <g id="PathCollection_1">
    <defs>
     <path id="C0_0_a36234ec4d" d="M 0 3 
C 0.795609 3 1.55874 2.683901 2.12132 2.12132 
C 2.683901 1.55874 3 0.795609 3 -0 
C 3 -0.795609 2.683901 -1.55874 2.12132 -2.12132 
C 1.55874 -2.683901 0.795609 -3 0 -3 
C -0.795609 -3 -1.55874 -2.683901 -2.12132 -2.12132 
C -2.683901 -1.55874 -3 -0.795609 -3 0 
C -3 0.795609 -2.683901 1.55874 -2.12132 2.12132 
C -1.55874 2.683901 -0.795609 3 0 3 
z
"/>
    </defs>
    <g clip-path="url(#p93135c4aec)">
     <use xlink:href="#C0_0_a36234ec4d" x="79.522898" y="35.798752" style="fill: #1f77b4; fill-opacity: 0.5; stroke: #ffffff; stroke-opacity: 0.5; stroke-width: 0.48"/>
    </g>
    <g clip-path="url(#p93135c4aec)">
     <use xlink:href="#C0_0_a36234ec4d" x="170.831989" y="56.408168" style="fill: #1f77b4; fill-opacity: 0.5; stroke: #ffffff; stroke-opacity: 0.5; stroke-width: 0.48"/>
    </g>
    <g clip-path="url(#p93135c4aec)">
     <use xlink:href="#C0_0_a36234ec4d" x="262.14108" y="71.600141" style="fill: #1f77b4; fill-opacity: 0.5; stroke: #ffffff; stroke-opacity: 0.5; stroke-width: 0.48"/>
    </g>
    <g clip-path="url(#p93135c4aec)">
     <use xlink:href="#C0_0_a36234ec4d" x="353.45017" y="55.694878" style="fill: #1f77b4; fill-opacity: 0.5; stroke: #ffffff; stroke-opacity: 0.5; stroke-width: 0.48"/>
    </g>
    <g clip-path="url(#p93135c4aec)">
     <use xlink:href="#C0_0_a36234ec4d" x="444.759261" y="69.486514" style="fill: #1f77b4; fill-opacity: 0.5; stroke: #ffffff; stroke-opacity: 0.5; stroke-width: 0.48"/>
    </g>
    <g clip-path="url(#p93135c4aec)">
     <use xlink:href="#C0_0_a36234ec4d" x="536.068352" y="92.487867" style="fill: #1f77b4; fill-opacity: 0.5; stroke: #ffffff; stroke-opacity: 0.5; stroke-width: 0.48"/>
    </g>
    <g clip-path="url(#p93135c4aec)">
     <use xlink:href="#C0_0_a36234ec4d" x="79.522898" y="32.202373" style="fill: #1f77b4; fill-opacity: 0.5; stroke: #ffffff; stroke-opacity: 0.5; stroke-width: 0.48"/>
    </g>
    <g clip-path="url(#p93135c4aec)">
     <use xlink:href="#C0_0_a36234ec4d" x="170.831989" y="38.676427" style="fill: #1f77b4; fill-opacity: 0.5; stroke: #ffffff; stroke-opacity: 0.5; stroke-width: 0.48"/>
    </g>
    <g clip-path="url(#p93135c4aec)">
     <use xlink:href="#C0_0_a36234ec4d" x="262.14108" y="67.784625" style="fill: #1f77b4; fill-opacity: 0.5; stroke: #ffffff; stroke-opacity: 0.5; stroke-width: 0.48"/>
    </g>
    <g clip-path="url(#p93135c4aec)">
     <use xlink:href="#C0_0_a36234ec4d" x="353.45017" y="59.980692" style="fill: #1f77b4; fill-opacity: 0.5; stroke: #ffffff; stroke-opacity: 0.5; stroke-width: 0.48"/>
    </g>
    <g clip-path="url(#p93135c4aec)">
     <use xlink:href="#C0_0_a36234ec4d" x="444.759261" y="71.161599" style="fill: #1f77b4; fill-opacity: 0.5; stroke: #ffffff; stroke-opacity: 0.5; stroke-width: 0.48"/>
    </g>
    <g clip-path="url(#p93135c4aec)">
     <use xlink:href="#C0_0_a36234ec4d" x="536.068352" y="73.312286" style="fill: #1f77b4; fill-opacity: 0.5; stroke: #ffffff; stroke-opacity: 0.5; stroke-width: 0.48"/>
    </g>
    <g clip-path="url(#p93135c4aec)">
     <use xlink:href="#C0_0_a36234ec4d" x="79.522898" y="37.858847" style="fill: #1f77b4; fill-opacity: 0.5; stroke: #ffffff; stroke-opacity: 0.5; stroke-width: 0.48"/>
    </g>
    <g clip-path="url(#p93135c4aec)">
     <use xlink:href="#C0_0_a36234ec4d" x="170.831989" y="47.922838" style="fill: #1f77b4; fill-opacity: 0.5; stroke: #ffffff; stroke-opacity: 0.5; stroke-width: 0.48"/>
    </g>
    <g clip-path="url(#p93135c4aec)">
     <use xlink:href="#C0_0_a36234ec4d" x="262.14108" y="76.269955" style="fill: #1f77b4; fill-opacity: 0.5; stroke: #ffffff; stroke-opacity: 0.5; stroke-width: 0.48"/>
    </g>
    <g clip-path="url(#p93135c4aec)">
     <use xlink:href="#C0_0_a36234ec4d" x="353.45017" y="65.376385" style="fill: #1f77b4; fill-opacity: 0.5; stroke: #ffffff; stroke-opacity: 0.5; stroke-width: 0.48"/>
    </g>
    <g clip-path="url(#p93135c4aec)">
     <use xlink:href="#C0_0_a36234ec4d" x="444.759261" y="65.141162" style="fill: #1f77b4; fill-opacity: 0.5; stroke: #ffffff; stroke-opacity: 0.5; stroke-width: 0.48"/>
    </g>
    <g clip-path="url(#p93135c4aec)">
     <use xlink:href="#C0_0_a36234ec4d" x="536.068352" y="80.776564" style="fill: #1f77b4; fill-opacity: 0.5; stroke: #ffffff; stroke-opacity: 0.5; stroke-width: 0.48"/>
    </g>
    <g clip-path="url(#p93135c4aec)">
     <use xlink:href="#C0_0_a36234ec4d" x="79.522898" y="37.858847" style="fill: #1f77b4; fill-opacity: 0.5; stroke: #ffffff; stroke-opacity: 0.5; stroke-width: 0.48"/>
    </g>
    <g clip-path="url(#p93135c4aec)">
     <use xlink:href="#C0_0_a36234ec4d" x="170.831989" y="44.696865" style="fill: #1f77b4; fill-opacity: 0.5; stroke: #ffffff; stroke-opacity: 0.5; stroke-width: 0.48"/>
    </g>
    <g clip-path="url(#p93135c4aec)">
     <use xlink:href="#C0_0_a36234ec4d" x="262.14108" y="64.558652" style="fill: #1f77b4; fill-opacity: 0.5; stroke: #ffffff; stroke-opacity: 0.5; stroke-width: 0.48"/>
    </g>
    <g clip-path="url(#p93135c4aec)">
     <use xlink:href="#C0_0_a36234ec4d" x="353.45017" y="57.305472" style="fill: #1f77b4; fill-opacity: 0.5; stroke: #ffffff; stroke-opacity: 0.5; stroke-width: 0.48"/>
    </g>
    <g clip-path="url(#p93135c4aec)">
     <use xlink:href="#C0_0_a36234ec4d" x="444.759261" y="72.982521" style="fill: #1f77b4; fill-opacity: 0.5; stroke: #ffffff; stroke-opacity: 0.5; stroke-width: 0.48"/>
    </g>
    <g clip-path="url(#p93135c4aec)">
     <use xlink:href="#C0_0_a36234ec4d" x="536.068352" y="80.776564" style="fill: #1f77b4; fill-opacity: 0.5; stroke: #ffffff; stroke-opacity: 0.5; stroke-width: 0.48"/>
    </g>
    <g clip-path="url(#p93135c4aec)">
     <use xlink:href="#C0_0_a36234ec4d" x="79.522898" y="36.211535" style="fill: #ff7f0e; fill-opacity: 0.5; stroke: #ffffff; stroke-opacity: 0.5; stroke-width: 0.48"/>
    </g>
    <g clip-path="url(#p93135c4aec)">
     <use xlink:href="#C0_0_a36234ec4d" x="170.831989" y="53.341947" style="fill: #ff7f0e; fill-opacity: 0.5; stroke: #ffffff; stroke-opacity: 0.5; stroke-width: 0.48"/>
    </g>
    <g clip-path="url(#p93135c4aec)">
     <use xlink:href="#C0_0_a36234ec4d" x="262.14108" y="65.86704" style="fill: #ff7f0e; fill-opacity: 0.5; stroke: #ffffff; stroke-opacity: 0.5; stroke-width: 0.48"/>
    </g>
    <g clip-path="url(#p93135c4aec)">
     <use xlink:href="#C0_0_a36234ec4d" x="353.45017" y="61.144313" style="fill: #ff7f0e; fill-opacity: 0.5; stroke: #ffffff; stroke-opacity: 0.5; stroke-width: 0.48"/>
    </g>
    <g clip-path="url(#p93135c4aec)">
     <use xlink:href="#C0_0_a36234ec4d" x="444.759261" y="82.482388" style="fill: #ff7f0e; fill-opacity: 0.5; stroke: #ffffff; stroke-opacity: 0.5; stroke-width: 0.48"/>
    </g>
    <g clip-path="url(#p93135c4aec)">
     <use xlink:href="#C0_0_a36234ec4d" x="536.068352" y="109.854641" style="fill: #ff7f0e; fill-opacity: 0.5; stroke: #ffffff; stroke-opacity: 0.5; stroke-width: 0.48"/>
    </g>
    <g clip-path="url(#p93135c4aec)">
     <use xlink:href="#C0_0_a36234ec4d" x="79.522898" y="30.855515" style="fill: #ff7f0e; fill-opacity: 0.5; stroke: #ffffff; stroke-opacity: 0.5; stroke-width: 0.48"/>
    </g>
    <g clip-path="url(#p93135c4aec)">
     <use xlink:href="#C0_0_a36234ec4d" x="170.831989" y="52.632475" style="fill: #ff7f0e; fill-opacity: 0.5; stroke: #ffffff; stroke-opacity: 0.5; stroke-width: 0.48"/>
    </g>
    <g clip-path="url(#p93135c4aec)">
     <use xlink:href="#C0_0_a36234ec4d" x="262.14108" y="99.548389" style="fill: #ff7f0e; fill-opacity: 0.5; stroke: #ffffff; stroke-opacity: 0.5; stroke-width: 0.48"/>
    </g>
    <g clip-path="url(#p93135c4aec)">
     <use xlink:href="#C0_0_a36234ec4d" x="353.45017" y="56.19731" style="fill: #ff7f0e; fill-opacity: 0.5; stroke: #ffffff; stroke-opacity: 0.5; stroke-width: 0.48"/>
    </g>
    <g clip-path="url(#p93135c4aec)">
     <use xlink:href="#C0_0_a36234ec4d" x="444.759261" y="82.482388" style="fill: #ff7f0e; fill-opacity: 0.5; stroke: #ffffff; stroke-opacity: 0.5; stroke-width: 0.48"/>
    </g>
    <g clip-path="url(#p93135c4aec)">
     <use xlink:href="#C0_0_a36234ec4d" x="79.522898" y="30.855515" style="fill: #ff7f0e; fill-opacity: 0.5; stroke: #ffffff; stroke-opacity: 0.5; stroke-width: 0.48"/>
    </g>
    <g clip-path="url(#p93135c4aec)">
     <use xlink:href="#C0_0_a36234ec4d" x="170.831989" y="60.096754" style="fill: #ff7f0e; fill-opacity: 0.5; stroke: #ffffff; stroke-opacity: 0.5; stroke-width: 0.48"/>
    </g>
    <g clip-path="url(#p93135c4aec)">
     <use xlink:href="#C0_0_a36234ec4d" x="262.14108" y="70.536854" style="fill: #ff7f0e; fill-opacity: 0.5; stroke: #ffffff; stroke-opacity: 0.5; stroke-width: 0.48"/>
    </g>
    <g clip-path="url(#p93135c4aec)">
     <use xlink:href="#C0_0_a36234ec4d" x="353.45017" y="71.834564" style="fill: #ff7f0e; fill-opacity: 0.5; stroke: #ffffff; stroke-opacity: 0.5; stroke-width: 0.48"/>
    </g>
    <g clip-path="url(#p93135c4aec)">
     <use xlink:href="#C0_0_a36234ec4d" x="444.759261" y="90.967718" style="fill: #ff7f0e; fill-opacity: 0.5; stroke: #ffffff; stroke-opacity: 0.5; stroke-width: 0.48"/>
    </g>
    <g clip-path="url(#p93135c4aec)">
     <use xlink:href="#C0_0_a36234ec4d" x="79.522898" y="36.652128" style="fill: #ff7f0e; fill-opacity: 0.5; stroke: #ffffff; stroke-opacity: 0.5; stroke-width: 0.48"/>
    </g>
    <g clip-path="url(#p93135c4aec)">
     <use xlink:href="#C0_0_a36234ec4d" x="170.831989" y="52.632475" style="fill: #ff7f0e; fill-opacity: 0.5; stroke: #ffffff; stroke-opacity: 0.5; stroke-width: 0.48"/>
    </g>
    <g clip-path="url(#p93135c4aec)">
     <use xlink:href="#C0_0_a36234ec4d" x="262.14108" y="76.557292" style="fill: #ff7f0e; fill-opacity: 0.5; stroke: #ffffff; stroke-opacity: 0.5; stroke-width: 0.48"/>
    </g>
    <g clip-path="url(#p93135c4aec)">
     <use xlink:href="#C0_0_a36234ec4d" x="353.45017" y="71.834564" style="fill: #ff7f0e; fill-opacity: 0.5; stroke: #ffffff; stroke-opacity: 0.5; stroke-width: 0.48"/>
    </g>
    <g clip-path="url(#p93135c4aec)">
     <use xlink:href="#C0_0_a36234ec4d" x="444.759261" y="67.976621" style="fill: #ff7f0e; fill-opacity: 0.5; stroke: #ffffff; stroke-opacity: 0.5; stroke-width: 0.48"/>
    </g>
    <g clip-path="url(#p93135c4aec)">
     <use xlink:href="#C0_0_a36234ec4d" x="536.068352" y="109.854641" style="fill: #ff7f0e; fill-opacity: 0.5; stroke: #ffffff; stroke-opacity: 0.5; stroke-width: 0.48"/>
    </g>
    <g clip-path="url(#p93135c4aec)">
     <use xlink:href="#C0_0_a36234ec4d" x="79.522898" y="24.412199" style="fill: #2ca02c; fill-opacity: 0.5; stroke: #ffffff; stroke-opacity: 0.5; stroke-width: 0.48"/>
    </g>
    <g clip-path="url(#p93135c4aec)">
     <use xlink:href="#C0_0_a36234ec4d" x="170.831989" y="27.376285" style="fill: #2ca02c; fill-opacity: 0.5; stroke: #ffffff; stroke-opacity: 0.5; stroke-width: 0.48"/>
    </g>
    <g clip-path="url(#p93135c4aec)">
     <use xlink:href="#C0_0_a36234ec4d" x="262.14108" y="28.460575" style="fill: #2ca02c; fill-opacity: 0.5; stroke: #ffffff; stroke-opacity: 0.5; stroke-width: 0.48"/>
    </g>
    <g clip-path="url(#p93135c4aec)">
     <use xlink:href="#C0_0_a36234ec4d" x="353.45017" y="37.050608" style="fill: #2ca02c; fill-opacity: 0.5; stroke: #ffffff; stroke-opacity: 0.5; stroke-width: 0.48"/>
    </g>
    <g clip-path="url(#p93135c4aec)">
     <use xlink:href="#C0_0_a36234ec4d" x="444.759261" y="51.14881" style="fill: #2ca02c; fill-opacity: 0.5; stroke: #ffffff; stroke-opacity: 0.5; stroke-width: 0.48"/>
    </g>
    <g clip-path="url(#p93135c4aec)">
     <use xlink:href="#C0_0_a36234ec4d" x="536.068352" y="62.114845" style="fill: #2ca02c; fill-opacity: 0.5; stroke: #ffffff; stroke-opacity: 0.5; stroke-width: 0.48"/>
    </g>
    <g clip-path="url(#p93135c4aec)">
     <use xlink:href="#C0_0_a36234ec4d" x="79.522898" y="25.700446" style="fill: #2ca02c; fill-opacity: 0.5; stroke: #ffffff; stroke-opacity: 0.5; stroke-width: 0.48"/>
    </g>
    <g clip-path="url(#p93135c4aec)">
     <use xlink:href="#C0_0_a36234ec4d" x="170.831989" y="25.342901" style="fill: #2ca02c; fill-opacity: 0.5; stroke: #ffffff; stroke-opacity: 0.5; stroke-width: 0.48"/>
    </g>
    <g clip-path="url(#p93135c4aec)">
     <use xlink:href="#C0_0_a36234ec4d" x="262.14108" y="69.183412" style="fill: #2ca02c; fill-opacity: 0.5; stroke: #ffffff; stroke-opacity: 0.5; stroke-width: 0.48"/>
    </g>
    <g clip-path="url(#p93135c4aec)">
     <use xlink:href="#C0_0_a36234ec4d" x="353.45017" y="43.198264" style="fill: #2ca02c; fill-opacity: 0.5; stroke: #ffffff; stroke-opacity: 0.5; stroke-width: 0.48"/>
    </g>
    <g clip-path="url(#p93135c4aec)">
     <use xlink:href="#C0_0_a36234ec4d" x="444.759261" y="57.169248" style="fill: #2ca02c; fill-opacity: 0.5; stroke: #ffffff; stroke-opacity: 0.5; stroke-width: 0.48"/>
    </g>
    <g clip-path="url(#p93135c4aec)">
     <use xlink:href="#C0_0_a36234ec4d" x="536.068352" y="65.930361" style="fill: #2ca02c; fill-opacity: 0.5; stroke: #ffffff; stroke-opacity: 0.5; stroke-width: 0.48"/>
    </g>
    <g clip-path="url(#p93135c4aec)">
     <use xlink:href="#C0_0_a36234ec4d" x="79.522898" y="19.432344" style="fill: #2ca02c; fill-opacity: 0.5; stroke: #ffffff; stroke-opacity: 0.5; stroke-width: 0.48"/>
    </g>
    <g clip-path="url(#p93135c4aec)">
     <use xlink:href="#C0_0_a36234ec4d" x="170.831989" y="26.539078" style="fill: #2ca02c; fill-opacity: 0.5; stroke: #ffffff; stroke-opacity: 0.5; stroke-width: 0.48"/>
    </g>
    <g clip-path="url(#p93135c4aec)">
     <use xlink:href="#C0_0_a36234ec4d" x="262.14108" y="46.192315" style="fill: #2ca02c; fill-opacity: 0.5; stroke: #ffffff; stroke-opacity: 0.5; stroke-width: 0.48"/>
    </g>
    <g clip-path="url(#p93135c4aec)">
     <use xlink:href="#C0_0_a36234ec4d" x="353.45017" y="37.825785" style="fill: #2ca02c; fill-opacity: 0.5; stroke: #ffffff; stroke-opacity: 0.5; stroke-width: 0.48"/>
    </g>
    <g clip-path="url(#p93135c4aec)">
     <use xlink:href="#C0_0_a36234ec4d" x="444.759261" y="51.14881" style="fill: #2ca02c; fill-opacity: 0.5; stroke: #ffffff; stroke-opacity: 0.5; stroke-width: 0.48"/>
    </g>
    <g clip-path="url(#p93135c4aec)">
     <use xlink:href="#C0_0_a36234ec4d" x="536.068352" y="85.105942" style="fill: #2ca02c; fill-opacity: 0.5; stroke: #ffffff; stroke-opacity: 0.5; stroke-width: 0.48"/>
    </g>
    <g clip-path="url(#p93135c4aec)">
     <use xlink:href="#C0_0_a36234ec4d" x="79.522898" y="19.432344" style="fill: #2ca02c; fill-opacity: 0.5; stroke: #ffffff; stroke-opacity: 0.5; stroke-width: 0.48"/>
    </g>
    <g clip-path="url(#p93135c4aec)">
     <use xlink:href="#C0_0_a36234ec4d" x="170.831989" y="31.623309" style="fill: #2ca02c; fill-opacity: 0.5; stroke: #ffffff; stroke-opacity: 0.5; stroke-width: 0.48"/>
    </g>
    <g clip-path="url(#p93135c4aec)">
     <use xlink:href="#C0_0_a36234ec4d" x="262.14108" y="54.677645" style="fill: #2ca02c; fill-opacity: 0.5; stroke: #ffffff; stroke-opacity: 0.5; stroke-width: 0.48"/>
    </g>
    <g clip-path="url(#p93135c4aec)">
     <use xlink:href="#C0_0_a36234ec4d" x="353.45017" y="39.8995" style="fill: #2ca02c; fill-opacity: 0.5; stroke: #ffffff; stroke-opacity: 0.5; stroke-width: 0.48"/>
    </g>
    <g clip-path="url(#p93135c4aec)">
     <use xlink:href="#C0_0_a36234ec4d" x="444.759261" y="54.964326" style="fill: #2ca02c; fill-opacity: 0.5; stroke: #ffffff; stroke-opacity: 0.5; stroke-width: 0.48"/>
    </g>
    <g clip-path="url(#p93135c4aec)">
     <use xlink:href="#C0_0_a36234ec4d" x="536.068352" y="73.39464" style="fill: #2ca02c; fill-opacity: 0.5; stroke: #ffffff; stroke-opacity: 0.5; stroke-width: 0.48"/>
    </g>
    <g clip-path="url(#p93135c4aec)">
     <use xlink:href="#C0_0_a36234ec4d" x="79.522898" y="22.65287" style="fill: #d62728; fill-opacity: 0.5; stroke: #ffffff; stroke-opacity: 0.5; stroke-width: 0.48"/>
    </g>
    <g clip-path="url(#p93135c4aec)">
     <use xlink:href="#C0_0_a36234ec4d" x="170.831989" y="31.771274" style="fill: #d62728; fill-opacity: 0.5; stroke: #ffffff; stroke-opacity: 0.5; stroke-width: 0.48"/>
    </g>
    <g clip-path="url(#p93135c4aec)">
     <use xlink:href="#C0_0_a36234ec4d" x="262.14108" y="27.986176" style="fill: #d62728; fill-opacity: 0.5; stroke: #ffffff; stroke-opacity: 0.5; stroke-width: 0.48"/>
    </g>
    <g clip-path="url(#p93135c4aec)">
     <use xlink:href="#C0_0_a36234ec4d" x="353.45017" y="25.486721" style="fill: #d62728; fill-opacity: 0.5; stroke: #ffffff; stroke-opacity: 0.5; stroke-width: 0.48"/>
    </g>
    <g clip-path="url(#p93135c4aec)">
     <use xlink:href="#C0_0_a36234ec4d" x="444.759261" y="23.910689" style="fill: #d62728; fill-opacity: 0.5; stroke: #ffffff; stroke-opacity: 0.5; stroke-width: 0.48"/>
    </g>
    <g clip-path="url(#p93135c4aec)">
     <use xlink:href="#C0_0_a36234ec4d" x="536.068352" y="24.105969" style="fill: #d62728; fill-opacity: 0.5; stroke: #ffffff; stroke-opacity: 0.5; stroke-width: 0.48"/>
    </g>
    <g clip-path="url(#p93135c4aec)">
     <use xlink:href="#C0_0_a36234ec4d" x="79.522898" y="26.938684" style="fill: #d62728; fill-opacity: 0.5; stroke: #ffffff; stroke-opacity: 0.5; stroke-width: 0.48"/>
    </g>
    <g clip-path="url(#p93135c4aec)">
     <use xlink:href="#C0_0_a36234ec4d" x="170.831989" y="27.019552" style="fill: #d62728; fill-opacity: 0.5; stroke: #ffffff; stroke-opacity: 0.5; stroke-width: 0.48"/>
    </g>
    <g clip-path="url(#p93135c4aec)">
     <use xlink:href="#C0_0_a36234ec4d" x="262.14108" y="32.65599" style="fill: #d62728; fill-opacity: 0.5; stroke: #ffffff; stroke-opacity: 0.5; stroke-width: 0.48"/>
    </g>
    <g clip-path="url(#p93135c4aec)">
     <use xlink:href="#C0_0_a36234ec4d" x="353.45017" y="25.486721" style="fill: #d62728; fill-opacity: 0.5; stroke: #ffffff; stroke-opacity: 0.5; stroke-width: 0.48"/>
    </g>
    <g clip-path="url(#p93135c4aec)">
     <use xlink:href="#C0_0_a36234ec4d" x="444.759261" y="21.705767" style="fill: #d62728; fill-opacity: 0.5; stroke: #ffffff; stroke-opacity: 0.5; stroke-width: 0.48"/>
    </g>
    <g clip-path="url(#p93135c4aec)">
     <use xlink:href="#C0_0_a36234ec4d" x="536.068352" y="18.976194" style="fill: #d62728; fill-opacity: 0.5; stroke: #ffffff; stroke-opacity: 0.5; stroke-width: 0.48"/>
    </g>
    <g clip-path="url(#p93135c4aec)">
     <use xlink:href="#C0_0_a36234ec4d" x="79.522898" y="23.176082" style="fill: #d62728; fill-opacity: 0.5; stroke: #ffffff; stroke-opacity: 0.5; stroke-width: 0.48"/>
    </g>
    <g clip-path="url(#p93135c4aec)">
     <use xlink:href="#C0_0_a36234ec4d" x="170.831989" y="30.966275" style="fill: #d62728; fill-opacity: 0.5; stroke: #ffffff; stroke-opacity: 0.5; stroke-width: 0.48"/>
    </g>
    <g clip-path="url(#p93135c4aec)">
     <use xlink:href="#C0_0_a36234ec4d" x="262.14108" y="47.161757" style="fill: #d62728; fill-opacity: 0.5; stroke: #ffffff; stroke-opacity: 0.5; stroke-width: 0.48"/>
    </g>
    <g clip-path="url(#p93135c4aec)">
     <use xlink:href="#C0_0_a36234ec4d" x="353.45017" y="23.137259" style="fill: #d62728; fill-opacity: 0.5; stroke: #ffffff; stroke-opacity: 0.5; stroke-width: 0.48"/>
    </g>
    <g clip-path="url(#p93135c4aec)">
     <use xlink:href="#C0_0_a36234ec4d" x="444.759261" y="21.189015" style="fill: #d62728; fill-opacity: 0.5; stroke: #ffffff; stroke-opacity: 0.5; stroke-width: 0.48"/>
    </g>
    <g clip-path="url(#p93135c4aec)">
     <use xlink:href="#C0_0_a36234ec4d" x="536.068352" y="16.612645" style="fill: #d62728; fill-opacity: 0.5; stroke: #ffffff; stroke-opacity: 0.5; stroke-width: 0.48"/>
    </g>
    <g clip-path="url(#p93135c4aec)">
     <use xlink:href="#C0_0_a36234ec4d" x="79.522898" y="20.918247" style="fill: #d62728; fill-opacity: 0.5; stroke: #ffffff; stroke-opacity: 0.5; stroke-width: 0.48"/>
    </g>
    <g clip-path="url(#p93135c4aec)">
     <use xlink:href="#C0_0_a36234ec4d" x="170.831989" y="33.480583" style="fill: #d62728; fill-opacity: 0.5; stroke: #ffffff; stroke-opacity: 0.5; stroke-width: 0.48"/>
    </g>
    <g clip-path="url(#p93135c4aec)">
     <use xlink:href="#C0_0_a36234ec4d" x="262.14108" y="15.68533" style="fill: #d62728; fill-opacity: 0.5; stroke: #ffffff; stroke-opacity: 0.5; stroke-width: 0.48"/>
    </g>
    <g clip-path="url(#p93135c4aec)">
     <use xlink:href="#C0_0_a36234ec4d" x="353.45017" y="25.905283" style="fill: #d62728; fill-opacity: 0.5; stroke: #ffffff; stroke-opacity: 0.5; stroke-width: 0.48"/>
    </g>
    <g clip-path="url(#p93135c4aec)">
     <use xlink:href="#C0_0_a36234ec4d" x="444.759261" y="15.816537" style="fill: #d62728; fill-opacity: 0.5; stroke: #ffffff; stroke-opacity: 0.5; stroke-width: 0.48"/>
    </g>
    <g clip-path="url(#p93135c4aec)">
     <use xlink:href="#C0_0_a36234ec4d" x="536.068352" y="16.410446" style="fill: #d62728; fill-opacity: 0.5; stroke: #ffffff; stroke-opacity: 0.5; stroke-width: 0.48"/>
    </g>
   </g>
   <g id="matplotlib.axis_1">
    <g id="xtick_1">
     <g id="line2d_1">
      <defs>
       <path id="md9d46dfc8e" d="M 0 0 
L 0 3.5 
" style="stroke: #000000; stroke-width: 0.8"/>
      </defs>
      <g>
       <use xlink:href="#md9d46dfc8e" x="79.522898" y="118.08" style="stroke: #000000; stroke-width: 0.8"/>
      </g>
     </g>
     <g id="text_1">
      <!-- 1 -->
      <g transform="translate(75.675632 135.73) scale(0.15 -0.15)">
       <defs>
        <path id="MyriadPro-Regular-31" d="M 1510 0 
L 2054 0 
L 2054 4160 
L 1574 4160 
L 666 3674 
L 774 3245 
L 1498 3635 
L 1510 3635 
L 1510 0 
z
" transform="scale(0.015625)"/>
       </defs>
       <use xlink:href="#MyriadPro-Regular-31"/>
      </g>
     </g>
    </g>
    <g id="xtick_2">
     <g id="line2d_2">
      <g>
       <use xlink:href="#md9d46dfc8e" x="170.831989" y="118.08" style="stroke: #000000; stroke-width: 0.8"/>
      </g>
     </g>
     <g id="text_2">
      <!-- 2 -->
      <g transform="translate(166.984723 135.73) scale(0.15 -0.15)">
       <defs>
        <path id="MyriadPro-Regular-32" d="M 2944 0 
L 2944 467 
L 1082 467 
L 1082 480 
L 1408 787 
C 2285 1632 2842 2253 2842 3021 
C 2842 3616 2464 4230 1568 4230 
C 1094 4230 678 4045 397 3808 
L 576 3411 
C 768 3571 1082 3763 1459 3763 
C 2080 3763 2278 3373 2278 2950 
C 2278 2323 1792 1786 730 774 
L 288 346 
L 288 0 
L 2944 0 
z
" transform="scale(0.015625)"/>
       </defs>
       <use xlink:href="#MyriadPro-Regular-32"/>
      </g>
     </g>
    </g>
    <g id="xtick_3">
     <g id="line2d_3">
      <g>
       <use xlink:href="#md9d46dfc8e" x="262.14108" y="118.08" style="stroke: #000000; stroke-width: 0.8"/>
      </g>
     </g>
     <g id="text_3">
      <!-- 3 -->
      <g transform="translate(258.293814 135.73) scale(0.15 -0.15)">
       <defs>
        <path id="MyriadPro-Regular-33" d="M 269 211 
C 474 77 883 -70 1350 -70 
C 2342 -70 2867 512 2867 1178 
C 2861 1760 2451 2144 1939 2240 
L 1939 2253 
C 2445 2438 2707 2803 2707 3238 
C 2707 3744 2336 4230 1517 4230 
C 1069 4230 646 4070 422 3910 
L 576 3501 
C 755 3629 1075 3776 1408 3776 
C 1926 3776 2138 3482 2138 3149 
C 2138 2656 1619 2445 1210 2445 
L 896 2445 
L 896 2022 
L 1210 2022 
C 1754 2022 2278 1773 2285 1190 
C 2291 838 2061 384 1344 384 
C 947 384 582 544 422 640 
L 269 211 
z
" transform="scale(0.015625)"/>
       </defs>
       <use xlink:href="#MyriadPro-Regular-33"/>
      </g>
     </g>
    </g>
    <g id="xtick_4">
     <g id="line2d_4">
      <g>
       <use xlink:href="#md9d46dfc8e" x="353.45017" y="118.08" style="stroke: #000000; stroke-width: 0.8"/>
      </g>
     </g>
     <g id="text_4">
      <!-- 4 -->
      <g transform="translate(349.602905 135.73) scale(0.15 -0.15)">
       <defs>
        <path id="MyriadPro-Regular-34" d="M 2560 0 
L 2560 1139 
L 3142 1139 
L 3142 1574 
L 2560 1574 
L 2560 4160 
L 1952 4160 
L 96 1504 
L 96 1139 
L 2029 1139 
L 2029 0 
L 2560 0 
z
M 666 1574 
L 666 1587 
L 1683 3002 
C 1798 3194 1901 3373 2029 3616 
L 2048 3616 
C 2035 3398 2029 3181 2029 2963 
L 2029 1574 
L 666 1574 
z
" transform="scale(0.015625)"/>
       </defs>
       <use xlink:href="#MyriadPro-Regular-34"/>
      </g>
     </g>
    </g>
    <g id="xtick_5">
     <g id="line2d_5">
      <g>
       <use xlink:href="#md9d46dfc8e" x="444.759261" y="118.08" style="stroke: #000000; stroke-width: 0.8"/>
      </g>
     </g>
     <g id="text_5">
      <!-- 5 -->
      <g transform="translate(440.911996 135.73) scale(0.15 -0.15)">
       <defs>
        <path id="MyriadPro-Regular-35" d="M 2771 4160 
L 781 4160 
L 512 2163 
C 666 2182 851 2202 1094 2202 
C 1920 2202 2285 1824 2285 1286 
C 2291 730 1830 384 1306 384 
C 922 384 582 512 410 614 
L 269 186 
C 474 58 851 -70 1306 -70 
C 2208 -70 2854 538 2854 1350 
C 2854 1869 2586 2234 2259 2413 
C 2003 2573 1690 2637 1363 2637 
C 1210 2637 1120 2630 1024 2618 
L 1184 3686 
L 2771 3686 
L 2771 4160 
z
" transform="scale(0.015625)"/>
       </defs>
       <use xlink:href="#MyriadPro-Regular-35"/>
      </g>
     </g>
    </g>
    <g id="xtick_6">
     <g id="line2d_6">
      <g>
       <use xlink:href="#md9d46dfc8e" x="536.068352" y="118.08" style="stroke: #000000; stroke-width: 0.8"/>
      </g>
     </g>
     <g id="text_6">
      <!-- 6 -->
      <g transform="translate(532.221087 135.73) scale(0.15 -0.15)">
       <defs>
        <path id="MyriadPro-Regular-36" d="M 2662 4224 
C 2560 4224 2419 4218 2253 4192 
C 1728 4128 1267 3917 922 3578 
C 506 3168 218 2522 218 1702 
C 218 621 800 -70 1683 -70 
C 2554 -70 3072 634 3072 1402 
C 3072 2208 2554 2746 1818 2746 
C 1357 2746 1005 2528 806 2259 
L 794 2259 
C 890 2950 1350 3590 2240 3731 
C 2400 3757 2547 3770 2662 3763 
L 2662 4224 
z
M 1696 365 
C 1101 365 781 877 774 1562 
C 774 1664 800 1741 832 1805 
C 986 2112 1306 2317 1645 2317 
C 2163 2317 2502 1958 2502 1363 
C 2502 768 2176 365 1696 365 
z
" transform="scale(0.015625)"/>
       </defs>
       <use xlink:href="#MyriadPro-Regular-36"/>
      </g>
     </g>
    </g>
    <g id="text_7">
     <!-- Day -->
     <g transform="translate(295.653828 153.019062) scale(0.15 -0.15)">
      <defs>
       <path id="MyriadPro-Regular-44" d="M 486 13 
C 768 -19 1094 -38 1498 -38 
C 2336 -38 3002 179 3411 582 
C 3808 979 4032 1555 4032 2259 
C 4032 2957 3808 3456 3418 3808 
C 3040 4154 2470 4346 1670 4346 
C 1229 4346 826 4307 486 4250 
L 486 13 
z
M 1043 3846 
C 1190 3878 1408 3904 1696 3904 
C 2874 3904 3450 3258 3443 2240 
C 3443 1075 2803 410 1606 410 
C 1389 410 1184 416 1043 435 
L 1043 3846 
z
" transform="scale(0.015625)"/>
       <path id="MyriadPro-Regular-61" d="M 2643 1901 
C 2643 2515 2413 3162 1466 3162 
C 1075 3162 698 3053 442 2893 
L 570 2515 
C 787 2662 1088 2746 1382 2746 
C 2016 2752 2086 2285 2086 2035 
L 2086 1971 
C 890 1978 224 1568 224 819 
C 224 371 544 -70 1171 -70 
C 1613 -70 1946 147 2118 390 
L 2138 390 
L 2182 0 
L 2688 0 
C 2656 211 2643 474 2643 742 
L 2643 1901 
z
M 2099 1043 
C 2099 992 2093 928 2074 864 
C 1984 602 1722 346 1312 346 
C 1030 346 787 512 787 883 
C 787 1485 1485 1594 2099 1581 
L 2099 1043 
z
" transform="scale(0.015625)"/>
       <path id="MyriadPro-Regular-79" d="M 58 3098 
L 1197 243 
C 1229 173 1242 128 1242 96 
C 1242 64 1222 19 1197 -38 
C 1062 -326 877 -544 723 -666 
C 557 -806 371 -896 230 -941 
L 371 -1408 
C 512 -1382 781 -1286 1062 -1050 
C 1446 -710 1722 -173 2125 890 
L 2970 3098 
L 2374 3098 
L 1760 1280 
C 1683 1056 1619 819 1562 634 
L 1549 634 
C 1498 819 1421 1062 1344 1267 
L 672 3098 
L 58 3098 
z
" transform="scale(0.015625)"/>
      </defs>
      <use xlink:href="#MyriadPro-Regular-44"/>
      <use xlink:href="#MyriadPro-Regular-61" x="66.599991"/>
      <use xlink:href="#MyriadPro-Regular-79" x="114.799988"/>
     </g>
    </g>
   </g>
   <g id="matplotlib.axis_2">
    <g id="ytick_1">
     <g id="line2d_7">
      <defs>
       <path id="m9092c90738" d="M 0 0 
L -3.5 0 
" style="stroke: #000000; stroke-width: 0.8"/>
      </defs>
      <g>
       <use xlink:href="#m9092c90738" x="56.695625" y="118.08" style="stroke: #000000; stroke-width: 0.8"/>
      </g>
     </g>
     <g id="text_8">
      <!-- $\mathdefault{10^{-2}}$ -->
      <g transform="translate(22.095625 123.405) scale(0.15 -0.15)">
       <defs>
        <path id="MyriadPro-Regular-30" d="M 1683 4230 
C 838 4230 230 3469 230 2067 
C 243 691 800 -70 1613 -70 
C 2528 -70 3059 710 3059 2125 
C 3059 3450 2554 4230 1683 4230 
z
M 1645 3795 
C 2234 3795 2490 3123 2490 2099 
C 2490 1037 2214 365 1645 365 
C 1133 365 800 979 800 2061 
C 800 3194 1158 3795 1645 3795 
z
" transform="scale(0.015625)"/>
        <path id="MyriadPro-Regular-2212" d="M 256 1901 
L 256 1517 
L 3558 1517 
L 3558 1901 
L 256 1901 
z
" transform="scale(0.015625)"/>
       </defs>
       <use xlink:href="#MyriadPro-Regular-31" transform="translate(0 0.85)"/>
       <use xlink:href="#MyriadPro-Regular-30" transform="translate(51.299988 0.85)"/>
       <use xlink:href="#MyriadPro-Regular-2212" transform="translate(103.447085 34.734375) scale(0.7)"/>
       <use xlink:href="#MyriadPro-Regular-32" transform="translate(145.167079 34.734375) scale(0.7)"/>
      </g>
     </g>
    </g>
    <g id="ytick_2">
     <g id="line2d_8">
      <g>
       <use xlink:href="#m9092c90738" x="56.695625" y="69.892884" style="stroke: #000000; stroke-width: 0.8"/>
      </g>
     </g>
     <g id="text_9">
      <!-- $\mathdefault{10^{-1}}$ -->
      <g transform="translate(22.095625 75.217884) scale(0.15 -0.15)">
       <use xlink:href="#MyriadPro-Regular-31" transform="translate(0 0.615625)"/>
       <use xlink:href="#MyriadPro-Regular-30" transform="translate(51.299988 0.615625)"/>
       <use xlink:href="#MyriadPro-Regular-2212" transform="translate(103.447085 34.5) scale(0.7)"/>
       <use xlink:href="#MyriadPro-Regular-31" transform="translate(145.167079 34.5) scale(0.7)"/>
      </g>
     </g>
    </g>
    <g id="ytick_3">
     <g id="line2d_9">
      <g>
       <use xlink:href="#m9092c90738" x="56.695625" y="21.705767" style="stroke: #000000; stroke-width: 0.8"/>
      </g>
     </g>
     <g id="text_10">
      <!-- $\mathdefault{10^{0}}$ -->
      <g transform="translate(28.395625 27.030767) scale(0.15 -0.15)">
       <use xlink:href="#MyriadPro-Regular-31" transform="translate(0 0.85)"/>
       <use xlink:href="#MyriadPro-Regular-30" transform="translate(51.299988 0.85)"/>
       <use xlink:href="#MyriadPro-Regular-30" transform="translate(103.447085 34.734375) scale(0.7)"/>
      </g>
     </g>
    </g>
    <g id="ytick_4">
     <g id="line2d_10">
      <defs>
       <path id="m70942638c0" d="M 0 0 
L -2 0 
" style="stroke: #000000; stroke-width: 0.6"/>
      </defs>
      <g>
       <use xlink:href="#m70942638c0" x="56.695625" y="103.574233" style="stroke: #000000; stroke-width: 0.6"/>
      </g>
     </g>
    </g>
    <g id="ytick_5">
     <g id="line2d_11">
      <g>
       <use xlink:href="#m70942638c0" x="56.695625" y="95.088903" style="stroke: #000000; stroke-width: 0.6"/>
      </g>
     </g>
    </g>
    <g id="ytick_6">
     <g id="line2d_12">
      <g>
       <use xlink:href="#m70942638c0" x="56.695625" y="89.068465" style="stroke: #000000; stroke-width: 0.6"/>
      </g>
     </g>
    </g>
    <g id="ytick_7">
     <g id="line2d_13">
      <g>
       <use xlink:href="#m70942638c0" x="56.695625" y="84.398651" style="stroke: #000000; stroke-width: 0.6"/>
      </g>
     </g>
    </g>
    <g id="ytick_8">
     <g id="line2d_14">
      <g>
       <use xlink:href="#m70942638c0" x="56.695625" y="80.583135" style="stroke: #000000; stroke-width: 0.6"/>
      </g>
     </g>
    </g>
    <g id="ytick_9">
     <g id="line2d_15">
      <g>
       <use xlink:href="#m70942638c0" x="56.695625" y="77.357162" style="stroke: #000000; stroke-width: 0.6"/>
      </g>
     </g>
    </g>
    <g id="ytick_10">
     <g id="line2d_16">
      <g>
       <use xlink:href="#m70942638c0" x="56.695625" y="74.562698" style="stroke: #000000; stroke-width: 0.6"/>
      </g>
     </g>
    </g>
    <g id="ytick_11">
     <g id="line2d_17">
      <g>
       <use xlink:href="#m70942638c0" x="56.695625" y="72.097805" style="stroke: #000000; stroke-width: 0.6"/>
      </g>
     </g>
    </g>
    <g id="ytick_12">
     <g id="line2d_18">
      <g>
       <use xlink:href="#m70942638c0" x="56.695625" y="55.387116" style="stroke: #000000; stroke-width: 0.6"/>
      </g>
     </g>
    </g>
    <g id="ytick_13">
     <g id="line2d_19">
      <g>
       <use xlink:href="#m70942638c0" x="56.695625" y="46.901786" style="stroke: #000000; stroke-width: 0.6"/>
      </g>
     </g>
    </g>
    <g id="ytick_14">
     <g id="line2d_20">
      <g>
       <use xlink:href="#m70942638c0" x="56.695625" y="40.881349" style="stroke: #000000; stroke-width: 0.6"/>
      </g>
     </g>
    </g>
    <g id="ytick_15">
     <g id="line2d_21">
      <g>
       <use xlink:href="#m70942638c0" x="56.695625" y="36.211535" style="stroke: #000000; stroke-width: 0.6"/>
      </g>
     </g>
    </g>
    <g id="ytick_16">
     <g id="line2d_22">
      <g>
       <use xlink:href="#m70942638c0" x="56.695625" y="32.396019" style="stroke: #000000; stroke-width: 0.6"/>
      </g>
     </g>
    </g>
    <g id="ytick_17">
     <g id="line2d_23">
      <g>
       <use xlink:href="#m70942638c0" x="56.695625" y="29.170046" style="stroke: #000000; stroke-width: 0.6"/>
      </g>
     </g>
    </g>
    <g id="ytick_18">
     <g id="line2d_24">
      <g>
       <use xlink:href="#m70942638c0" x="56.695625" y="26.375581" style="stroke: #000000; stroke-width: 0.6"/>
      </g>
     </g>
    </g>
    <g id="ytick_19">
     <g id="line2d_25">
      <g>
       <use xlink:href="#m70942638c0" x="56.695625" y="23.910689" style="stroke: #000000; stroke-width: 0.6"/>
      </g>
     </g>
    </g>
    <g id="ytick_20">
     <g id="line2d_26">
      <g>
       <use xlink:href="#m70942638c0" x="56.695625" y="7.2" style="stroke: #000000; stroke-width: 0.6"/>
      </g>
     </g>
    </g>
    <g id="text_11">
     <!-- Plasmid abundance (Fp) -->
     <g transform="translate(15.72 122.840625) rotate(-90) scale(0.12 -0.12)">
      <defs>
       <path id="MyriadPro-Regular-50" d="M 486 0 
L 1043 0 
L 1043 1728 
C 1171 1696 1325 1690 1491 1690 
C 2035 1690 2509 1850 2810 2163 
C 3027 2387 3142 2694 3142 3085 
C 3142 3469 2995 3782 2765 3987 
C 2509 4218 2106 4346 1555 4346 
C 1107 4346 755 4307 486 4262 
L 486 0 
z
M 1043 3859 
C 1139 3885 1325 3904 1568 3904 
C 2176 3904 2586 3629 2586 3053 
C 2586 2470 2176 2138 1504 2138 
C 1318 2138 1165 2150 1043 2182 
L 1043 3859 
z
" transform="scale(0.015625)"/>
       <path id="MyriadPro-Regular-6c" d="M 467 0 
L 1030 0 
L 1030 4544 
L 467 4544 
L 467 0 
z
" transform="scale(0.015625)"/>
       <path id="MyriadPro-Regular-73" d="M 256 147 
C 474 19 787 -70 1126 -70 
C 1850 -70 2278 314 2278 864 
C 2278 1325 1997 1594 1466 1792 
C 1062 1952 883 2067 883 2323 
C 883 2554 1062 2746 1395 2746 
C 1683 2746 1907 2637 2029 2560 
L 2163 2970 
C 1997 3078 1722 3162 1408 3162 
C 749 3162 339 2752 339 2253 
C 339 1882 602 1581 1165 1376 
C 1574 1222 1734 1082 1734 813 
C 1734 550 1542 352 1139 352 
C 858 352 563 467 390 570 
L 256 147 
z
" transform="scale(0.015625)"/>
       <path id="MyriadPro-Regular-6d" d="M 467 0 
L 1018 0 
L 1018 1862 
C 1018 1958 1030 2061 1062 2138 
C 1152 2419 1414 2701 1760 2701 
C 2189 2701 2406 2349 2406 1856 
L 2406 0 
L 2957 0 
L 2957 1914 
C 2957 2016 2976 2112 3002 2195 
C 3104 2464 3347 2701 3674 2701 
C 4122 2701 4346 2349 4346 1747 
L 4346 0 
L 4896 0 
L 4896 1818 
C 4896 2893 4288 3162 3872 3162 
C 3578 3162 3379 3085 3194 2944 
C 3066 2848 2938 2720 2842 2541 
L 2829 2541 
C 2694 2906 2374 3162 1958 3162 
C 1440 3162 1152 2886 979 2592 
L 960 2592 
L 934 3098 
L 442 3098 
C 454 2842 467 2586 467 2259 
L 467 0 
z
" transform="scale(0.015625)"/>
       <path id="MyriadPro-Regular-69" d="M 1030 0 
L 1030 3098 
L 467 3098 
L 467 0 
L 1030 0 
z
M 749 4320 
C 538 4320 397 4160 397 3968 
C 397 3776 531 3622 736 3622 
C 960 3622 1094 3776 1094 3968 
C 1094 4166 954 4320 749 4320 
z
" transform="scale(0.015625)"/>
       <path id="MyriadPro-Regular-64" d="M 2579 4544 
L 2579 2694 
L 2566 2694 
C 2426 2938 2112 3162 1632 3162 
C 883 3162 237 2534 243 1504 
C 243 563 826 -70 1574 -70 
C 2080 -70 2451 192 2618 538 
L 2637 538 
L 2662 0 
L 3162 0 
C 3149 211 3136 525 3136 800 
L 3136 4544 
L 2579 4544 
z
M 2579 1299 
C 2579 1210 2573 1133 2554 1056 
C 2451 640 2106 384 1728 384 
C 1126 384 813 902 813 1530 
C 813 2208 1158 2720 1741 2720 
C 2163 2720 2470 2426 2554 2074 
C 2573 2003 2579 1907 2579 1837 
L 2579 1299 
z
" transform="scale(0.015625)"/>
       <path id="MyriadPro-Regular-20" transform="scale(0.015625)"/>
       <path id="MyriadPro-Regular-62" d="M 467 800 
C 467 525 454 211 442 0 
L 922 0 
L 954 506 
L 966 506 
C 1203 102 1562 -70 2010 -70 
C 2701 -70 3405 480 3405 1587 
C 3405 2522 2867 3162 2093 3162 
C 1594 3162 1235 2944 1037 2598 
L 1024 2598 
L 1024 4544 
L 467 4544 
L 467 800 
z
M 1024 1792 
C 1024 1882 1037 1958 1056 2029 
C 1171 2451 1530 2720 1907 2720 
C 2515 2720 2835 2189 2835 1568 
C 2835 858 2490 378 1894 378 
C 1485 378 1152 646 1050 1037 
C 1030 1101 1024 1171 1024 1242 
L 1024 1792 
z
" transform="scale(0.015625)"/>
       <path id="MyriadPro-Regular-75" d="M 3059 3098 
L 2496 3098 
L 2496 1203 
C 2496 1094 2477 992 2445 915 
C 2342 659 2080 397 1702 397 
C 1197 397 1011 800 1011 1389 
L 1011 3098 
L 448 3098 
L 448 1286 
C 448 205 1030 -70 1517 -70 
C 2067 -70 2400 256 2541 506 
L 2554 506 
L 2586 0 
L 3085 0 
C 3066 243 3059 525 3059 851 
L 3059 3098 
z
" transform="scale(0.015625)"/>
       <path id="MyriadPro-Regular-6e" d="M 467 0 
L 1030 0 
L 1030 1862 
C 1030 1958 1043 2054 1069 2125 
C 1171 2438 1459 2701 1824 2701 
C 2355 2701 2541 2285 2541 1786 
L 2541 0 
L 3104 0 
L 3104 1843 
C 3104 2906 2438 3162 2010 3162 
C 1498 3162 1139 2874 986 2586 
L 973 2586 
L 941 3098 
L 442 3098 
C 461 2842 467 2586 467 2259 
L 467 0 
z
" transform="scale(0.015625)"/>
       <path id="MyriadPro-Regular-63" d="M 2579 531 
C 2419 461 2208 384 1888 384 
C 1274 384 813 826 813 1542 
C 813 2182 1197 2714 1907 2714 
C 2214 2714 2426 2637 2560 2566 
L 2688 2995 
C 2534 3078 2240 3162 1907 3162 
C 896 3162 243 2464 243 1510 
C 243 563 851 -70 1786 -70 
C 2202 -70 2528 38 2675 109 
L 2579 531 
z
" transform="scale(0.015625)"/>
       <path id="MyriadPro-Regular-65" d="M 2957 1446 
C 2970 1510 2976 1594 2976 1709 
C 2976 2278 2714 3162 1696 3162 
C 794 3162 243 2432 243 1498 
C 243 563 813 -70 1766 -70 
C 2259 -70 2605 38 2803 128 
L 2701 531 
C 2496 442 2246 371 1843 371 
C 1274 371 794 685 781 1446 
L 2957 1446 
z
M 787 1850 
C 832 2240 1075 2758 1651 2758 
C 2285 2758 2438 2202 2432 1850 
L 787 1850 
z
" transform="scale(0.015625)"/>
       <path id="MyriadPro-Regular-28" d="M 1248 4442 
C 845 3904 416 3078 410 1824 
C 410 576 845 -243 1248 -774 
L 1683 -774 
C 1235 -134 883 678 883 1818 
C 883 2982 1216 3808 1683 4442 
L 1248 4442 
z
" transform="scale(0.015625)"/>
       <path id="MyriadPro-Regular-46" d="M 480 0 
L 1043 0 
L 1043 1952 
L 2669 1952 
L 2669 2413 
L 1043 2413 
L 1043 3846 
L 2803 3846 
L 2803 4314 
L 480 4314 
L 480 0 
z
" transform="scale(0.015625)"/>
       <path id="MyriadPro-Regular-70" d="M 467 -1267 
L 1024 -1267 
L 1024 416 
L 1037 416 
C 1222 109 1581 -70 1990 -70 
C 2720 -70 3405 480 3405 1594 
C 3405 2528 2842 3162 2086 3162 
C 1581 3162 1210 2944 986 2566 
L 973 2566 
L 941 3098 
L 442 3098 
C 454 2803 467 2483 467 2086 
L 467 -1267 
z
M 1024 1798 
C 1024 1869 1043 1952 1062 2022 
C 1165 2445 1530 2714 1914 2714 
C 2509 2714 2835 2182 2835 1568 
C 2835 858 2490 371 1894 371 
C 1491 371 1152 640 1050 1030 
C 1030 1101 1024 1178 1024 1261 
L 1024 1798 
z
" transform="scale(0.015625)"/>
       <path id="MyriadPro-Regular-29" d="M 563 -774 
C 966 -237 1395 582 1402 1837 
C 1402 3091 966 3917 563 4442 
L 128 4442 
C 582 3802 928 2989 928 1837 
C 928 685 576 -141 128 -774 
L 563 -774 
z
" transform="scale(0.015625)"/>
      </defs>
      <use xlink:href="#MyriadPro-Regular-50"/>
      <use xlink:href="#MyriadPro-Regular-6c" x="53.199997"/>
      <use xlink:href="#MyriadPro-Regular-61" x="76.799988"/>
      <use xlink:href="#MyriadPro-Regular-73" x="124.999985"/>
      <use xlink:href="#MyriadPro-Regular-6d" x="164.599976"/>
      <use xlink:href="#MyriadPro-Regular-69" x="247.999969"/>
      <use xlink:href="#MyriadPro-Regular-64" x="271.399963"/>
      <use xlink:href="#MyriadPro-Regular-20" x="327.799957"/>
      <use xlink:href="#MyriadPro-Regular-61" x="348.999954"/>
      <use xlink:href="#MyriadPro-Regular-62" x="397.199951"/>
      <use xlink:href="#MyriadPro-Regular-75" x="454.099945"/>
      <use xlink:href="#MyriadPro-Regular-6e" x="509.199936"/>
      <use xlink:href="#MyriadPro-Regular-64" x="564.699921"/>
      <use xlink:href="#MyriadPro-Regular-61" x="621.099915"/>
      <use xlink:href="#MyriadPro-Regular-6e" x="669.299911"/>
      <use xlink:href="#MyriadPro-Regular-63" x="724.799896"/>
      <use xlink:href="#MyriadPro-Regular-65" x="769.599884"/>
      <use xlink:href="#MyriadPro-Regular-20" x="819.699875"/>
      <use xlink:href="#MyriadPro-Regular-28" x="840.899872"/>
      <use xlink:href="#MyriadPro-Regular-46" x="869.299866"/>
      <use xlink:href="#MyriadPro-Regular-70" x="917.999863"/>
      <use xlink:href="#MyriadPro-Regular-29" x="974.899857"/>
     </g>
    </g>
   </g>
   <g id="line2d_27">
    <path d="M 79.522898 35.798752 
L 170.831989 45.981157 
L 262.14108 69.605546 
L 353.45017 59.279149 
L 444.759261 69.486514 
L 536.068352 80.776564 
" clip-path="url(#p93135c4aec)" style="fill: none; stroke: #1f77b4; stroke-width: 1.5; stroke-linecap: square"/>
   </g>
   <g id="line2d_28">
    <path d="M 79.522898 33.457984 
L 170.831989 54.453397 
L 262.14108 74.882206 
L 353.45017 64.139041 
L 444.759261 79.256415 
L 536.068352 109.854641 
" clip-path="url(#p93135c4aec)" style="fill: none; stroke: #ff7f0e; stroke-width: 1.5; stroke-linecap: square"/>
   </g>
   <g id="line2d_29">
    <path d="M 79.522898 22.051683 
L 170.831989 27.590927 
L 262.14108 44.517229 
L 353.45017 39.361491 
L 444.759261 53.450843 
L 536.068352 69.956204 
" clip-path="url(#p93135c4aec)" style="fill: none; stroke: #2ca02c; stroke-width: 1.5; stroke-linecap: square"/>
   </g>
   <g id="line2d_30">
    <path d="M 79.522898 23.308955 
L 170.831989 30.672208 
L 262.14108 27.986176 
L 353.45017 24.975023 
L 444.759261 20.437052 
L 536.068352 18.806282 
" clip-path="url(#p93135c4aec)" style="fill: none; stroke: #d62728; stroke-width: 1.5; stroke-linecap: square"/>
   </g>
   <g id="line2d_31"/>
   <g id="line2d_32"/>
   <g id="line2d_33"/>
   <g id="line2d_34"/>
   <g id="line2d_35"/>
   <g id="line2d_36"/>
   <g id="line2d_37"/>
   <g id="line2d_38"/>
   <g id="patch_3">
    <path d="M 56.695625 118.08 
L 56.695625 7.2 
" style="fill: none; stroke: #000000; stroke-width: 0.8; stroke-linejoin: miter; stroke-linecap: square"/>
   </g>
   <g id="patch_4">
    <path d="M 558.895625 118.08 
L 558.895625 7.2 
" style="fill: none; stroke: #000000; stroke-width: 0.8; stroke-linejoin: miter; stroke-linecap: square"/>
   </g>
   <g id="patch_5">
    <path d="M 56.695625 118.08 
L 558.895625 118.08 
" style="fill: none; stroke: #000000; stroke-width: 0.8; stroke-linejoin: miter; stroke-linecap: square"/>
   </g>
   <g id="patch_6">
    <path d="M 56.695625 7.2 
L 558.895625 7.2 
" style="fill: none; stroke: #000000; stroke-width: 0.8; stroke-linejoin: miter; stroke-linecap: square"/>
   </g>
  </g>
 </g>
 <defs>
  <clipPath id="p93135c4aec">
   <rect x="56.695625" y="7.2" width="502.2" height="110.88"/>
  </clipPath>
 </defs>
</svg>
